<?xml version="1.0" encoding="utf-8"?>
<!-- Generator: Adobe Illustrator 22.0.1, SVG Export Plug-In . SVG Version: 6.00 Build 0)  -->
<svg version="1.1" xmlns="http://www.w3.org/2000/svg" xmlns:xlink="http://www.w3.org/1999/xlink" x="0px" y="0px"
	 viewBox="0 0 450 220" style="enable-background:new 0 0 450 220;" xml:space="preserve">
<style type="text/css">
	.st0{display:none;}
	.st1{display:inline;fill:#6CD3CE;}
	.st2{opacity:0.19;}
	.st3{fill:none;stroke:#FFFFFF;stroke-width:2.2778;stroke-miterlimit:10;}
	.st4{fill:none;stroke:#FFFFFF;stroke-width:1.7633;stroke-miterlimit:10;}
	.st5{clip-path:url(#SVGID_2_);}
	.st6{fill:#FFFFFF;}
</style>
<g id="BG" class="st0">
	<rect class="st1" width="450" height="220"/>
</g>
<g id="Layer_2">
	<g>
		<path class="st6" d="M288,133.1c4.1,0,8.3-0.1,12.4,0c0.7,0,1.5,0.7,2.2,1.1c-0.6,0.6-1.2,1.6-1.9,1.7c-3.8,0.8-4.7,1.6-4.8,5.4
			c-0.1,3.8,0.1,7.6-0.1,11.4c0,0.9-0.6,2.4-1.3,2.7c-11.4,4.8-23.3,6.8-35.3,3.3c-12.5-3.7-22.9-14.2-21.7-31.5
			c0.9-13.1,11.3-25.3,24.6-28.1c7.6-1.6,15-1.4,22.3,1.7c1,0.4,2.1,0.7,3.2,1.1c2.2,0.8,3.6,0.1,4.7-1.9c0.5-0.8,1.5-1.2,2.3-1.8
			c0.3,0.8,0.8,1.6,0.9,2.4c0.1,5.6,0.2,11.2,0.1,16.8c0,0.8-0.7,1.5-1,2.3c-0.7-0.6-1.8-1-2.1-1.8c-2.7-6.6-6.9-11.8-13.8-14.1
			c-10.4-3.5-19.3,1.1-22.5,11.6c-2.8,9.3-2.8,18.7-0.2,28c3.6,12.9,15,13.8,23.4,11.2c0.7-0.2,1.5-1.5,1.5-2.2
			c0.1-3.9,0.1-7.7-0.1-11.6c-0.1-2.9-1.5-4.3-4.5-4.6c-0.5-0.1-1.1,0.1-1.5-0.2c-0.6-0.3-1-0.9-1.5-1.3c0.6-0.5,1.1-1.3,1.7-1.3
			C279.3,133.1,283.7,133.2,288,133.1C288,133.1,288,133.1,288,133.1z"/>
		<path class="st6" d="M205.6,131.9c0,3.5,0,7,0.1,10.6c0,2.8,0,5.7,0.1,8.5c0.1,4,1.4,5.4,5.5,5.5c1.6,0,3.1,0,2.5,2.5
			c-0.7,0.1-1.4,0.2-2.2,0.2c-8.9,0.1-17.7,0.2-26.6,0.2c-0.8,0-1.7-0.8-2.5-1.2c0.8-0.5,1.6-1.3,2.5-1.4c4.2-0.4,5.4-1.3,5.4-5.5
			c0-14.3-0.1-28.6-0.3-42.9c-0.1-4.1-1.3-5.1-5.5-5.4c-0.9-0.1-1.7-0.9-2.5-1.3c0.8-0.5,1.7-1.3,2.5-1.3c15-0.2,30-0.2,44.9-0.4
			c2.1,0,2.9,0.5,2.8,2.7c-0.1,4.3,0.1,8.6,0,12.9c0,0.7-0.7,1.5-1.1,2.2c-0.6-0.6-1.7-1.2-1.8-1.9c-1.7-7.6-5.3-10.7-13-11.1
			c-2.9-0.1-5.9-0.1-8.8-0.2c-1.5-0.1-2.2,0.5-2.1,2.1c0.1,6.2,0.2,12.4,0.1,18.6c0,1.6,0.7,2,2.2,2c5.6-0.2,9.3-3.4,10.5-9.5
			c0.1-0.4,0-1,0.2-1.3c0.4-0.6,1.1-1.1,1.6-1.6c0.4,0.6,1.2,1.2,1.2,1.8c0.2,2.1,0.1,4.1,0.1,6.2c0,6.6,0.1,13.3,0.1,19.9
			c0,0.8-0.8,1.6-1.2,2.4c-0.6-0.8-1.6-1.5-1.7-2.3c-1.2-7.4-5-11.1-11.4-11C206.7,131.7,206.3,131.8,205.6,131.9z"/>
		<path class="st6" d="M299,86.5c-7.2-4.9-14-10-21.1-14.4c-12.7-7.8-26.6-11.8-41.4-13.1c-14.5-1.3-28.7-0.4-42.6,4.2
			c-11.9,4-22.7,10.3-32.9,17.6c-3.5,2.5-7.1,5.1-10.9,7.3c0.3-0.5,0.5-1,0.8-1.4c11.5-14.2,25.1-25.9,42.1-32.9
			c26.4-10.8,52-8.2,76.7,5.3c11.2,6.1,20.4,14.6,27.8,25C298,84.8,298.4,85.6,299,86.5z"/>
		<path class="st6" d="M170.9,129.8c0,7,0.1,13.9,0.2,20.9c0.1,4.6,1.3,5.7,5.8,6c0.8,0.1,2.1,0.7,2.2,1.3c0.3,1.8-1.3,1.4-2.3,1.4
			c-8.9,0.1-17.7,0.2-26.6,0.2c-0.8,0-2.2-0.6-2.3-1.1c-0.3-1.7,1.1-1.5,2.3-1.5c4.4-0.2,5.7-1.4,5.7-5.8c0-14.1-0.1-28.2-0.3-42.3
			c0-4.2-1.3-5.3-5.7-5.6c-0.9-0.1-1.6-0.9-2.5-1.4c0.9-0.4,1.7-1.2,2.6-1.3c8.8-0.2,17.6-0.2,26.3-0.2c0.9,0,2.3,0.7,2.4,1.3
			c0.3,1.7-1.3,1.4-2.3,1.5c-4.4,0.3-5.6,1.5-5.6,5.9C170.8,115.9,170.9,122.9,170.9,129.8z"/>
	</g>
</g>
</svg>
