<?xml version="1.0" encoding="utf-8"?>
<!-- Generator: Adobe Illustrator 22.0.1, SVG Export Plug-In . SVG Version: 6.00 Build 0)  -->
<svg version="1.1" xmlns="http://www.w3.org/2000/svg" xmlns:xlink="http://www.w3.org/1999/xlink" x="0px" y="0px"
	 viewBox="0 0 450 220" style="enable-background:new 0 0 450 220;" xml:space="preserve">
<style type="text/css">
	.st0{display:none;}
	.st1{display:inline;fill:#6CD3CE;}
	.st2{opacity:0.19;}
	.st3{fill:none;stroke:#FFFFFF;stroke-width:2.2778;stroke-miterlimit:10;}
	.st4{fill:none;stroke:#FFFFFF;stroke-width:1.7633;stroke-miterlimit:10;}
	.st5{clip-path:url(#SVGID_2_);}
	.st6{fill:#FFFFFF;}
</style>
<g id="BG" class="st0">
	<rect class="st1" width="450" height="220"/>
</g>
<g id="Layer_2">
	<g id="faTsp9_1_">
		<g>
			<path class="st6" d="M338,129.6c-0.3,1.7-0.6,3.3-0.9,4.9c0,0.2-0.1,0.5-0.1,0.7c-0.1,0.5-0.4,0.6-0.8,0.6c-1.9,0-3.9,0.1-5.8,0
				c-2.1-0.1-4.3-0.3-6.4-0.9c-1.2-0.4-2.4-0.8-3.6-1.3c-2.3-1-4.5-2.3-6.6-3.7c-0.9-0.6-1.8-1.2-2.9-1.6c-1.5-0.6-2.6,0-3.4,1
				c-1.3,1.7-2.6,3.5-3.8,5.3c-1,1.4-1.9,2.9-2.9,4.3c-0.9,1.3-1.7,2.7-2.7,4c-1.1,1.4-2.4,2.5-4.1,3c-1.2,0.4-2.9-0.2-3.7-1.3
				c-1-1.3-1.3-2.8-1.4-4.4c-0.1-1.1-0.3-2.1-0.4-3.2c-0.1-0.6-0.1-1.1-0.1-1.7c-0.1-1.3-0.1-2.6-0.2-3.9c-0.1-2-0.2-4-0.3-5.9
				c-0.1-1.5-0.1-3-0.2-4.5c-0.1-1.8-0.1-3.6-0.2-5.4c-0.1-2-0.1-3.9-0.2-5.9c-0.1-2.3-0.1-4.7-0.2-7c0-1.2-0.1-2.4-0.1-3.6
				c0-1.5-0.1-3.1-0.1-4.6c0-1.5-0.1-3-0.1-4.5c0-1.7-0.1-3.4-0.1-5.1c0-0.1-0.1-0.3-0.1-0.4c-0.1-0.3-0.1-0.5-0.5-0.6
				c-0.4,0-0.6,0.3-0.6,0.6c-0.3,1.1-0.5,2.1-0.7,3.2c-0.3,1.4-0.7,2.8-1,4.2c-0.6,2.7-1.2,5.3-1.8,8c-0.3,1.3-0.6,2.6-0.9,3.9
				c-0.8,3.3-1.5,6.6-2.3,9.8c-0.5,2.1-1,4.1-1.4,6.2c-0.7,2.8-1.3,5.6-2,8.4c-0.6,2.5-1.2,5.1-1.8,7.6c-0.5,2.2-1.1,4.3-1.6,6.5
				c-0.8,3.4-1.6,6.9-2.5,10.3c-0.5,2-0.9,3.9-1.6,5.8c-0.7,2.1-1.7,4.1-3.4,5.7c-0.7,0.7-1.6,1.1-2.6,1.1c-1.1-0.1-1.9-0.7-2.6-1.6
				c-1-1.3-1.4-2.9-1.9-4.4c-0.5-1.7-1.1-3.5-1.5-5.2c-0.7-2.9-1.3-5.7-2-8.6c-0.4-1.7-0.7-3.4-1.2-5.1c-0.1-0.5-0.3-0.9-0.6-1.3
				c-0.6-0.8-1.6-0.9-2.5-0.3c-1.5,1-3,2-4.5,2.9c-2.7,1.7-5.5,3-8.7,3.6c-0.9,0.2-1.7,0.2-2.6,0.2c-17.6,0-35.2,0-52.8,0
				c-0.2,0-0.4,0-0.7,0c0.1-0.6,0.2-1.1,0.2-1.6c0.3-1.6,0.6-3.2,0.9-4.8c0-0.1,0.2-0.3,0.3-0.3c0.1-0.1,0.3,0,0.5,0c17,0,34,0,51,0
				c1.6,0,3.1-0.4,4.6-1.1c1.8-0.8,3.4-2,5-3.3c1.2-1,2.4-2.1,3.7-3c1.3-0.9,2.8-1.6,4.4-1.9c1.4-0.2,2.6,0,3.8,0.7
				c1,0.6,1.8,1.5,2.4,2.5c1.4,2.4,2.1,5.1,2.7,7.8c0.5,2.2,1,4.4,1.4,6.6c0.4,1.9,0.7,3.8,1.1,5.7c0,0.2,0.1,0.4,0.2,0.6
				c0.1,0.2,0.3,0.4,0.4,0.4c0.2,0,0.4-0.2,0.4-0.4c0.2-0.6,0.3-1.2,0.4-1.7c0.2-1.2,0.5-2.4,0.7-3.5c0.3-1.5,0.6-3,0.9-4.5
				c0.3-1.5,0.7-3,1-4.4c0.6-2.6,1.2-5.2,1.7-7.8c0.6-2.5,1.2-4.9,1.7-7.4c0.6-2.8,1.2-5.5,1.9-8.3c0.4-1.6,0.8-3.2,1.2-4.9
				c0.5-2.1,1-4.3,1.5-6.4c0.4-1.6,0.8-3.2,1.2-4.8c0.5-2.1,1-4.3,1.5-6.4c0.3-1.4,0.7-2.8,1.1-4.3c0.9-3.5,1.7-7,2.6-10.5
				c0.6-2.3,1.2-4.6,1.9-6.9c0.6-1.9,1.6-3.7,2.9-5.2c0.9-1,2.4-1.6,3.5-1.2c0.8,0.3,1.4,0.9,1.8,1.6c0.9,1.5,1.4,3.2,1.6,5
				c0.2,1.9,0.3,3.9,0.4,5.8c0.1,1.3,0.1,2.7,0.2,4c0.1,1.7,0.1,3.3,0.2,5c0.1,1.8,0.1,3.6,0.2,5.3c0.1,1.9,0.1,3.9,0.2,5.8
				c0.1,1.8,0.1,3.6,0.2,5.4c0,1.2,0.1,2.4,0.1,3.6c0,1.1,0.1,2.2,0.1,3.3c0,1.2,0.1,2.4,0.1,3.6c0,1.1,0.1,2.2,0.1,3.3
				c0,1.2,0.1,2.4,0.1,3.7c0,1.3,0.1,2.6,0.1,3.9c0,0.6,0.1,1.3,0.1,1.9c0,2.2,0.1,4.4,0.1,6.6c0,0.7,0,1.4,0.1,2
				c0,0.2,0.1,0.4,0.2,0.6c0.2-0.1,0.6-0.1,0.7-0.3c0.5-0.6,0.9-1.3,1.4-2c1.7-2.3,3.3-4.7,5-7c1.1-1.4,2.3-2.7,3.5-3.9
				c1-1,2.2-2,3.7-2.2c1.1-0.2,2.1-0.1,3.1,0.3c1.8,0.7,3.2,1.9,4.7,3c2.4,1.8,4.8,3.8,7.6,5.1c1.2,0.5,2.4,0.8,3.7,1
				c3.1,0.5,6.3,0.3,9.4,0.3C337.8,129.6,337.9,129.6,338,129.6z"/>
			<path class="st6" d="M112,117.5c0.3-2,0.7-3.9,1-5.9c0.3-1.6,0.6-3.3,0.9-4.9c0.4-2,0.7-4.1,1-6.1c0.3-1.8,0.7-3.6,1-5.4
				c0.3-1.5,0.5-3,0.7-4.5c0.2-1,0.4-1.9,0.5-2.9c0.2-1.3,0.5-2.6,0.7-3.9c0.3-1.4,0.5-2.8,0.8-4.2c0.1-0.7,0.2-1.4,0.4-2.1
				c0.1-0.4,0.2-0.6,0.7-0.6c4.8,0,9.7,0,14.5,0c2,0,4,0.3,5.8,1.2c2.5,1.1,4.1,3.1,4.7,5.8c0.4,2.2,0.4,4.4-0.5,6.5
				c-0.9,2.1-2.5,3.6-4.5,4.7c-0.8,0.5-1.8,0.8-2.6,1.2c0.6,0.3,1.4,0.6,2,0.9c1.8,0.9,3,2.4,3.7,4.3c0.9,2.5,0.6,4.9-0.3,7.3
				c-0.6,1.6-1.5,3-2.7,4.2c-2,2-4.4,3.3-7.2,3.9c-1.2,0.2-2.5,0.4-3.7,0.4c-5.5,0.1-11,0.1-16.5,0.1
				C112.4,117.5,112.2,117.5,112,117.5z M120,112.9c0.5,0,1,0,1.4,0c2.5-0.1,5,0,7.4-0.2c2.8-0.3,5-1.7,6.4-4.2
				c0.8-1.5,1.2-3,0.9-4.6c-0.4-2-1.6-3.3-3.5-4c-1-0.4-2-0.5-3.1-0.5c-2.4,0-4.7,0-7.1,0C121.7,103.8,120.9,108.3,120,112.9z
				 M127.1,94.5c0,0,2.7-0.1,4-0.2c2.1-0.1,3.8-1.2,5-2.9c1.2-1.6,1.7-3.5,1.4-5.6c-0.2-1.1-0.6-2.2-1.5-3c-1.1-1.1-2.6-1.4-4.1-1.5
				c-2,0-4,0-5.9,0c-0.4,0-0.5,0.1-0.5,0.5c-0.1,0.7-0.2,1.4-0.3,2.1c-0.2,1.2-0.5,2.4-0.7,3.6c-0.2,1.3-0.5,2.7-0.7,4.1
				c-0.1,0.8-0.3,1.6-0.4,2.4c0,0.2-0.1,0.5,0.3,0.5C124.8,94.5,126,94.5,127.1,94.5z"/>
			<path class="st6" d="M186.2,113c-1,5.3-2,10.6-2.9,15.8c-2.1,0.3-4.5,0-5.4-2.7c-0.3-0.8-0.1-1.8,0-2.6c0.2-1.6,0.6-3.3,0.9-4.9
				c0.2-1.2,0.4-2.4,0.7-3.6c0.3-1.5,0.5-2.9,0.8-4.4c0.2-1.3,0.5-2.5,0.7-3.8c0.3-1.4,0.5-2.8,0.7-4.3c0.3-1.7,0.6-3.4,0.9-5
				c0.4-2.1,0.7-4.2,1-6.2c0.1-0.8,0.3-1.5,0.4-2.3c0-0.1,0.2-0.3,0.3-0.3c1.1,0,2.3-0.1,3.4,0.3c1.5,0.6,2.6,2.2,2.1,4
				c0,0.1,0,0.1,0,0.3c0.9-1.1,1.8-2.1,3-2.9c1.3-0.9,2.8-1.6,4.3-1.9c1.2-0.2,2.4-0.4,3.6-0.4c2.4,0,4.5,0.8,6.3,2.3
				c2,1.6,3.2,3.8,3.9,6.3c0.6,2,0.6,4,0.5,6c-0.2,2.5-0.8,4.9-2,7.2c-1.4,2.8-3.5,5-6.2,6.5c-1.7,1-3.6,1.6-5.6,1.7
				c-0.9,0.1-1.9,0.1-2.8,0.1c-1.8-0.1-3.5-0.6-5.1-1.5c-1.2-0.7-2.3-1.6-3.1-2.8C186.6,113.6,186.4,113.3,186.2,113z M204.4,101.7
				c0-1.7-0.2-3.1-0.7-4.5c-0.6-1.5-1.4-2.7-2.9-3.4c-1-0.5-2.1-0.6-3.3-0.6c-1.8,0.1-3.4,0.8-4.7,1.9c-1.3,1.2-2.3,2.6-3.1,4.2
				c-0.8,1.8-1.2,3.8-1.3,5.8c0,1.1,0.2,2.1,0.4,3.2c0.4,1.7,1.3,3.1,2.8,4.1c1.3,0.9,2.7,1.1,4.3,1c2.1-0.1,3.8-1.1,5.2-2.7
				C203.4,108.1,204.3,104.9,204.4,101.7z"/>
			<path class="st6" d="M240.5,93c0.3-1.4,0.5-2.7,0.8-4c0-0.1,0.2-0.3,0.3-0.3c2,0,3.9,0,6,0c-0.1,0.6-0.2,1.2-0.3,1.8
				c-0.3,1.5-0.5,3-0.8,4.5c-0.2,1.2-0.4,2.4-0.6,3.7c-0.3,1.5-0.5,3-0.8,4.4c-0.4,2.1-0.7,4.1-1.1,6.2c-0.4,2-0.7,4.1-1,6.1
				c-0.1,0.6-0.2,1.2-0.3,1.8c0,0.1-0.2,0.3-0.3,0.3c-1.2,0-2.3,0.2-3.4-0.4c-1.6-0.8-2.3-2.3-1.9-4.2c-0.5,0.6-1.1,1.3-1.6,1.9
				c-1.5,1.6-3.4,2.5-5.6,3c-2.3,0.5-4.6,0.5-6.8-0.3c-1.5-0.6-2.8-1.4-4-2.6c-1.7-1.7-2.7-3.6-3.2-5.9c-0.4-1.6-0.5-3.2-0.3-4.8
				c0.1-1.5,0.4-3,0.9-4.5c0.4-1.1,0.8-2.2,1.3-3.2c0.6-1.1,1.2-2.1,1.9-3.1c1.1-1.5,2.5-2.7,4.1-3.6c1.4-0.8,2.9-1.4,4.4-1.6
				c1.3-0.2,2.7-0.3,4.1-0.2c1.2,0.2,2.3,0.4,3.5,0.8c1.9,0.8,3.5,1.9,4.6,3.7C240.3,92.7,240.4,92.8,240.5,93z M231.6,92.7
				c-1.6-0.1-2.9,0.4-4.1,1.1c-2.3,1.5-3.6,3.7-4.4,6.3c-0.6,1.9-1,3.8-0.6,5.8c0.1,0.8,0.2,1.6,0.4,2.4c0.5,1.8,1.5,3.2,3.2,4
				c1.2,0.6,2.5,0.7,3.8,0.5c1.6-0.3,3.1-1,4.3-2c1.2-1.1,2.1-2.4,2.8-3.9c0.9-1.9,1.3-3.8,1.4-5.8c0-1.4-0.2-2.9-0.7-4.2
				c-0.5-1.2-1.2-2.3-2.3-3C234.1,93,232.9,92.6,231.6,92.7z"/>
			<path class="st6" d="M159.6,118.2c-2.2,0-4.3-0.4-6.2-1.4c-2.7-1.4-4.5-3.5-5.1-6.5c-0.4-1.8-0.1-3.6,0.2-5.4
				c0.3-1.5,0.5-2.9,0.7-4.4c0.4-2,0.7-4,1.1-6.1c0.3-1.8,0.6-3.7,1-5.5c0-0.1,0.2-0.4,0.3-0.4c1.2,0,2.3,0,3.4,0.4
				c1.6,0.6,2.5,2.2,2.2,3.9c-0.3,1.5-0.5,3-0.8,4.6c-0.2,1-0.4,2-0.5,3.1c-0.2,1.4-0.5,2.7-0.7,4.1c-0.1,0.8-0.3,1.7-0.4,2.5
				c-0.4,2.2,0.5,4.3,2.7,5.2c1.3,0.5,2.6,0.6,4,0.4c0.9-0.2,1.8-0.4,2.7-0.7c1.6-0.6,2.6-1.9,3.1-3.5c0.4-1.2,0.6-2.5,0.8-3.7
				c0.3-1.4,0.5-2.9,0.8-4.3c0.2-1.3,0.4-2.6,0.7-3.9c0.3-1.4,0.5-2.9,0.8-4.3c0.2-1.1,0.4-2.2,0.5-3.3c0-0.3,0.1-0.5,0.5-0.5
				c1.1,0,2.2,0,3.3,0.4c1.6,0.6,2.6,2.3,2.2,4.1c-0.3,1.6-0.6,3.3-0.8,4.9c-0.4,2-0.7,3.9-1.1,5.9c-0.3,1.4-0.5,2.9-0.8,4.3
				c-0.3,1.4-0.9,2.8-1.7,4c-0.8,1.3-1.8,2.4-3.1,3.3c-1.8,1.3-3.8,1.9-5.9,2.4C162.1,118.1,160.7,118.3,159.6,118.2z"/>
		</g>
	</g>
</g>
</svg>
