<?xml version="1.0" encoding="utf-8"?>
<!-- Generator: Adobe Illustrator 22.0.1, SVG Export Plug-In . SVG Version: 6.00 Build 0)  -->
<svg version="1.1" xmlns="http://www.w3.org/2000/svg" xmlns:xlink="http://www.w3.org/1999/xlink" x="0px" y="0px"
	 viewBox="0 0 450 220" style="enable-background:new 0 0 450 220;" xml:space="preserve">
<style type="text/css">
	.st0{display:none;}
	.st1{display:inline;fill:#6CD3CE;}
	.st2{opacity:0.19;}
	.st3{fill:none;stroke:#FFFFFF;stroke-width:2.2778;stroke-miterlimit:10;}
	.st4{fill:none;stroke:#FFFFFF;stroke-width:1.7633;stroke-miterlimit:10;}
	.st5{clip-path:url(#SVGID_2_);}
	.st6{fill:#FFFFFF;}
</style>
<g id="BG" class="st0">
	<rect class="st1" width="450" height="220"/>
</g>
<g id="Layer_2">
	<g id="FpRkyA_1_">
		<g>
			<path class="st6" d="M215.2,115.3c-1.2,0-2.3,0-3.4,0c-0.2,0-0.3,0-0.5,0c0-4.1,0.1-8.1,0.1-12.1c-4.7,0-9.3,0.1-13.9,0.1
				c0,4.1,0.1,8.1,0.1,12.1c-1.3,0-2.6,0-3.9,0c0.2-8.8,0.2-17.5-0.2-26.4c1.3,0,2.6,0,3.9,0c0,3.6,0.1,7.3,0.1,11.1
				c4.6,0,9.2-0.1,13.8-0.1c0.1-3.7-0.1-7.3-0.3-11.1c1.3,0,2.6,0,3.9,0C215.1,97.6,215.2,106.4,215.2,115.3z"/>
			<path class="st6" d="M270,114.8c-1,0-2,0-3,0c-0.1-0.6-0.2-1.1-0.3-1.7c-0.1,0.1-0.3,0.2-0.3,0.3c-3.2,3.4-9.5,2.8-11.9-1.8
				c-2.1-3.9-1.1-9.5,2.2-12.3c2.5-2.2,6.6-2.8,9.4-1.1c0,0,0.1,0,0.2,0c0-3.3,0-6.6-0.1-9.9c1.2-0.2,2.4-0.3,3.7-0.5
				C269.8,96.8,269.9,105.8,270,114.8z M266.4,105.9c0-1.2,0-2.5,0-3.7c0-0.4-0.2-0.7-0.5-1c-2.4-2-6.3-1.4-7.9,1.2
				c-1.5,2.4-1.6,5-0.3,7.5c1.7,3.3,6.3,3.5,8.4,0.5c0.2-0.3,0.4-0.8,0.4-1.2C266.4,108.2,266.4,107.1,266.4,105.9z"/>
			<path class="st6" d="M231.4,111.3c0.4,0.9,0.9,1.6,1.3,2.5c-1.5,1-3.1,1.7-4.8,2c-1.5,0.2-3.1,0.2-4.6-0.3
				c-2.5-0.8-4.2-2.4-5-4.9c-0.9-2.8-0.8-5.7,0.5-8.4c1.5-3.2,4.2-4.8,7.7-4.8c3.9,0,6.5,2.4,7,6.3c0.1,0.9,0.2,1.8,0.2,2.6
				c0,0.7-0.1,0.8-0.8,0.8c-2.9,0.1-5.7,0.2-8.6,0.3c-1,0-2,0.1-3,0.2c0.1,4,2.7,5.4,5.8,5.2C228.5,112.8,229.9,112.2,231.4,111.3z
				 M230.3,104.7c-0.1-0.4-0.1-0.6-0.1-0.9c-0.4-1.6-1.1-3-2.9-3.5c-2.9-0.7-5.9,1.5-6.1,4.6C224.2,104.9,227.2,104.8,230.3,104.7z"
				/>
			<path class="st6" d="M286,110.9c0.4,0.8,0.8,1.6,1.3,2.4c-1.5,1.1-3.2,1.8-5,2c-1.2,0.1-2.4,0.1-3.6-0.1
				c-2.6-0.4-4.5-1.9-5.5-4.2c-1.6-3.7-1.3-7.4,1.1-10.8c2.3-3.2,6.3-3.8,9.4-2.8c1.8,0.6,3,1.9,3.7,3.6c0.7,1.6,0.9,3.3,0.8,5
				c0,0.5-0.2,0.7-0.8,0.8c-2.8,0.1-5.7,0.2-8.5,0.3c-1,0-2.1,0.1-3.1,0.2c0,3.3,2.1,5,4.4,5.2C282.3,112.6,283.6,112.3,286,110.9z
				 M285.1,104.3c-0.4-1-0.6-1.8-1-2.6c-0.5-1-1.4-1.6-2.6-1.7c-2.3-0.3-4.3,0.8-5.3,2.9c-0.2,0.5-0.4,1.1-0.6,1.8
				C278.9,104.5,281.9,104.4,285.1,104.3z"/>
			<path class="st6" d="M323.2,115.2c-4.3,0.2-7.7-3-8.3-7.3c-0.4-2.5,0-4.9,1.4-7.1c1.9-3.2,5.2-4.5,8.8-3.9
				c3.5,0.6,6.1,3.3,6.7,6.8c0.3,2,0.2,4-0.6,5.9C329.8,113.1,326.9,115.1,323.2,115.2z M328.6,105.9c-0.1-0.5-0.1-1-0.2-1.6
				c-0.2-1.3-0.8-2.5-1.8-3.4c-2.5-2.2-6.3-1.3-7.8,1.8c-0.9,1.9-0.9,3.9-0.3,5.9c0.7,2.3,2.2,3.5,4.5,3.6c2,0.1,3.8-0.8,4.8-2.9
				C328.3,108.2,328.5,107.1,328.6,105.9z"/>
			<path class="st6" d="M135.4,113.4c-0.1,0.4-0.1,0.8-0.1,1.1c-0.1,1.4-0.2,1.5-1.6,1.7c-1.8,0.3-3.1-0.4-3.6-2.1
				c0-0.1-0.1-0.3-0.2-0.5c-0.2,0.2-0.3,0.4-0.5,0.6c-1.9,2.4-5.4,2.8-7.9,1.6c-2.9-1.5-3.6-6.4-0.3-8.6c1.6-1.1,3.4-1.5,5.3-1.6
				c1-0.1,1.9,0,2.9,0c0.8-2.1-0.5-4.2-2.7-4.4c-1.7-0.2-3.2,0.3-4.7,1.1c-0.3,0.1-0.5,0.3-0.9,0.5c-0.3-1-0.5-1.9-0.8-2.9
				c0.9-0.7,2-1.1,3.1-1.4c1.6-0.4,3.3-0.6,4.9-0.2c2.6,0.5,4.4,2.4,4.5,5.1c0.1,1.9,0,3.9,0,5.8c0,1-0.1,2.1-0.1,3.1
				c0,1.1,0.5,1.5,1.6,1.3C134.7,113.6,135,113.5,135.4,113.4z M129.6,107.8c-1.5-0.2-3.4-0.1-4.6,0.3c-0.9,0.3-1.7,0.7-2.2,1.6
				c-0.9,1.6-0.2,3.5,1.5,3.9c1.9,0.5,3.9-0.5,4.8-2.2C129.6,110.3,129.5,109.1,129.6,107.8z"/>
			<path class="st6" d="M165.7,98.4c1.3-0.1,2.5-0.1,3.7-0.2c0,5.8,0.1,11.5,0.1,17.4c-0.4,0-0.9,0-1.4,0c-0.5,0-1,0-1.6,0
				c-0.1-0.9-0.3-1.7-0.5-2.6c-0.2,0.3-0.4,0.5-0.6,0.7c-1.7,2-3.9,2.9-6.5,2.5c-2.4-0.3-4-1.9-4.4-4.4c-0.1-0.7-0.2-1.4-0.2-2.1
				c-0.1-2.9-0.1-5.8-0.1-8.7c0-0.8-0.1-1.6-0.2-2.5c1.3-0.1,2.4-0.2,3.7-0.2c0,0.8,0,1.6,0,2.3c0,2.9,0,5.9,0.1,8.8
				c0,0.3,0,0.6,0.1,1c0.4,2.7,2.4,3.4,4.4,2.9c1.3-0.3,2.3-1.1,3-2.1c0.5-0.6,0.7-1.4,0.7-2.2c-0.1-3.2-0.2-6.4-0.2-9.7
				C165.7,99,165.7,98.7,165.7,98.4z"/>
			<path class="st6" d="M136.3,98.6c1-0.1,2-0.1,3.2-0.2c0.1,1,0.2,2,0.3,3.1c0.5-0.6,0.9-1.1,1.4-1.5c1.6-1.5,3.5-2.2,5.7-2
				c2.3,0.2,4,1.8,4.4,4.1c0.1,0.7,0.2,1.5,0.2,2.2c0.1,3.1,0.1,6.3,0.1,9.4c0,0.6,0.1,1.2,0.1,1.8c-1.3,0-2.5,0-3.8,0
				c0.1-1.5,0.1-3,0.1-4.4c0-2.5,0-4.9-0.1-7.4c-0.1-2.2-1.8-3.3-3.9-2.7c-1.7,0.4-2.9,1.4-3.7,3c-0.2,0.5-0.4,1-0.4,1.5
				c0,2.9,0,5.9,0.1,8.8c0,0.4,0.1,0.8,0.1,1.3c-1.3,0-2.5,0-3.7,0C136.4,110.1,136.3,104.4,136.3,98.6z"/>
			<path class="st6" d="M349.6,114.3c-1.3,0-2.5,0-3.8,0c0-0.5,0.1-1,0.1-1.4c0-3.2,0.1-6.3,0.1-9.5c0-0.4-0.1-0.8-0.1-1.2
				c-0.3-1.9-1.8-2.9-3.8-2.5c-1.9,0.4-4.5,2.5-4.3,5.3c0.2,2.7,0.1,5.4,0.1,8.1c0,0.4,0.1,0.8,0.1,1.3c-1.2,0-2.5,0-3.7,0
				c0-5.7-0.1-11.4-0.1-17.2c1-0.1,2.1-0.1,3.2-0.2c0.1,1,0.2,2,0.3,3.2c0.3-0.3,0.4-0.5,0.5-0.7c1.6-1.9,3.5-3,6.1-2.9
				c2.5,0.1,4.4,1.6,4.8,4.1c0.1,0.7,0.2,1.4,0.2,2.2c0.1,3.2,0.1,6.4,0.1,9.6C349.5,113,349.5,113.6,349.6,114.3z"/>
			<path class="st6" d="M239.4,115c-1.2,0-2.4,0-3.5,0c0-5.7-0.1-11.4-0.1-17.2c1-0.1,2.1-0.1,3.2-0.2c0.1,1,0.2,2,0.3,3.2
				c0.3-0.4,0.5-0.6,0.7-0.9c1.9-2.1,4.2-3.2,7-2.6c1.8,0.4,3,1.5,3.5,3.3c0.2,0.8,0.3,1.6,0.4,2.4c0.1,3.1,0.1,6.1,0.1,9.2
				c0,0.9,0.1,1.8,0.1,2.7c-1.3,0-2.5,0-3.7,0c0-3.5,0.1-6.9,0.1-10.3c0-0.6-0.1-1.1-0.1-1.7c-0.3-2.1-1.8-3-3.8-2.5
				c-2,0.5-4.4,2.5-4.3,5.4C239.5,108.8,239.4,111.9,239.4,115z"/>
			<path class="st6" d="M112.8,89.5c1.4,0,2.6,0,3.9,0c0,0.5,0,1.2,0,1.8c0,5.5,0.1,11,0.1,16.4c0,0.9,0,1.8-0.2,2.7
				c-0.5,2.8-2.2,4.6-4.8,5.6c-2.4,0.9-4.8,0.9-7.2,0.1c-1.9-0.7-3.3-2-4-3.9c-0.1-0.2-0.1-0.4-0.2-0.5c0-0.1,0-0.2,0-0.4
				c1.1-0.4,2.3-0.8,3.5-1.1c0.1,0.3,0.2,0.5,0.3,0.8c0.5,1.2,1.3,1.9,2.6,2.2c1.1,0.3,2.2,0.3,3.3,0c1.8-0.5,3-2,3.1-4
				c0-1.4,0-2.8,0-4.3c0-4.1-0.1-8.2-0.1-12.2C113,91.7,112.9,90.7,112.8,89.5z"/>
			<path class="st6" d="M171.6,114.7c0.4-1,0.7-1.9,1.1-2.9c1.5,0.8,2.9,1.3,4.5,1.4c0.9,0,1.8-0.1,2.7-0.5c1.3-0.7,1.5-2.2,0.3-3.1
				c-0.7-0.5-1.5-0.8-2.3-1.2c-1-0.5-2.1-0.8-3.2-1.4c-3.8-1.9-3.1-6.4-0.2-8.3c1.6-1,3.4-1.1,5.2-0.9c1.4,0.2,2.7,0.5,4,1.3
				c-0.4,1-0.7,2-1.1,3c-1.5-1-3.1-1.5-4.9-1.3c-0.5,0.1-1.1,0.3-1.6,0.6c-1,0.7-1,2,0,2.7c0.6,0.4,1.3,0.7,2,1
				c0.9,0.4,1.8,0.7,2.8,1.1c0.3,0.1,0.6,0.3,0.9,0.5c3.7,1.9,2.7,6.3,0.6,8c-1,0.8-2.1,1.4-3.4,1.5c-2.4,0.3-4.7,0-6.9-1
				C172,115,171.8,114.8,171.6,114.7z"/>
			<path class="st6" d="M301.8,110.9c1.5,0.8,2.9,1.3,4.5,1.4c0.8,0,1.7-0.1,2.5-0.4c1.6-0.6,1.7-2.4,0.3-3.3
				c-0.7-0.4-1.4-0.7-2.2-1.1c-1.2-0.5-2.4-1-3.6-1.6c-1.4-0.7-2.2-1.9-2.2-3.6c0-2.2,1.2-4,3.3-4.9c1.8-0.7,3.6-0.7,5.4-0.3
				c1,0.2,1.9,0.6,3,1c-0.4,1.1-0.8,2.1-1.1,3c-1-0.4-2-0.8-3-1c-0.9-0.2-1.9,0-2.8,0.1c-0.3,0-0.7,0.3-1,0.6
				c-0.8,0.7-0.7,1.9,0.2,2.5c0.6,0.4,1.3,0.7,2,1c1.2,0.5,2.4,0.9,3.6,1.5c2.1,1,2.9,2.7,2.6,4.7c-0.2,1.7-1.1,2.9-2.5,3.8
				c-1.9,1.2-4,1.3-6.1,1c-1.4-0.2-2.8-0.5-4.1-1.4C301.1,112.8,301.4,111.9,301.8,110.9z"/>
			<path class="st6" d="M293.6,97.2c0.1,1,0.3,2,0.4,3c0.9-0.8,1.7-1.6,2.7-2.3c1-0.7,2.1-0.9,3.4-1.1c-0.1,0.7-0.1,1.3-0.2,2
				c-0.1,0.6-0.1,1.2-0.2,1.9c-0.3,0-0.6,0-0.8,0c-0.8,0.1-1.7,0.2-2.4,0.5c-1.6,0.6-2.4,1.8-2.3,3.6c0,3,0.1,6.1,0.2,9.1
				c0,0.2,0,0.5,0,0.8c-1.2,0-2.4,0-3.7,0c0.1-5.6,0.3-11.3-0.3-16.9C291.4,97.6,292.5,97.4,293.6,97.2z"/>
			<path class="st6" d="M349.6,127c-22.9,0.2-45.7,0.3-68.5,0.5c0-0.3,0-0.5-0.1-0.9c22.9-0.2,45.7-0.3,68.6-0.5
				C349.6,126.5,349.6,126.7,349.6,127z"/>
			<path class="st6" d="M169.1,127.5c0,0.3,0,0.5,0,0.8c-22.9,0.2-45.7,0.3-68.6,0.5c0-0.3,0-0.5,0-0.8
				C123.3,127.8,146.1,127.6,169.1,127.5z"/>
			<path class="st6" d="M264.4,131.6c-1.1,0.1-1.9,0.2-2.7-0.6c-0.7-0.7-1.5-1.4-2.3-2c-0.3-0.2-0.7-0.4-1-0.4c-0.9,0-1.8,0-2.8,0
				c0,1,0,2,0,3c-0.5,0-0.8,0-1.3,0c0-2.7,0-5.4-0.1-8.2c0.1,0,0.2-0.1,0.4-0.1c2.1,0,4.2-0.1,6.4,0c1.7,0,2.9,1,2.9,2.5
				c0.1,1.2-0.5,2-1.6,2.4c-0.4,0.1-0.9,0.2-1.5,0.3C261.9,129.6,263.2,130.4,264.4,131.6z M255.6,127.5c1.9,0,3.7,0,5.5-0.1
				c1,0,1.5-0.8,1.4-1.7c-0.1-0.8-0.7-1.3-1.6-1.3c-1.4,0-2.8,0-4.2,0c-0.3,0-0.7,0-1.1,0C255.6,125.5,255.6,126.5,255.6,127.5z"/>
			<path class="st6" d="M245.7,132c-1.5,0-2.7-0.3-3.8-1c-2.4-1.6-2.5-5-0.2-6.8c2.2-1.6,6.1-1.4,7.9,0.4c1.7,1.7,1.6,4.5-0.3,6
				C248.2,131.6,246.8,131.9,245.7,132z M245.3,131c0.8-0.2,1.6-0.3,2.2-0.7c1.2-0.5,1.7-1.5,1.8-2.8c0-1.3-0.6-2.2-1.7-2.8
				c-1.5-0.7-3.1-0.7-4.6,0.1c-2.1,1.2-2.1,4.2,0,5.3C243.7,130.6,244.6,130.7,245.3,131z"/>
			<path class="st6" d="M178.3,124c1-0.3,1.8,0,2.5,0.7c1.8,1.8,3.6,3.5,5.4,5.2c0.1,0.1,0.3,0.2,0.6,0.4c0-2.2,0-4.3,0-6.4
				c0.5,0,0.8,0,1.3,0c0,2.7,0,5.4,0.1,8.2c-0.8,0.2-1.5,0.1-2.2-0.6c-1.8-1.9-3.7-3.6-5.6-5.4c-0.2-0.2-0.4-0.3-0.7-0.6
				c0,2.3,0,4.5,0,6.7c-0.5,0-0.9,0-1.3,0C178.3,129.4,178.3,126.7,178.3,124z"/>
			<path class="st6" d="M215.6,130.7c0.2-0.4,0.4-0.6,0.6-0.9c1.6,1.3,3.4,1.4,5.3,1.2c0.5-0.1,1.1-0.2,1.6-0.4
				c0.5-0.2,0.8-0.6,0.8-1.1c0-0.5-0.4-0.8-0.9-0.9c-0.6-0.1-1.3-0.2-1.9-0.3c-1-0.1-2-0.2-3-0.3c-0.3,0-0.7-0.2-1-0.3
				c-0.7-0.3-1.3-0.8-1.3-1.6c0-0.9,0.3-1.6,1.1-1.9c0.8-0.3,1.7-0.6,2.5-0.7c1.5-0.2,2.9,0,4.3,0.5c0.4,0.2,0.8,0.4,1.3,0.7
				c-0.2,0.3-0.4,0.6-0.5,0.8c-1.1-0.3-2.1-0.7-3.1-0.9c-0.9-0.1-1.9,0-2.8,0.1c-0.3,0-0.6,0.2-0.8,0.3c-0.8,0.5-0.7,1.4,0.1,1.7
				c0.6,0.2,1.3,0.3,2,0.4c1,0.1,2,0.2,3,0.3c0.4,0.1,0.8,0.2,1.2,0.3c1.5,0.6,1.7,2.4,0.4,3.4c-0.8,0.6-1.7,0.9-2.6,1
				c-1.7,0.2-3.3,0.2-4.9-0.5C216.6,131.3,216.1,131,215.6,130.7z"/>
			<path class="st6" d="M276.8,124.3c-0.2,0.3-0.4,0.6-0.6,0.9c-1.5-0.9-3-1.2-4.7-1.1c-0.6,0-1.2,0.2-1.8,0.4
				c-0.4,0.1-0.7,0.5-0.7,1c0,0.5,0.4,0.7,0.8,0.8c0.6,0.2,1.3,0.3,2,0.3c1.4,0.1,2.8,0.1,4.1,0.7c1.4,0.6,1.7,2.2,0.5,3.3
				c-0.3,0.3-0.7,0.5-1.1,0.7c-0.6,0.2-1.2,0.4-1.8,0.5c-1.5,0.2-3,0.2-4.4-0.4c-0.6-0.2-1.1-0.6-1.7-0.9c0.2-0.4,0.4-0.6,0.6-1
				c1.6,1.3,3.4,1.4,5.3,1.2c0.6-0.1,1.3-0.3,1.8-0.6c0.3-0.2,0.6-0.7,0.5-1c0-0.3-0.4-0.7-0.7-0.8c-0.7-0.2-1.4-0.3-2.1-0.4
				c-1.2-0.2-2.5-0.2-3.6-0.5c-1.2-0.3-1.7-1.2-1.5-2.3c0.2-0.8,0.7-1.2,1.3-1.5c1.1-0.5,2.3-0.6,3.5-0.6
				C274,123,275.5,123.3,276.8,124.3z"/>
			<path class="st6" d="M205.1,128.1c0,1,0,1.9,0,2.9c2.5,0,5,0,7.5-0.1c0,0.4,0,0.7,0,1c-3,0-5.9,0-8.8,0.1c0-2.7,0-5.5-0.1-8.2
				c2.9,0,5.9,0,8.8-0.1c0,0.3,0,0.6,0,1c-2.5,0-5,0-7.5,0.1c0,0.8,0,1.5,0,2.3c1.5,0,3,0,4.5,0c0,0.3,0.1,0.6,0.1,0.9
				C208.2,128,206.7,128.1,205.1,128.1z"/>
			<path class="st6" d="M190.5,123.9c0.6,0,1.1,0,1.6,0c1.3,2.3,2.6,4.7,3.9,7.1c0.2-0.3,0.3-0.4,0.4-0.6c1-1.9,2-3.7,3-5.6
				c0.4-0.7,0.8-1,1.5-0.9c0.1,0,0.3,0,0.5,0c-0.1,0.3-0.2,0.5-0.3,0.7c-1.3,2.4-2.6,4.7-3.9,7.1c-0.3,0.6-0.7,0.6-1.2,0.6
				c-0.5,0-0.9,0-1.2-0.5c-1.3-2.4-2.7-4.8-4-7.2C190.7,124.2,190.6,124.1,190.5,123.9z"/>
			<path class="st6" d="M232,124.7c-1.5,0-2.8,0-4.2,0c0-0.4,0-0.7,0-1.1c3.2,0,6.4,0,9.7-0.1c0,0.3,0,0.6,0,1.1c-1.4,0-2.7,0-4.2,0
				c0,2.4,0,4.8,0.1,7.1c-0.5,0-0.9,0-1.4,0C232.1,129.5,232,127.1,232,124.7z"/>
			<path class="st6" d="M173,124c0.4,0,0.8,0,1.3,0c0,2.7,0,5.4,0.1,8.2c-0.4,0-0.8,0-1.3,0C173.1,129.5,173.1,126.8,173,124z"/>
		</g>
	</g>
</g>
</svg>
