<?xml version="1.0" encoding="utf-8"?>
<!-- Generator: Adobe Illustrator 22.0.1, SVG Export Plug-In . SVG Version: 6.00 Build 0)  -->
<svg version="1.1" xmlns="http://www.w3.org/2000/svg" xmlns:xlink="http://www.w3.org/1999/xlink" x="0px" y="0px"
	 viewBox="0 0 450 220" style="enable-background:new 0 0 450 220;" xml:space="preserve">
<style type="text/css">
	.st0{display:none;}
	.st1{display:inline;fill:#6CD3CE;}
	.st2{opacity:0.19;}
	.st3{fill:none;stroke:#FFFFFF;stroke-width:2.2778;stroke-miterlimit:10;}
	.st4{fill:none;stroke:#FFFFFF;stroke-width:1.7633;stroke-miterlimit:10;}
	.st5{clip-path:url(#SVGID_2_);}
	.st6{fill:#FFFFFF;}
</style>
<g id="BG" class="st0">
	<rect class="st1" width="450" height="220"/>
</g>
<g id="Layer_2">
	<g id="IojIRq_1_">
		<g>
			<path class="st6" d="M152,86.9c-3.5,5.8-5.6,12.1-7.1,18.7c0.2-0.3,0.3-0.5,0.5-0.8c3-5.6,6.4-11.1,10.7-15.8
				c2.4-2.6,5.1-4.8,8.7-5.7c0.6-0.2,1.2-0.3,1.8-0.3c1.9-0.1,3,1,3.1,3c0,0.3,0,0.7,0.1,1c1.1-1.8,1.8-3.7,0.9-5.7
				c-1.4-3-4.2-3.1-7.2-3c1.3-0.7,2.4-1.3,3.4-1.9c0.9-0.6,1.8-1.3,2.6-2c1.5-1.5,2.2-3.3,1.3-5.4c-1-2.5-2.2-4.9-3.5-7.3
				c-1.5-2.9-3.3-5.7-3.8-9c-0.2-1.4-0.3-2.8-0.2-4.1c0.2-2.3,1.4-4,3.4-5.2c0.2-0.1,0.3-0.2,0.5-0.3c-0.7-1.1-1.4-2.2-2-3.3
				c2,0.7,3.9,1.2,5.7,1.9c1.5,0.6,3.1,1.2,4.5,2.1c1.9,1.2,3,3.1,3.2,5.3c0.4,4.6,2.2,8.7,3.7,12.9c2.1,5.9,4.3,11.8,6.5,17.7
				c0.4,1,0.6,2-0.5,3c0-1.6-1-2.4-1.9-3.4c-2-2-3.9-4-5.8-6.1c-0.2-0.2-0.4-0.6-0.6-0.8c-0.1,0.1-0.2,0.2-0.2,0.2
				c0,0.1,0,0.2,0,0.3c2.2,4.7,1.7,9.4,0.2,14.1c-2,6.5-5.5,12.3-9.7,17.6c-0.1,0.1-0.1,0.3-0.2,0.4c-0.1-0.1-0.2-0.1-0.2-0.2
				c0-0.8,0-1.7,0-2.5c-0.1,0-0.2-0.1-0.2-0.1c-0.7,4.3-4,6.5-7,8.9c-0.7-1-1.8-1.2-3-1.1c-2.9,0.4-5.8,0.8-8.7,1.3
				c-1.6,0.3-3.1,0.6-4.7,0.9c6.8-4.8,13.7-9.6,18.7-16.4c-0.1-0.1-0.1-0.1-0.2-0.2c-1.3,1.3-2.5,2.6-3.9,3.9
				c-4.8,4.5-10.1,8.4-15.7,11.9c-3.3,2.1-6.8,2.1-10.4,1c-0.6-0.2-1.1-0.5-1.7-0.8c0.2-0.1,0.2-0.2,0.3-0.3c3.5-0.8,6.2-2.9,8-6
				c1.5-2.4,2.7-5,3.9-7.6C146.9,93.6,149.1,90.1,152,86.9z M187.6,78.9c0.1,0,0.1,0,0.2-0.1c-0.1-0.3-0.2-0.7-0.3-1
				c-3-7.6-6.1-15.1-9.1-22.7c-0.1-0.2-0.1-0.5-0.3-0.6c-0.3-0.2-0.7-0.4-1-0.3c-0.2,0.1-0.5,0.6-0.5,0.9c0,0.4,0.3,0.9,0.5,1.3
				c2.3,5.3,4.6,10.5,6.8,15.8c0.2,0.4,0.3,0.8,0.5,1.2c-0.3-0.1-0.4-0.3-0.5-0.5c-2.3-4.5-4.6-9.1-7-13.6c-0.6-1.2-1.2-2.3-2-3.4
				c-0.7-1.1-1.9-1.6-2.8-1.1c-0.8,0.4-1.4,0.1-1.9-0.3c-1.1-0.7-1.8-1.8-2-3.1c-0.1-0.5-0.2-1.1-0.3-1.7c-1.2,2.7-0.1,5.3,2.3,6.3
				c0.3,0.1,0.7,0.4,0.8,0.7c0.7,1.6,1.2,3.4,2.1,4.9c3.4,5.5,7.7,10.3,12.1,15.1C186,77.3,186.8,78.1,187.6,78.9z M176.9,51.5
				c-0.6-0.4-0.9-0.9-1.3-0.9c-0.6-0.1-1,0.4-0.8,0.9c0.2,0.5,0.7,0.8,1.1,1.1C176.1,52.3,176.4,52,176.9,51.5z"/>
			<path class="st6" d="M215.8,122.4c-2.2,0-4.3,0-6.5,0c-0.3,0-0.7-0.4-1-0.7c-3-4-5.9-8.1-8.9-12.2c-1.8-2.5-3.3-3.2-6.6-2.9
				c0,0.3,0,0.6,0,1c0,3.3,0,6.5,0,9.8c0,1.9,0.2,3.7,2.3,4.9c-3.1,0-6,0-9.2,0c2.1-1.2,2.3-3.1,2.3-5.1c0-7.7,0-15.4,0-23.1
				c0-1.9-0.3-3.6-2.1-4.7c0.2-0.1,0.3-0.1,0.3-0.1c4.3,0,8.7-0.1,13,0.1c2.8,0.1,5.4,1,7.5,2.9c3.8,3.4,3.5,8.7-0.7,11.5
				c-2.2,1.5-4.6,2-7.3,2.2c0.3,0.1,0.5,0.2,0.7,0.2c2.3,0.3,4.1,1.6,5.4,3.4c2.3,3.1,4.6,6.2,6.9,9.3
				C213.2,120.4,214.3,121.6,215.8,122.4z M193,105.3c2.3-0.2,4.6-0.3,6.8-0.7c2.5-0.5,4.1-2.1,4.5-4.7c0.2-0.9,0.2-1.8,0.2-2.8
				c-0.1-3.2-1.7-5.2-4.6-5.9c-2.3-0.6-4.6-0.4-6.9-0.2C193,95.8,193,100.4,193,105.3z"/>
			<path class="st6" d="M223.3,159.3c1.6-1.3,2.1-2.9,2.1-4.7c0-7.9,0-15.8,0-23.8c0-1.8-0.5-3.4-2.3-4.6c0.4,0,0.7,0,0.9,0
				c3.7,0,7.5,0,11.2,0c3.3,0,6.5,0.7,9.4,2.6c4.3,2.8,6.3,7,6.9,11.9c0.3,2.5,0.2,5-0.5,7.5c-1.5,5.9-5.8,9.9-11.9,10.7
				c-1.7,0.2-3.4,0.3-5.1,0.3C230.5,159.4,226.9,159.3,223.3,159.3z M229.9,127.9c0,0.3,0,0.5,0,0.7c0,7.5,0,14.9,0,22.4
				c0,0.9,0.1,1.7,0.2,2.6c0.3,2.7,1.5,3.8,4.2,4.1c0.2,0,0.5,0.1,0.7,0.1c5.1,0.1,9.2-1.7,10.6-7.4c1.3-5.3,1.1-10.6-0.6-15.7
				c-1.2-3.5-3.6-5.7-7.3-6.6C235.2,127.5,232.6,127.7,229.9,127.9z"/>
			<path class="st6" d="M159.5,142.7c0.1-6.1,2.2-11.2,7.5-14.6c9.7-6.1,24.2-1.2,25.4,12.6c0.4,4.9-0.5,9.6-3.8,13.4
				c-4.6,5.3-10.6,6.9-17.3,5.1c-6.6-1.8-10.3-6.4-11.5-13.1c-0.1-0.4-0.1-0.8-0.2-1.2C159.6,144.2,159.5,143.5,159.5,142.7z
				 M187.2,142.8c0-0.5,0-1,0-1.5c-0.1-2.9-0.6-5.8-1.9-8.4c-2-3.9-5.3-5.8-9.6-5.7c-4.4,0.1-7.4,2.3-9.2,6.2
				c-1,2.3-1.4,4.6-1.6,7.1c-0.2,3.8,0,7.5,1.4,11c1.7,4.4,5.1,6.8,9.6,6.8c4.7,0,8.1-2.3,9.9-6.7
				C186.9,148.8,187.2,145.8,187.2,142.8z"/>
			<path class="st6" d="M245.4,107.5c-0.1,4.8-2.4,10.1-8.1,13.4c-9.6,5.6-23.5,0.6-24.8-12.9c-0.4-4.6,0.3-8.9,3.1-12.7
				c3.5-4.8,8.4-6.9,14.2-6.5C239.2,89.5,245.4,96.3,245.4,107.5z M240.1,106c0.1,0,0.2,0,0.3,0c-0.4-2.5-0.6-5-1.3-7.4
				c-1.6-5.8-5.9-8.7-11.9-8c-4.4,0.5-7.1,3.3-8.4,7.3c-1.6,5-1.6,10.1-0.3,15.2c0.6,2.3,1.7,4.3,3.4,5.9c4,3.8,13.2,4,16.5-3.8
				C239.7,112.3,240.1,109.2,240.1,106z"/>
			<path class="st6" d="M287,142.8c0,6.2-2.2,11.3-7.6,14.7c-9.6,5.9-23.6,1-25.1-12c-0.6-5,0.1-9.8,3.5-13.9
				c4.5-5.4,10.4-7.1,17-5.5c6.5,1.6,10.4,6,11.9,12.5c0.2,0.7,0.3,1.5,0.3,2.2C287.1,141.5,287,142.1,287,142.8z M259.4,142.6
				c0,3.4,0.3,6.6,1.8,9.6c1.8,3.9,4.8,6,9.1,6.1c4.5,0.1,7.7-1.8,9.7-5.8c1.3-2.6,1.7-5.3,1.8-8.1c0.2-3.8-0.1-7.6-1.7-11.1
				c-1.8-3.9-5-6-9.3-6c-4.3-0.1-7.5,1.8-9.5,5.7C259.8,136,259.4,139.3,259.4,142.6z"/>
			<path class="st6" d="M309.8,126.3c2.5,0,4.8,0,7.2,0c-0.2,0.2-0.3,0.2-0.4,0.3c-1.5,0.9-2.2,2.3-2.2,4.1c0,9.5,0,19,0,28.5
				c0,0.4,0,0.7,0,1.1c-0.1,0-0.1,0.1-0.2,0.1c-7.1-9.7-14.1-19.4-21.3-29.2c0,0.4-0.1,0.7-0.1,0.9c0,7.6,0,15.3,0,22.9
				c0,1.9,0.9,3.2,2.7,4.3c-2.5,0-4.7,0-7,0c0,0,0-0.1,0-0.1c1.9-1.1,2.5-2.8,2.5-5c-0.1-8-0.1-16,0-24c0-1.4-0.5-2.3-1.5-3
				c-0.4-0.2-0.7-0.5-1.3-0.9c0.8,0,1.3,0,1.9,0c0.8,0,1.7,0.1,2.5,0c1.8-0.3,2.8,0.5,3.9,2c5.1,7.2,10.4,14.4,15.6,21.6
				c0.1,0.2,0.3,0.4,0.6,0.7c0-0.5,0-0.9,0-1.2c0-5.9,0-11.7,0-17.6C312.7,129.4,312.2,127.5,309.8,126.3z"/>
			<path class="st6" d="M214.7,126.3c2.5,0,4.8,0,7.3,0c-0.3,0.2-0.5,0.4-0.7,0.5c-1.3,0.9-2,2.2-2,3.8c0,9.5,0,19.1,0,28.6
				c0,0.4,0,0.7,0,1.1c-0.1,0-0.1,0.1-0.2,0.1c-7.1-9.7-14.1-19.4-21.3-29.2c0,0.4-0.1,0.6-0.1,0.8c0,7.7,0,15.4,0,23.1
				c0,1.9,1,3.1,2.7,4.2c-2.4,0-4.7,0-7,0c0,0,0-0.1,0-0.1c1.9-1.1,2.5-2.8,2.5-5c-0.1-8-0.1-16.1,0-24.1c0-1.3-0.4-2.1-1.4-2.8
				c-0.4-0.3-0.8-0.6-1.4-1c2.3,0,4.4,0,6.4,0c0.3,0,0.6,0.4,0.8,0.7c5.5,7.5,10.9,15.1,16.4,22.6c0.2,0.3,0.4,0.5,0.7,1
				c0-0.5,0.1-0.7,0.1-1c0-6.1,0-12.1,0-18.2C217.5,129.1,216.8,127.5,214.7,126.3z"/>
			<path class="st6" d="M277.1,88.3c0.7,2,1.4,3.7,2,5.4c3,8,6,15.9,9,23.9c0.7,2,1.8,3.6,3.9,4.8c-3.3,0-6.3,0-9.5,0
				c2.1-1.3,1.5-3.1,0.8-4.8c-0.8-2-1.6-4-2.3-6c-0.2-0.5-0.5-0.8-1.1-0.8c-3,0-5.9,0-8.9,0c-0.6,0-0.9,0.2-1.1,0.7
				c-0.8,2.3-1.7,4.5-2.6,6.8c-0.6,1.7-0.4,2.7,1.1,4c-2.1,0-4.2,0-6.3,0c0.7-0.6,1.5-1.1,2.1-1.9c0.7-0.9,1.2-1.9,1.6-3
				c3.6-9.4,7.1-18.8,10.7-28.2C276.8,89.1,276.9,88.8,277.1,88.3z M280.1,109.2c-1.5-4-3-8-4.6-12.1c-1.6,4.2-3.1,8.1-4.6,12.1
				C274.1,109.2,277,109.2,280.1,109.2z"/>
			<path class="st6" d="M316.4,114.2c-0.7,2.8-1.3,5.5-2,8.2c-7.3,0-14.5,0-21.8,0c0.2-0.2,0.3-0.3,0.4-0.3c1.2-0.9,1.8-2.1,1.8-3.6
				c0-8.4,0-16.8,0-25.1c0-1.6-0.6-2.9-2.2-3.9c3.1,0,6,0,9.1,0c-2.2,1.3-2.2,3.4-2.2,5.4c0,7.1,0,14.3,0,21.4c0,0.3,0,0.6,0,0.9
				c0.1,2.6,1.2,3.7,3.8,3.7c4-0.1,7.6-1.2,10.6-3.9C314.7,116.2,315.5,115.2,316.4,114.2z"/>
			<path class="st6" d="M159.6,151.1c-0.6,2.7-1.3,5.4-1.9,8.1c-7.3,0-14.5,0-22,0c2.3-1.3,2.3-3.3,2.3-5.3c0-7.8,0-15.5,0-23.3
				c0-1.8-0.5-3.3-2.3-4.3c3.1,0,6,0,9.1,0c-2.3,1.4-2.2,3.6-2.2,5.8c0,6.8,0,13.6,0,20.4c0,1,0.1,2,0.3,2.9
				c0.2,1.3,1.1,2.2,2.4,2.3c5.5,0.3,10.2-1.4,13.6-5.9c0.2-0.2,0.3-0.4,0.5-0.7C159.5,151.1,159.5,151.1,159.6,151.1z"/>
			<path class="st6" d="M251.2,122.4c1.8-1.1,2.3-2.6,2.3-4.4c0-3.1,0-6.2,0-9.3c0-0.5-0.2-1-0.4-1.4c-2.2-4.1-4.5-8.3-6.7-12.4
				c-1.2-2.1-2.6-4-4.9-5.4c3.5,0,6.8,0,10.2,0c-1.7,1.6-1.5,3.2-0.5,5c1.9,3.3,3.7,6.7,5.5,10c0.1,0.2,0.3,0.5,0.5,0.8
				c1.9-3.1,3.8-6.2,5.6-9.2c0.4-0.7,0.9-1.5,1.3-2.2c1-1.7,0.7-3-0.8-4.3c2.3,0,4.5,0,6.7,0c-0.6,0.5-1.2,0.8-1.6,1.3
				c-1.3,1.7-2.6,3.4-3.7,5.2c-2.1,3.3-4.1,6.6-6,9.9c-0.3,0.4-0.4,1-0.4,1.5c0,3.4,0,6.8,0,10.2c0,1.8,0.3,3.5,2.2,4.7
				C257.2,122.4,254.3,122.4,251.2,122.4z"/>
			<path class="st6" d="M174.7,122.5c-4.4,0-8.5,0-12.7,0c0.4-0.8,1-0.9,1.7-1.1c1.8-0.5,2.1-1,1.5-2.7c-0.4-1.2-1-2.4-1.4-3.6
				c-0.2-0.7-0.2-1.5-0.1-2.2c0.1-0.8,0.7-1.4,1.6-1.6c0.3,1.4,0.4,2.7,0.8,4.1c0.3,1,0.7,2,1.1,2.9c0.8,1.5,2.1,2.2,3.7,2.4
				c0.6,0.1,1.3,0.1,1.9,0.2C173.6,121,174.3,121.4,174.7,122.5z"/>
		</g>
	</g>
</g>
</svg>
