<?xml version="1.0" encoding="utf-8"?>
<!-- Generator: Adobe Illustrator 22.0.1, SVG Export Plug-In . SVG Version: 6.00 Build 0)  -->
<svg version="1.1" xmlns="http://www.w3.org/2000/svg" xmlns:xlink="http://www.w3.org/1999/xlink" x="0px" y="0px"
	 viewBox="0 0 450 220" style="enable-background:new 0 0 450 220;" xml:space="preserve">
<style type="text/css">
	.st0{display:none;}
	.st1{display:inline;fill:#6CD3CE;}
	.st2{opacity:0.19;}
	.st3{fill:none;stroke:#FFFFFF;stroke-width:2.2778;stroke-miterlimit:10;}
	.st4{fill:none;stroke:#FFFFFF;stroke-width:1.7633;stroke-miterlimit:10;}
	.st5{fill:#FFFFFF;}
</style>
<g id="BG" class="st0">
	<rect class="st1" width="450" height="220"/>
</g>
<g id="Layer_2">
	<path id="TsSXkB_1_" class="st5" d="M161.9,98c0-1,0-1.9,0-2.9c0-0.6,0.2-0.9,0.7-1.2c5.2-2.5,10.3-5.1,15.5-7.7
		c0.7-0.3,1.3-0.6,2-1c0.4-0.2,0.7-0.2,1,0.1c0.3,0.4,0.7,0.7,1.1,1.1c0.2,0.3,0.4,0.3,0.7,0c1.6-1.7,3.3-3.3,4.9-5
		c0.2-0.2,0.2-0.5,0.3-0.7c0-0.5,0.1-1,0-1.5c-0.2-1.3,0.3-2.2,1.3-3.1c2-1.8,3.8-3.8,5.7-5.7c0.3-0.3,0.6-0.7,0.8-1.1
		c2.5-5.4,5.5-10.4,8.6-15.5c0.3-0.5,0.7-0.7,1.2-0.8c2.7-0.5,5.4-1.1,8.1-1.6c1.2-0.2,2.5-0.1,3.8-0.2c0.4,0,0.4,0.2,0.4,0.5
		c0,0.8,0,1.7,0,2.5c0,0.5,0.2,0.9,0.5,1.3c2.1,2.1,4.2,4.3,6.4,6.4c0.4,0.4,0.6,0.8,0.6,1.4c0,1.9,0,3.9,0,5.8
		c0,0.5,0.1,0.9,0.5,1.3c3.4,3.4,6.8,6.8,10.3,10.2c0.3,0.3,0.6,0.6,1,0.8c3.3,2.2,6.7,4.5,10,6.7c0.4,0.3,0.9,0.5,1.3,0.6
		c1.3,0.5,2.7,0.9,4,1.3c0.6,0.2,1,0.5,1.2,1.1c0.4,1.4,0.9,2.7,1.3,4.1c0.1,0.5,0.4,0.7,0.8,1c2.1,1,4.2,2.1,6.3,3.2
		c0.4,0.2,0.5,0.3,0.1,0.7c-1,1-2,2-3,3c-0.2,0.2-0.6,0.4-0.9,0.4c-0.9,0.1-1.7,0-2.6,0c-0.4,0-0.6-0.1-0.6-0.6c0-0.9,0-1.7,0-2.6
		c0-0.5-0.1-0.7-0.6-0.8c-1.5-0.5-2.9-0.9-4.3-1.5c-0.4-0.1-0.8-0.4-1.1-0.7c-2.8-2.7-5.5-5.5-8.3-8.2c-0.5-0.4-1-0.8-1.6-1.1
		c-1.9-1-3.9-1.9-5.8-2.9c-0.4-0.2-0.8-0.6-1.1-1c-1.6-2.4-3.3-4.8-4.9-7.3c-1.4-2.2-3-4.3-5-6c-0.8-0.7-1-1.4-0.5-2.3
		c0.5-1.2,0.8-2.4,1.2-3.6c0.2-0.5,0.2-0.8-0.2-1.2c-1.6-1.5-3.1-3.1-4.6-4.6c-0.3-0.3-0.5-0.4-0.9,0c-0.9,1-1.9,1.9-2.9,2.9
		c-0.2,0.2-0.4,0.7-0.4,1c0,2.1,0,4.1,0,6.2c0,0.5-0.1,0.8-0.5,1.2c-0.9,0.9-1.8,1.8-2.7,2.7c-0.4,0.4-0.4,0.6,0,1
		c2.1,2.1,4.2,4.2,6.3,6.3c0.7,0.7,0.7,0.5,0,1.3c-0.8,0.8-1.7,1.7-2.5,2.5c-0.6,0.6-0.6,0.6,0,1.2c2.1,2.1,4.2,4.2,6.3,6.2
		c0.4,0.4,0.6,0.7,0.5,1.2c0,0,0,0.1,0,0.1c-0.3,2.1,0.4,4,1.4,5.8c0.7,1.3,1.4,2.6,2,3.9c0.2,0.5,0.5,0.8,1.1,0.7
		c0.9-0.1,2,0.2,2.8-0.1c0.8-0.3,1.4-1.2,2.1-1.9c0.5-0.5,0.9-1,1.4-1.4c0.2-0.2,0.2-0.4,0-0.6c-1.5-1.1-2-2.7-2.5-4.4
		c-0.2-0.8-0.5-1.6-0.8-2.3c-0.1-0.4-0.1-0.6,0.4-0.5c0.1,0,0.1,0,0.2,0c1,0,2,0,3,0c0.5,0.9,0.9,1.7,1.4,2.6
		c0.1,0.2,0.2,0.4,0.3,0.6c1.1,2.9,2.9,5.3,5.2,7.3c0.1,0.1,0.2,0.2,0.3,0.3c0.3,0.3,0.2,0.4-0.1,0.5c-1.1,0.4-2.2,0.8-3.3,1.1
		c-2.2,0.7-4.4,1.4-6.5,2.2c-0.6,0.2-1.1,0.6-1.5,1c-0.9,0.9-1.8,1.8-2.7,2.7c-0.3,0.3-0.5,0.4-0.8,0c-1-1.1-2.1-2.1-3.1-3.1
		c-0.2-0.2-0.4-0.5-0.5-0.8c-0.5-1.4-1-2.9-1.4-4.4c-0.1-0.5-0.4-0.7-0.9-0.9c-1.4-0.4-2.8-1-4.2-1.4c-0.6-0.2-0.8-0.5-0.8-1.1
		c0.1-0.7,0-1.4,0-2.1c0-0.6-0.2-0.8-0.8-0.8c-0.7,0-1.5,0-2.2,0c-0.5,0-0.7,0.2-0.8,0.7c-0.4,1.9-0.6,3.8-1.1,5.6
		c-0.7,2.4-0.2,4.6,0.7,6.7c0.2,0.6,0.7,1.4,0.5,1.8c-0.2,0.4-1.1,0.6-1.7,0.9c-2.1,0.9-4.2,1.8-6.2,2.7c-0.5,0.2-0.7,0.2-1-0.3
		c-0.6-0.9-1.3-1.9-1.9-2.8c-0.3-0.4-0.3-0.7-0.1-1c0.2-0.3,0.3-0.7,0.5-0.9c1.1-1.6,1.3-3.4,1.1-5.3c0-0.4-0.1-0.6-0.6-0.6
		c-1.5,0-3,0-4.5,0c-0.3,0-0.7,0.3-1,0.5c-2.1,2.1-4.3,4.2-6.4,6.4c-0.4,0.4-0.7,0.5-1.3,0.3c-1.4-0.5-2.8-1-4.2-1.4
		c-0.6-0.2-0.8-0.4-0.8-1.1c0-1.9,0-3.9,0-5.8c0-0.6-0.1-0.9-0.8-1c-2.7-0.4-5.3-0.9-8-1.2c-0.3-0.1-0.8,0.1-1.1,0.2
		c-2,1-4,1.9-5.9,2.9c-0.4,0.2-0.8,0.3-1.2,0c-0.9-0.5-1.9-1-2.9-1.5c-0.4-0.2-0.6-0.5-0.6-0.9C161.9,100.1,161.9,99.1,161.9,98
		C161.9,98,161.9,98,161.9,98z M161.9,162.3c0,0.6,0.2,0.8,0.8,0.8c0.9,0,1.8,0,2.6,0c0.6,0,0.8-0.2,0.8-0.8c0-1.9,0-3.8,0-5.7
		c0-0.9,0-0.9,0.9-0.9c1.6,0,3.3,0,4.9-0.1c4.3-0.3,7-4.2,6-8.3c-0.7-2.9-3.3-4.9-6.5-5c-2.9,0-5.8,0-8.7,0c-0.8,0-0.8,0-0.8,0.8
		c0,3.2,0,6.3,0,9.5C161.9,155.9,161.9,159.1,161.9,162.3z M171.2,146.5c1.5,0.1,2.6,1.1,2.6,2.5c0.1,1.4-0.9,2.6-2.5,2.7
		c-1.6,0.1-3.1,0-4.7,0.1c-0.4,0-0.6-0.1-0.6-0.6c0-1.4,0-2.8,0-4.2c0-0.4,0.2-0.5,0.5-0.5c0.8,0,1.6,0,2.4,0
		C169.7,146.5,170.5,146.4,171.2,146.5z M208.3,168c0,0.7,0,0.7,0.6,0.4c1-0.5,2-1,3.1-1.5c0.4-0.2,0.4-0.4,0.4-0.8
		c0-1.1,0-2.2,0-3.4c0-0.4,0-0.6,0.5-0.3c3.1,1.8,6.6,0.7,8-2.6c0.5-1.2,0.7-2.5,0.8-3.8c0.2-2.2-0.1-4.3-1.2-6.2
		c-1.5-2.6-4.8-3.5-7.3-2.1c-0.3,0.2-0.8,0.9-0.8-0.2c0-0.1-0.3-0.2-0.5-0.2c-0.9,0-1.8,0-2.7,0c-0.8,0-0.8,0-0.8,0.8
		c0,3.3,0,6.5,0,9.8C208.3,161.4,208.3,164.7,208.3,168z M212.4,153.4c0-1.2,0.4-1.8,1.5-2.1c1.2-0.4,2.1-0.1,2.8,0.8
		c0.1,0.1,0.2,0.3,0.3,0.5c0.7,1.8,0.8,3.7,0.2,5.5c-0.3,0.9-1,1.4-1.9,1.5c-1.1,0-2-0.3-2.7-1.2c-0.1-0.2-0.1-0.4-0.1-0.7
		c0-0.8,0-1.6,0-2.4C212.4,154.6,212.4,154,212.4,153.4z M263.9,128.6c0-4.5-3.6-8.1-8.1-8.1c-4.5,0-8.2,3.7-8.1,8.1
		c0,4.5,3.6,8,8.1,8C260.3,136.6,263.8,133.1,263.9,128.6z M255.7,132.6c-2.2,0-3.9-1.8-3.9-4.1c0-2.3,1.7-4.2,3.9-4.2
		c2.2,0,3.9,1.8,3.9,4.1C259.7,130.9,258,132.7,255.7,132.6z M280.7,155c0-0.8,0-1.6,0-2.5c0-2.3-1.2-4-3.3-4.8
		c-2.9-1-5.8-0.6-8.5,0.8c-0.4,0.2-0.3,0.4-0.2,0.7c0.4,0.6,0.7,1.2,1,1.8c0.2,0.5,0.4,0.6,0.9,0.3c1.2-0.7,2.6-0.8,4-0.7
		c1.2,0.1,1.9,0.9,1.8,2.1c0,0.4-0.1,0.5-0.5,0.3c-1.4-0.5-2.8-0.5-4.3-0.2c-2.6,0.5-4.3,2.2-4.4,4.4c-0.2,2.9,1.1,5,3.6,5.8
		c1.8,0.6,3.5,0.5,5.1-0.5c0.2-0.2,0.5-0.4,0.5,0.2c0,0.4,0.3,0.4,0.5,0.4c0.9,0,1.9,0,2.8,0c0.6,0,0.8-0.2,0.8-0.8
		c0-1.6,0-3.3,0-4.9C280.7,156.6,280.7,155.8,280.7,155z M275.4,159.5c-0.8,0.4-1.6,0.5-2.5,0.2c-0.9-0.3-1.5-1-1.4-2
		c0-1,0.6-1.6,1.6-1.8c0.7-0.1,1.5-0.1,2.2,0c1.2,0.2,1.3,0.4,1.3,1.6C276.8,158.6,276.2,159.1,275.4,159.5z M192.7,156.7
		c0.9,0,1,0,0.9-1c-0.1-1-0.1-2-0.3-3c-0.7-2.7-2.3-4.7-5.2-5.4c-3-0.7-5.5,0.3-7.4,2.8c-1.3,1.6-1.6,3.5-1.6,5.6
		c0.1,4.3,2.8,7.2,7,7.6c2.4,0.2,4.6-0.5,6.3-2.3c0.6-0.6,0.6-0.6-0.1-1c-0.6-0.5-1.3-0.9-1.8-1.4c-0.5-0.4-0.8-0.5-1.4,0
		c-1.7,1.5-4.6,0.9-5.6-1.1c-0.3-0.7-0.3-0.9,0.5-0.9c1.4,0,2.9,0,4.3,0C189.8,156.7,191.3,156.7,192.7,156.7z M183.9,153.5
		c-0.3,0-0.5,0-0.4-0.4c0.3-1.2,1.4-2.2,2.7-2.2c1.5,0,2.6,0.7,3,2c0.1,0.4,0.1,0.7-0.4,0.6c-0.8,0-1.6,0-2.5,0
		C185.6,153.5,184.7,153.5,183.9,153.5z M237.2,156.7c0.5,0,0.8-0.1,0.7-0.7c-0.1-1.1-0.1-2.3-0.4-3.4c-1.3-4.7-6.2-6.8-10.3-4.4
		c-2.7,1.6-3.8,4.1-3.8,7.1c-0.1,4.5,2.7,7.7,7,8.1c2.4,0.2,4.5-0.5,6.3-2.2c0.6-0.6,0.6-0.6-0.1-1.2c-0.5-0.4-1.1-0.8-1.6-1.2
		c-0.8-0.6-0.8-0.6-1.5,0c-1.9,1.5-4.9,0.7-5.6-1.4c-0.2-0.5,0-0.6,0.4-0.6c1.5,0,3,0,4.5,0C234.3,156.7,235.8,156.6,237.2,156.7z
		 M228.4,153.5c-0.6,0-0.6-0.2-0.4-0.6c0.4-1.2,1.5-2.1,2.9-2.1c1.4,0,2.5,0.8,2.9,2c0.1,0.4,0.1,0.7-0.4,0.6c-0.8,0-1.6,0-2.5,0
		C230,153.5,229.2,153.5,228.4,153.5z M214.2,129.9c0.5,0,0.7-0.2,0.7-0.7c-0.1-1.1-0.1-2.3-0.4-3.4c-1.3-5.1-7.1-7-11.2-3.8
		c-3.2,2.5-4,7.9-1.6,11.4c1.8,2.7,4.5,3.5,7.5,3.2c1.8-0.2,3.4-1,4.7-2.4c0.3-0.3,0.3-0.5-0.1-0.8c-0.7-0.5-1.4-1-2.1-1.5
		c-0.5-0.4-0.8-0.4-1.3,0c-1.8,1.6-4.8,0.9-5.6-1.3c-0.3-0.7-0.2-0.7,0.5-0.8c1.5,0,2.9,0,4.4,0
		C211.2,129.9,212.7,129.8,214.2,129.9z M205.2,126.8c-0.4,0-0.6-0.1-0.5-0.6c0.3-1.2,1.6-2.1,2.8-2.2c1.3,0,2.5,0.8,2.9,2
		c0.2,0.5,0.1,0.7-0.5,0.7c-0.8,0-1.6,0-2.4,0C206.8,126.7,206,126.7,205.2,126.8z M169.5,135.5c0,0.9,0,0.9,0.9,0.9
		c0.7,0,1.5,0,2.2,0c1.2,0,1,0,1-1c0-2.6,0-5.1,0-7.7c0-0.5,0.1-1,0.2-1.5c0.3-1.2,1-1.8,2.3-1.8c1.4,0,2.2,0.4,2.5,1.7
		c0.2,0.6,0.2,1.2,0.2,1.7c0,2.6,0,5.1,0,7.7c0,0.8,0,0.8,0.8,0.9c0.9,0,1.8,0,2.7,0c0.6,0,0.7-0.2,0.7-0.8c0-2.4,0-4.8,0-7.2
		c0-1,0-2.1-0.2-3.1c-0.7-4.3-4.9-6.3-8.7-4c-0.3,0.2-0.5,0.4-0.5-0.2c0-0.1-0.3-0.3-0.5-0.3c-0.9,0-1.9,0-2.8,0
		c-0.6,0-0.8,0.2-0.8,0.8c0,2.3,0,4.6,0,6.9C169.5,130.8,169.5,133.1,169.5,135.5z M264.8,148.3c0-0.6-0.2-0.8-0.7-0.7
		c-0.9,0-1.8,0.1-2.6,0c-0.6,0-0.8,0.2-0.8,0.8c0,2.5,0,5.1,0,7.6c0,0.6-0.1,1.1-0.2,1.7c-0.3,1.3-1.1,1.9-2.5,1.9
		c-1.3,0-2.1-0.6-2.4-1.9c-0.1-0.5-0.2-1.1-0.2-1.7c0-2.6,0-5.1,0-7.7c0-0.6-0.1-0.8-0.7-0.8c-0.9,0-1.8,0-2.6,0
		c-0.6,0-0.8,0.2-0.8,0.8c0,2.7,0,5.5,0,8.2c0,1,0.1,2,0.4,3c0.5,1.8,1.6,3.2,3.5,3.7c1.7,0.5,3.4,0.4,5-0.6
		c0.3-0.2,0.5-0.4,0.5,0.2c0,0.4,0.2,0.4,0.5,0.4c0.9,0,1.9,0,2.8,0c0.6,0,0.8-0.2,0.8-0.8c0-2.3,0-4.7,0-7
		C264.7,153,264.7,150.6,264.8,148.3z M226.5,136c1.4-0.5,2.5-1.3,3.1-2.7c1.1-2.3,0.1-4.8-2.2-5.8c-1.4-0.6-2.9-0.8-4.3-1.2
		c-0.5-0.1-0.9-0.2-1.3-0.4c-0.4-0.2-0.8-0.4-0.8-1c0-0.5,0.4-0.7,0.8-0.8c0.3-0.1,0.6-0.1,0.9-0.2c1.4-0.2,2.6,0.3,3.8,0.8
		c0.4,0.2,0.7,0.2,0.9-0.2c0.4-0.6,0.9-1.2,1.3-1.8c0.5-0.6,0.5-0.6-0.3-1c-0.7-0.4-1.5-0.7-2.3-1c-2.5-0.8-5-0.7-7.3,0.8
		c-1.5,0.9-2.2,2.3-2,4c0.1,1.8,1.1,3,2.7,3.6c1.3,0.5,2.7,0.7,4.1,1.1c0.6,0.1,1.2,0.3,1.7,0.5c0.7,0.4,0.8,1.2,0.1,1.6
		c-0.5,0.3-1,0.4-1.6,0.5c-1.6,0.2-3.1-0.4-4.6-1.1c-0.4-0.2-0.7-0.2-0.9,0.2c-0.4,0.7-0.9,1.3-1.4,1.9c-0.3,0.3-0.2,0.5,0.1,0.7
		c1.9,1.1,3.9,1.9,6.2,2C224.4,136.5,225.5,136.4,226.5,136z M246.2,133.7c0.3-0.3,0.3-0.5-0.1-0.8c-0.8-0.6-1.6-1.2-2.4-1.8
		c-0.4-0.3-0.6-0.2-0.8,0.1c-0.8,0.9-1.8,1.4-3,1.4c-1.8,0-3.4-1.3-3.7-3.1c-0.4-2,0.5-4,2.1-4.8c1.7-0.8,3.5-0.4,4.7,1.1
		c0.3,0.3,0.4,0.4,0.7,0.1c0.8-0.6,1.6-1.2,2.4-1.8c0.4-0.3,0.5-0.5,0.1-0.9c-2-2.3-4.5-3.3-7.4-2.9c-4.3,0.6-7.3,4.3-7,8.8
		c0.3,4,3.9,7.3,8.1,7.3C242.4,136.6,244.5,135.6,246.2,133.7z M186.6,120.8c-0.5,0-1.1,0-1.6,0c-0.5,0-0.7,0.1-0.5,0.6
		c1.7,4.8,3.5,9.6,5.2,14.3c0.2,0.5,0.4,0.6,0.8,0.6c1,0,2,0,3,0c0.5,0,0.7-0.2,0.8-0.6c0.4-1.2,0.9-2.4,1.3-3.7
		c1.3-3.5,2.6-7.1,3.8-10.6c0.2-0.7,0.2-0.7-0.5-0.7c-1,0-2,0-3,0c-0.6,0-0.8,0.2-1,0.7c-0.9,2.9-1.8,5.8-2.7,8.7
		c-0.1,0.2-0.1,0.4-0.2,0.6c-0.1-0.2-0.2-0.4-0.3-0.6c-0.8-2.4-1.5-4.8-2.3-7.2c-0.2-0.7-0.3-1.7-0.8-2
		C188.3,120.6,187.3,120.8,186.6,120.8C186.6,120.8,186.6,120.8,186.6,120.8z M241.7,162c0,1.2-0.1,1.1,1,1.1c0.6,0,1.3,0,1.9,0
		c1.3,0,1.1,0.2,1.2-1.1c0-3.3,0-6.5,0-9.8c0-0.6,0.2-0.8,0.7-0.7c0.6,0,1.4,0.2,1.8-0.2c0.3-0.3,0.1-1.2,0.1-1.8
		c0-0.6,0.2-1.5-0.2-1.8c-0.3-0.3-1.2-0.1-1.8-0.1c-0.6,0-0.7-0.2-0.7-0.7c0-1.6,0-3.2,0-4.8c0-0.4-0.1-0.5-0.5-0.3
		c-1.1,0.5-2.2,1.1-3.2,1.6c-0.3,0.2-0.4,0.4-0.4,0.7c0,0.9,0,1.8,0,2.6c0,0.8,0,0.8-0.9,0.8c-0.4,0-0.8,0-1.2,0
		c-0.4,0-0.5,0.1-0.5,0.5c0,1,0,1.9,0,2.9c0,0.4,0.2,0.5,0.5,0.5c0.5,0,1,0,1.5,0c0.5,0,0.6,0.2,0.6,0.6c0,1.7,0,3.5,0,5.2
		C241.7,158.8,241.7,160.4,241.7,162z M196.2,162.1c0,0.9,0,0.9,0.9,0.9c0.8,0,1.6,0,2.4,0c0.9,0,0.9,0,0.9-0.9c0-2.4,0-4.8,0-7.2
		c0-0.7,0.1-1.4,0.2-2.1c0.2-0.9,0.9-1.4,1.9-1.5c0.9-0.1,1.7,0.1,2.4,0.6c0.4,0.3,0.5,0.2,0.6-0.2c0.2-0.9,0.5-1.8,0.7-2.7
		c0.2-0.9,0.2-1-0.6-1.4c-1.6-0.8-3.2-0.7-4.8,0.3c-0.2,0.1-0.5,0.5-0.5-0.1c0-0.4-0.3-0.4-0.5-0.4c-0.9,0-1.9,0-2.8,0
		c-0.8,0-0.8,0-0.8,0.8c0,2.3,0,4.6,0,6.9C196.2,157.5,196.2,159.8,196.2,162.1z M288.1,142.3c0-0.8,0-0.8-0.7-0.4
		c-0.9,0.5-1.9,1-2.8,1.4c-0.5,0.2-0.6,0.5-0.6,1c0,3,0,5.9,0,8.9c0,3,0,6.1,0,9.1c0,0.6,0.2,0.8,0.8,0.8c0.8,0,1.6,0,2.5,0
		c0.9,0,0.9,0,0.9-0.9c0-3.3,0-6.5,0-9.8C288.1,149,288.2,145.6,288.1,142.3z M166,124.4c0-3,0-5.9,0-8.9c0-0.7,0-0.7-0.7-0.4
		c-0.9,0.5-1.8,1-2.8,1.4c-0.6,0.3-0.7,0.6-0.7,1.2c0,4.2,0,8.4,0,12.5c0,1.8,0,3.6,0,5.5c0,0.5,0.2,0.7,0.7,0.7c0.9,0,1.8,0,2.6,0
		c0.8,0,0.8,0,0.8-0.8c0-3.3,0-6.6,0-10C166,125.1,166,124.7,166,124.4z"/>
</g>
</svg>
