<?xml version="1.0" encoding="utf-8"?>
<!-- Generator: Adobe Illustrator 22.0.1, SVG Export Plug-In . SVG Version: 6.00 Build 0)  -->
<svg version="1.1" xmlns="http://www.w3.org/2000/svg" xmlns:xlink="http://www.w3.org/1999/xlink" x="0px" y="0px"
	 viewBox="0 0 450 220" style="enable-background:new 0 0 450 220;" xml:space="preserve">
<style type="text/css">
	.st0{display:none;}
	.st1{display:inline;fill:#6CD3CE;}
	.st2{opacity:0.19;}
	.st3{fill:none;stroke:#FFFFFF;stroke-width:2.2778;stroke-miterlimit:10;}
	.st4{fill:none;stroke:#FFFFFF;stroke-width:1.7633;stroke-miterlimit:10;}
	.st5{clip-path:url(#SVGID_2_);}
	.st6{fill:#FFFFFF;}
</style>
<g id="BG" class="st0">
	<rect class="st1" width="450" height="220"/>
</g>
<g id="Layer_2">
	<g id="eCG17T_1_">
		<g>
			<path class="st6" d="M177.6,92.3c9-3.4,18.1-6.8,27-10.1c0.3,0.2,0.4,0.3,0.4,0.3c0,0,0.1,0.1,0.1,0.2
				c0.2,19.1,0.3,38.2,0.5,57.3c0,0.6,0,1.2,0,2c-9.1,3.7-18.3,7-27.4,10.3C177.7,150.7,177.2,96,177.6,92.3z"/>
			<path class="st6" d="M269.8,91.3c-9.1,3.5-18.2,7-27.5,10.5c-0.1-20.2-0.3-40-0.4-60.1c9.1-3.4,18.2-6.9,27.3-10.3
				C269.6,32.9,270.1,86.8,269.8,91.3z"/>
			<path class="st6" d="M210.1,138.8c-0.1-19.5-0.3-39.1-0.4-58.7c9-11.8,18.1-23.6,27.1-35.5c0.1,0.1,0.2,0.1,0.3,0.2
				c0.1,19.6,0.3,39.2,0.4,59c-8.8,11.7-17.9,23.6-27,35.4C210.4,139,210.3,138.9,210.1,138.8z"/>
			<path class="st6" d="M218.7,187.6c-0.6-5.7-1.1-11.2-1.7-16.6c-0.1,0-0.2,0-0.4-0.1c-0.3,0.6-0.6,1.1-0.9,1.7
				c-2.1,4.3-4.2,8.6-6.3,12.9c-0.4,0.8-0.9,1.6-1.6,2.7c-0.7-0.9-1.2-1.5-1.5-2.2c-2.3-4.2-4.5-8.5-6.7-12.7
				c-0.3-0.6-0.6-1.2-1-1.8c-0.7,1.5-1.6,12.3-1.3,14.8c0.7,0.2,1.4,0.5,2.4,0.9c-0.6,0.3-0.9,0.6-1.2,0.7c-2.9,0.3-5.7,0.1-6.8-0.6
				c0.7-0.3,1.4-0.6,2.2-1c0.8-3.8,0.9-7.9,1.5-11.9c0.5-3.9,0.6-7.8,1.6-12.1c0.7,0.7,1.1,1,1.3,1.4c0.7,1.2,1.3,2.4,1.9,3.6
				c2.4,4.5,4.7,8.9,7.1,13.4c0.2,0.5,0.6,0.9,0.9,1.4c0.9-0.3,1-1.1,1.3-1.7c2.7-5.3,5.3-10.6,7.9-15.9c0.3-0.6,0.7-1.2,1.3-2.2
				c0.4,0.8,0.8,1.2,0.8,1.7c0.5,3.5,0.9,7.1,1.3,10.6c0.4,3.1,0.8,6.3,1.2,9.4c0.1,1,0.4,1.8,1.4,2.4c0.9,0.2,1.7,0.4,3,0.6
				c-1.4,1.4-2.8,0.7-4.1,0.8C221,187.8,219.7,188,218.7,187.6z"/>
			<path class="st6" d="M229.5,187.4c0.3-1.1,1.3-0.7,1.9-1.2c1-2.4,1.2-8.1,0.6-19.4c0-0.8-0.3-1.5-0.4-2.3c-1-0.2-1.8-0.4-3-0.7
				c0.6-0.4,0.9-0.8,1.2-0.8c3.6,0,7.1,0.1,10.7,0.2c0.1,0,0.3,0,0.4,0.1c4.8,1,6.3,5.5,3.1,9.2c-0.3,0.3-0.7,0.6-1.2,1
				c1.2,0.8,2.2,1.3,3.2,2c3.8,2.7,3.4,8.2-0.6,10.7c-1.5,0.9-3,1.5-4.7,1.6c-3.3,0.1-6.6,0.1-9.9,0.1
				C230.3,187.7,229.9,187.5,229.5,187.4z M236,185.2c2.1,1.1,4.1,1.1,6,0.5c2-0.6,2.9-2.3,2.6-4.4c-0.5-4-3.8-7.2-8.7-5.9
				C235.9,178.5,235.9,181.8,236,185.2z M235.8,173.1c3.2,0.6,4.7,0.3,5.6-1.3c0.9-1.5,0.6-4.3-0.5-5.7c-1.1-1.4-3-1.8-5.1-1.1
				C235.8,167.6,235.8,170.3,235.8,173.1z"/>
			<path class="st6" d="M276.8,163c0.5,3,0.3,5.3-0.4,6.4c-0.8-0.1-0.7-0.9-0.8-1.4c-0.4-1.7-1.4-2.7-3-3.2c-3.1-1-6.3-1-9.3,0
				c-3.4,1.1-5.3,3.6-5.5,7.2c-0.1,1.9-0.1,3.8,0.4,5.6c1.7,5.9,7.6,8.7,13.6,7.9c0.6-0.1,1.2-0.2,1.8-0.4c1.4-0.4,2.4-1.2,2.8-2.7
				c0.2-0.6,0.4-1.1,0.7-1.8c0.4,0.3,0.7,0.4,0.7,0.6c0.2,1.7-0.2,3.3-0.7,4.9c-1.3,1.2-2.9,1.2-4.4,1.4c-4,0.5-7.9,0.4-11.7-1.3
				c-5.4-2.5-7.6-7.6-7.2-12.5c0.5-5.9,4.4-10,10.1-11.1c2.9-0.6,5.9-0.6,8.8-0.2C274.1,162.7,275.4,162.8,276.8,163z"/>
			<path class="st6" d="M186.3,163.5c0,1.7,0.4,3.3-0.5,5.2c-0.4-0.8-0.7-1.3-0.9-1.7c-0.2-0.4-0.4-0.9-0.7-1.2
				c-1.2-1.2-5.3-1.8-7.1,0.1c-0.9,1-1.1,2.4-0.4,3.6c0.4,0.7,1,1.3,1.6,1.8c1.3,1,2.6,1.9,3.9,2.9c1.2,0.9,2.4,1.8,3.3,2.9
				c2.9,3.4,1.9,8.2-2,10.3c-3.2,1.7-8.1,1.6-11-0.3c0-1.6-0.4-3.4,0.6-5.3c0.4,0.5,0.6,0.7,0.7,1c0.1,0.4,0.1,0.8,0.2,1.2
				c0.6,2.1,2.5,2.5,4.3,2.7c2.2,0.3,4.3-0.8,5.1-2.3c0.7-1.5,0.4-3.4-1-4.8c-0.9-0.8-1.8-1.6-2.8-2.3c-1.1-0.8-2.2-1.5-3.2-2.4
				c-0.9-0.8-1.8-1.7-2.4-2.7c-1.9-3.3-0.7-6.8,2.8-8.4c2.1-0.9,4.3-1,6.6-0.7C184.3,163.1,185.2,163.4,186.3,163.5z"/>
		</g>
	</g>
</g>
</svg>
