<?xml version="1.0" encoding="utf-8"?>
<!-- Generator: Adobe Illustrator 22.0.1, SVG Export Plug-In . SVG Version: 6.00 Build 0)  -->
<svg version="1.1" xmlns="http://www.w3.org/2000/svg" xmlns:xlink="http://www.w3.org/1999/xlink" x="0px" y="0px"
	 viewBox="0 0 450 220" style="enable-background:new 0 0 450 220;" xml:space="preserve">
<style type="text/css">
	.st0{display:none;}
	.st1{display:inline;fill:#6CD3CE;}
	.st2{opacity:0.19;}
	.st3{fill:none;stroke:#FFFFFF;stroke-width:2.2778;stroke-miterlimit:10;}
	.st4{fill:none;stroke:#FFFFFF;stroke-width:1.7633;stroke-miterlimit:10;}
	.st5{clip-path:url(#SVGID_2_);}
	.st6{fill:#FFFFFF;}
</style>
<g id="BG" class="st0">
	<rect class="st1" width="450" height="220"/>
</g>
<g id="Layer_2">
	<g id="FA3f7Y_1_">
		<g>
			<path class="st6" d="M225,53.2c1,0.7,2.1,1.3,2.4,2.7c0.1,0.4,0.7,0.7,1.1,0.9c1.6,1,2,2.5,1.1,4.1c-0.6,0.9-0.7,1.9-0.4,3
				c1.6-1.4,2.4-3.6,4.7-4.2c-0.2-0.4-0.3-0.7-0.4-1c-0.6-1.2-0.3-2.2,0.6-3.1c0.8-0.8,1.8-1.2,2.9-0.7c0.8,0.4,1.6,0.7,2.4,1
				c0.6,0.3,1.1,0.4,1.7,0c1.4-0.8,2.8-0.6,4.1,0.2c1,0.5,1.9,0.9,3.1,0.5c0.9-0.3,1.9,0.4,2.4,1.3c0.4,0.6,0.8,1.1,1.2,1.7
				c0.8,1.1,1.6,2.2,2.4,3.3c0.4,0.6,0.3,1.2-0.2,1.8c-0.6,0.8-1.2,1.7-1.8,2.5c-0.4,0.6-0.2,1.2,0.5,1.3c0.7,0.1,1.5,0,2.4,0
				c-0.1,0.2-0.1,0.6-0.2,0.9c-0.4,0.6-1,1-1.7,1.1c-0.6,0.1-1.3,0-1.7,0.3c-0.4,0.2-0.5,0.8-0.9,1.2c-0.7,0.6-1.4,1.3-0.9,2.5
				c0.2,0.6,0.2,1.3,0.3,2c-0.3,0.1-0.7,0.1-1.1,0.2c0,0.8,0,1.6,0,2.4c0.8,0.1,1.5-0.4,2.1-0.6c1-0.4,1.9-0.7,3-0.7
				c1.6,0,2.8,0.7,3.5,2.1c0.3,0.7,0.6,1.2,1.5,1.1c0.2,0,0.5,0.1,0.6,0.3c0.5,1,1.4,1.7,1.7,2.9c0.2,0.7,0.5,1.4,0.5,2
				c0,1.1,0.5,1.9,1.2,2.7c1.7,2,2.7,4.5,2.8,7.1c0.1,2.7-0.5,5.4-2.2,7.6c-1.5,2.1-3.6,3.5-6.1,4.1c-7.1,1.9-13-3.2-14.2-9.1
				c-0.5-2.6,0.1-4.9,1.1-7.2c0.3-0.6,0.6-1.2,1-2.2c-0.9,0.5-1.3,1.1-1.7,1.6c-0.5,0.5-1,1.1-1.6,1.6c-0.6,0.4-0.8,0.3-1.5-0.3
				c-0.8,0.9-1.7,1.5-2.8,1.9c-1.5,0.5-2.1,1.8-2.5,3.2c-0.5,1.8-0.3,3.6-0.2,5.5c1.4,0.1,2.6,0.4,3.6,1.3c0.1,0.1,0.2,0.2,0.2,0.2
				c1.5-0.2,1.7,1,2.2,2c0.2,0.3,0.5,0.6,0.7,0.9c0.2,0.4,0.3,0.9,0.3,1.4c0,0.6-0.4,0.9-1,0.8c-0.3,0-0.6-0.1-0.9-0.2
				c-0.5-0.2-0.7-0.2-1.1,0.3c-0.7,0.9-1.2,1-2.1,0.4c-1.1-0.7-2.2-0.8-3.5-0.6c-2.1,0.4-3.3-0.3-4.1-2.7c-0.4-1.3-0.5-2.7-0.7-4.1
				c-0.1-0.4,0-0.8-0.1-1.1c-0.1-0.3-0.3-0.7-0.4-1c-0.3,0.2-0.6,0.3-0.9,0.5c-0.4,0.2-0.8,0.5-1.4,0.8c0.1-0.7,0-1.1,0.2-1.5
				c0.4-1.3,0.3-2.7,0.2-4c0-1.2-0.2-1.3-1.4-1.4c-1.7-0.2-3-1-4.1-2.3c-0.9-1-1.7-2.1-2.6-3.1c-0.4-0.5-0.9-0.9-1.4-1.4
				c-0.4,0.5-0.7,0.9-0.6,1.5c0.2,1.6-0.3,3-1.2,4.3c-0.3,0.5-0.7,0.9-1,1.4c-0.7,1-0.7,2.1-0.2,3.2c0.8,1.6,1.9,2.9,3.4,3.8
				c0.4,0.2,0.8,0.3,1.4,0.2c1.5-0.3,2.8,0.1,3.9,1.1c0.1,0.1,0.2,0.3,0.4,0.3c1.5,0.3,1.8,1.7,2.7,2.6c0.2,0.2,0.3,0.5,0.4,0.7
				c0.3,0.9-0.3,1.6-1.3,1.5c-0.2,0-0.4-0.2-0.6-0.2c-0.5-0.1-1,0-1.2,0.5c-0.4,0.9-1.1,0.7-1.8,0.5c-0.3-0.1-0.5-0.2-0.8-0.3
				c-1.1-0.6-2.4-0.9-3.6-0.6c-1.3,0.2-2.2-0.4-2.9-1.4c-0.5-0.7-1-1.4-1.5-2.2c-0.1,0.3-0.2,0.4-0.2,0.5c-0.1,0.4-0.3,0.6-0.6,0.2
				c-0.2-0.2-0.3-0.6-0.4-0.9c-0.9-1.6-2-2.9-3.7-3.8c-2.2-1.2-2.2-1.4-1.7-3.9c0,0,0-0.1-0.1-0.3c-0.4,0.4-0.8,0.9-1.2,1.3
				c-0.5-1.3,0.3-2.7-0.7-3.8c-1,1.1-2.4,1.2-3.7,1.6c-0.9,0.3-1.8,0.5-2.6,0.8c-1.3,0.6-2,1.6-2,3.1c0,0.5-0.1,1.1,0.1,1.6
				c0.1,0.5,0.3,1.1,0.6,1.4c0.4,0.4,1,0.6,1.6,0.2c1-0.7,1.9-0.4,2.7,0.5c1,1.1,2.1,2.1,2.6,3.5c0.1,0.2,0.2,0.4,0.3,0.6
				c0.2,1-0.2,1.5-1.2,1.3c-0.2,0-0.4-0.2-0.6-0.2c-0.4-0.2-0.6,0-0.9,0.4c-0.7,1-1.2,1.1-2.3,0.6c-0.3-0.1-0.5-0.3-0.8-0.5
				c-0.6-0.3-1.1-0.6-1.8-0.3c-0.5,0.2-1.1,0.1-1.6,0.1c-0.9,0.1-1.5-0.3-2-1.1c-0.7-1.2-1.4-2.4-2.1-3.6c-0.2,0-0.3,0-0.4,0
				c-1.2,0.3-1.5,0-1.3-1.2c0.2-1.3,0.5-2.5,0.5-3.8c0.1-1.9,0-3.8,0-5.7c0-1.7,0-1.7,1.6-2.3c1.3-0.5,2.6-0.9,3.2-2.4
				c-0.3-0.2-0.6-0.5-1-0.8c1.8-1.4,3.7-2.7,4.6-4.7c0.3-0.6,0.4-1.3,0.4-2.1c-0.3,0.2-0.6,0.5-0.9,0.7c-1.3,1.1-2.5,2.2-3.8,3.2
				c-2.3,1.7-4.7,1.8-7.3,0.6c-2.9-1.3-4.4-3.7-5.3-6.6c-0.6-2-0.5-3.9,0.2-5.9c0.6-1.5,1.1-3,1.8-4.5c0.1-0.3,0.4-0.5,0.6-0.7
				c1,0.2,0.8,1.2,1.2,1.6c1.2-0.7,2.3-1.3,3.5-1.9c0.6-0.3,1.2-0.3,1.9,0c0.7,0.3,1.5,0.6,2.2,0.9c0.5,0.2,1.1,0.5,1.6,0.8
				c0.4-0.4,0.3-0.8,0.2-1.2c-0.2-0.9,0.3-1.5,1.2-1.3c1.5,0.3,2.6,1.8,2.3,3.3c-0.5,3.2-3.6,5.3-6.8,4.6c-0.7-0.2-1.5-0.4-2.2-0.6
				c-1.7-0.4-3.3,0.7-3.5,2.4c-0.2,1.6,0.2,2.9,1.5,3.9c1.5,1,3,1.1,4.6,0.3c0.8-0.4,1.6-1,2.2-1.6c1.3-1.3,2.4-2.6,3.6-3.9
				c1.3-1.4,2.6-2.8,4.5-3.4c0.7-0.2,1.5-0.4,2.4-0.6c-0.2-0.1-0.4-0.2-0.6-0.3c-1.4-0.2-2.6-0.6-3.1-2c-0.3-0.6-0.8-0.7-1.3-0.8
				c-1.3-0.2-2.1-0.9-2.6-2c-0.2-0.5-0.5-0.7-1-0.9c-1.6-0.6-2.8-1.6-4-2.7c-2.1-2.1-1.9-6.3,0.6-8.2c1.4-1.1,4.4-1,5.2,1.2
				c0.4,1.1,0.1,2-1,2.5c-0.9,0.4-1,0.8-0.4,1.4c0.6,0.7,1.3,1.1,2.3,1.1c1.1,0,2.2,0,3.3-0.1c0.2,0,0.4-0.3,0.6-0.5
				c-0.1-0.2-0.2-0.4-0.4-0.5c-0.8-0.4-1.6-0.8-1.7-1.8c0.2,0,0.3-0.1,0.5-0.1c1.9,0.1,3.9,0.4,5.8,0.4c1.6,0,3.3,0,5-0.8
				c-0.7-0.8-1.7-1-2-2c0.8-0.4,1.5-0.3,2.2-0.2c1.4,0.2,2.7,0.1,4,0c2.3-0.1,4.4-1,6.5-1.8C222.2,53.2,223.6,53.2,225,53.2z
				 M217.2,57.2L217.2,57.2c-0.4,1.1-1.4,0.5-2.1,0.9c-1.5-0.4-2.8,0-4.2,0.5c-2.4,0.8-5,1-7.5,0.4c-0.3-0.1-0.7,0-1,0
				c0.4,0.4,0.8,0.7,1.2,0.8c1.1,0.3,2.2,0.5,3.3,0.7c0.4,0.1,0.9,0,1.1,0.6c-1.1,0.1-2.2,0.2-3.2-0.1c-0.7-0.2-1.4-0.2-2.1,0.1
				c-1.7,0.7-3.6,0.8-5.4,0.7c-1-0.1-2-0.3-2.9-0.8c-1.3-0.7-1.8-2.2-1.2-3.4c0.2-0.4,0.4-0.8,1-0.4c0.2,0.1,0.6,0.1,0.7,0
				c0.4-0.4,0.2-1.7-0.4-2c-1.1-0.6-2.8-0.1-3.5,1.1c-1.3,2.2-0.8,4.6,0.8,6.1c1.9,1.7,4.1,2.5,6.7,2.6c1,0,2,0.2,3,0.3
				c-1.5,0.4-3.1,0.2-4.7,0.8c2.3,2.1,5.1,1.6,7.7,1.9c-0.9,0.2-1.8,0.4-2.8,0.5c-0.2,0-0.6,0.2-0.6,0.3c0,0.3,0.2,0.7,0.4,0.8
				c0.9,0.3,1.8,0.7,2.8,0.8c1.3,0.1,2.6,0,3.9,0c0.5,0,1.1,0,1.9,0c-1.1,0.7-2.1,0.7-3,0.7c-0.6,0-1.2,0.1-1.7,0.3
				c-0.4,0.1-0.4,0.6-0.1,0.8c0.7,0.6,1.5,0.9,2.4,0.8c1.5,0,2.9-0.1,4.4-0.1c0.5,0,0.9,0,1.4,0.1c-0.9,0.3-1.8,0.5-2.7,0.7
				c-0.3,0.1-0.5,0.4-0.8,0.7c0.2,0.2,0.4,0.5,0.6,0.7c0.5,0.2,1.1,0.4,1.7,0.5c0.5,0.1,1.1,0.1,1.6,0c0.8-0.1,1.6-0.4,2.4-0.6
				c-0.2,0.3-0.5,0.5-0.8,0.8c-0.5,0.4-0.5,1,0.1,1.3c0.4,0.2,0.9,0.4,1.4,0.4c1,0.1,2,0,3-0.5c0.4-0.2,0.9-0.3,1.3-0.5l0.1,0.1
				c-0.3,0.4-0.6,0.7-0.9,1.1c1,0.8,1.3,1,2.5,0.7c2.9-0.7,5.6-1.8,7-4.7c-0.9-0.2-1.8-0.3-2.6-0.4c-1.1-0.1-2.2-0.1-3.1,0.7
				c-0.1,0.1-0.3,0.1-0.7,0.3c0.1-1.3,0.3-2.3,1.2-3.2c0.9-0.8,1.8-1.7,2.7-2.6c0.2-0.2,0.4-0.6,0.6-0.9c-0.7-0.3-1.3-0.6-2.1-1
				c0.7-0.2,1.1-0.4,1.5-0.5c0.7-0.1,0.7-0.6,0.6-1.1c0-0.3-0.2-0.5-0.3-0.8c-0.3-1-0.3-1.9,0.3-2.7c0.3-0.5,0.5-1.1,0.7-1.6
				c0.3-0.8,0-1.3-0.7-1.8c-0.3-0.2-0.7-0.5-1-0.4c-1.1,0.1-1.4-0.6-1.6-1.5c-0.3-1.1-1.1-1.6-2.3-1.6c-1.7,0-3.2,0.5-4.7,0.9
				c-1.8,0.5-3.6,0.9-5.4,0.8c-0.6,0-1.2,0-1.8,0c0.3,0.3,0.7,0.5,1,0.6C213.8,57.4,215.5,57.2,217.2,57.2z M227.6,98.8
				c0.3-0.3,0.5-0.6,0.8-0.9c0.7,0.5,0.9,1.1,1.2,1.8c0.4,1.2,0.3,2.5,0.4,3.7c0,1.4,0.4,2.8,1.4,3.9c0.4,0.4,0.8,0.8,1.5,0.5
				c0.3-0.2,0.9-0.2,1.2,0c0.8,0.3,1.4,0.1,2-0.3c0.6-0.5,1.1-0.6,1.8-0.2c1.2,0.6,1.5,0.3,1.6-1c0-0.4,0-0.7-0.1-1.2
				c-0.3,0-0.6-0.1-0.9,0c-0.6,0.3-0.9,0-1.2-0.4c-0.7-0.9-1.5-1.2-2.6-0.7c-0.5,0.2-0.8,0-1-0.5c-0.1-0.4-0.2-0.8-0.2-1.3
				c0.1-1.5,0.1-2.9,0.3-4.4c0.3-2.6,1.5-4.6,4-5.6c1.3-0.6,2.5-1.3,3.2-2.6c0.1-0.1,0.2-0.2,0.4-0.3c0.2,0.5,0.4,1,0.5,1.4
				c1-1.4,2.1-2.7,3.1-4.1c0.9-1.2,1.5-2.5,1.3-4.1c-0.7,0.5-1.4,1-2.2,1.7c-0.1-2,0.4-3.9-1.3-5.2c-0.2,0.3-0.5,0.5-0.7,0.8
				c-0.7,1.2-1.8,2-2.9,2.8c-0.8,0.5-1.7,1.2-2.8,0.7c0.6-1.8-0.3-3.4-0.6-5.1c-0.7,0.3-1.3,0.5-1.9,0.8c-1.7,0.7-3.4,1-5.2,1
				c-0.4,0-0.9,0-1.1-0.5c0.4-0.6,1.2-1.1,1.1-2c-1.5,0.6-3,1.2-4.5,1.8c-1.4,0.5-2.8,0.6-4.1,0c-0.9-0.4-1.7-0.6-2.6-0.2
				c-0.2,0.1-0.5,0-0.8,0c-1.2-0.2-2.3-0.6-3.1-1.6c-0.2-0.3-0.4-0.6-0.9-0.5c-1.7,0.5-3.1-0.4-4-1.4c-0.8-0.9-1.7-1-2.7-1.2
				c-0.6-0.1-1.3-0.2-1.6-0.6c-1-1-2.1-0.8-3.2-0.5c-0.7,0.2-1.4,0.5-1.9,0.9c-1.4,1.2-2.9,2.5-4.1,3.9c-1,1.3-2.3,2.3-3.5,3.3
				c-0.7,0.6-1.6,1-2.5,1.2c-2.1,0.4-3.9-0.4-5.3-2.1c-1.3-1.7-1.2-3.5-0.3-5.3c0.8-1.7,3-2.6,4.8-2c0.4,0.1,0.8,0.3,1.2,0.4
				c1,0.3,2.1,0.6,3.1,0.2c1.5-0.6,2.6-1.5,3.1-3.1c0.3-1.1-0.3-2.2-1.4-2.6c0.4,0.9,0.2,1.8-0.6,2.3c-0.7,0.5-1.6,0.3-2.3-0.3
				c-0.1-0.1-0.3-0.1-0.4-0.2c-1.1-1-2.5-1-3.8-0.9c-0.8,0-1.3,0.3-1.9,0.8c-1,1-1.6,2.1-2.1,3.4c-0.9-0.8-0.2-1.9-0.7-3
				c-0.4,1.1-0.9,2.1-1.2,3.1c-0.8,3.1-0.9,6,1.1,8.8c2,2.8,6,4.3,9.6,1.8c1.1-0.8,2.1-1.7,3.2-2.5c0.9-0.7,1.7-1.5,2.6-2.2
				c0.8-0.6,1.6-0.2,1.7,0.8c0.1,0.9,0.1,1.9-0.5,2.7c-0.6,0.8-1.2,1.7-1.8,2.5c-0.8,1-1.8,1.9-2.6,2.9c0.7,0.5,1.3-0.4,2-0.4
				c0,0.2,0,0.3,0,0.4c-1.5,1.6-2.9,3.2-5.1,3.9c-0.9,0.3-1.4,0.9-1.3,2c0.1,1.2,0,2.4,0.1,3.6c0,1.4,0.1,2.7-0.6,4
				c-0.2,0.3-0.2,0.7-0.3,1.1c0,0.1,0.1,0.1,0.2,0.3c0.3-0.4,0.6-0.7,0.9-1.1c0.6,0.5,0.5,1.2,0.5,1.9c0,0.4,0.1,0.8,0.3,1
				c0.7,0.6,1.1,1.4,1.5,2.3c0.3,0.9,1,1.1,1.9,1c0.5-0.1,1.1,0,1.6,0c0.4,0,0.8,0,1.1-0.1c0.5-0.3,0.9-0.8,1.5-0.9
				c0.5-0.1,1.1,0.2,1.6,0.4c0.9-1.1,0.9-1.1-0.3-1.8c-0.2-0.1-0.5-0.3-0.6-0.5c-0.1-0.8-0.6-0.8-1.2-0.8c-0.6,0-1.3,0-1.9,0.1
				c-0.6,0.1-1.1-0.1-1.4-0.5c-2.1-2.4-1.4-7.2,2.1-8.4c0.8-0.3,1.6-0.5,2.5-0.7c2.7-0.7,4.7-2.1,5.7-4.8c0.2-0.6,0.5-1.2,0.8-1.8
				c1-1.8,2.2-2.4,4.1-2.2c-1.6,0.7-1.6,0.7-1.9,1.4c0.6,0.1,1.3,0.1,1.9,0.2c0.2,0,0.5-0.1,0.7-0.2c2.3-1.5,4.6-1.2,6.9,0.2
				c0.8,0.5,1.5,1.2,2.2,1.9c0.8,0.7,1.4,1.5,2.2,2.1c0.7,0.5,1.5,1,2.4,1.3c0.9,0.3,1.3-0.1,1.3-1c0-0.6-0.1-1.2,0.1-1.8
				c0.1-0.5,0.3-1.1,0.7-1.4c1.2-1,2.5-1.8,3.4-3.2c0.1,0.3,0.1,0.6,0,0.8c-0.4,0.7-0.9,1.3-1.4,1.9c-0.5,0.7-1.3,1.3-1.3,2.2
				c0,1.1-0.1,2.3,0.1,3.4c0.2,1.1,0.3,2.1,0.3,3.2C227.6,97.5,227.6,98.2,227.6,98.8c-0.1,0.1-0.2,0.2-0.2,0.3
				c0.1,0,0.1,0.1,0.2,0.1C227.5,99.2,227.5,99,227.6,98.8z M258.7,86.2c-0.2,0.4-0.3,0.6-0.5,0.9c-0.6,1-0.8,1.1-1.7,0.3
				c-0.7-0.6-1.4-1.2-2.1-1.8c-0.3-0.2-0.5-0.2-0.9-0.2c-2.2,0-3.9,1-5.5,2.4c-3.2,2.7-4.2,6.3-3.6,10.3c0.5,3,1.7,5.4,4.3,7.1
				c3,2,6.2,2.4,9.6,1.2c3.3-1.2,6.7-5.8,6.4-9.6c-0.1-1.2-0.1-2.4-0.4-3.5c-0.4-1.6-1.1-3.2-2.2-4.5c-0.3-0.3-0.6-0.7-1.1-0.3
				c-0.1,0.1-0.4-0.1-0.6-0.3C259.8,87.7,259.3,87,258.7,86.2z M248.1,74.5c0.1-1.5,0.1-1.5,1.3-3c0,0,0.1-0.1,0.1-0.1
				c0.3-0.4,0.4-0.8,0-1.2c-0.6-0.6-1.2-1.2-1.9-1.8c-0.3-0.3-0.6-0.5-0.8-0.8c-0.4-0.5-0.3-1.6,0.1-2.1c0.4-0.5,1-0.5,1.8-0.2
				c0.4,0.2,0.8,0.4,1.2,0.6c0.3,0.1,0.7,0.2,1.1,0.2c0.9,0,1.1-0.5,0.7-1.3c-0.1-0.2-0.3-0.3-0.4-0.5c0-0.1,0-0.2,0.1-0.3
				c0.1-0.1,0.2-0.1,0.3-0.1c0.2,0.1,0.3,0.3,0.5,0.4c0.4,0.3,0.9,0.1,0.9-0.4c0-0.3-0.1-0.6-0.3-0.9c-0.8-1.1-1.5-2.4-2.8-3
				c-0.3-0.1-0.5-0.5-0.6-0.7c-0.3-1-1.1-1.3-2-1.2c-1.1,0.1-2.2,0-3.1-0.7c-0.9-0.7-1.8-0.8-2.8-0.2c-0.6,0.4-1.3,0.4-2,0.1
				c-0.8-0.4-1.7-0.7-2.5-1.1c-0.9-0.4-2.1-0.1-2.5,0.8c-0.5,0.9-0.1,2.1,1,2.5c0.5,0.2,1.2,0.2,1.9,0.2c-0.5,0.9-1.2,1.2-2,0.9
				c-0.9-0.3-1.4,0.1-2.1,0.4c-0.8,0.5-1.2,1.2-1.7,1.9c-0.6,0.8-1.2,1.6-1.8,2.5c-0.2,0.3-0.5,0.5-0.9,0.9c2.9,0.8,5-0.6,7.3-2.3
				c-1.1,2.4-1.7,4.4-1.3,6.6c0.8-0.4,1.4-0.9,2.2-1.1c1.4-0.5,2.8-0.9,3.7-2.2c0-0.1,0.2,0,0.4-0.1c-0.2,1-0.4,2-0.5,3
				c-0.1,1-0.6,2.1,0.4,3.1c1.8-1.1,3.4-2.3,4.6-4.3C246.5,71,246.6,73,248.1,74.5z M239.7,69.5c-1.1,0.5-2.1,0.9-3.1,1.3
				c-1.1,0.5-1.1,1.9-2.1,2.7c-1.1-2.2-1.1-4.3-0.5-6.6c-1.2,0.2-2.3,0.5-3.3,0.6c-0.7,0.1-1.1,0.3-1.5,0.8
				c-0.9,0.9-1.8,1.7-2.7,2.5c-0.3,0.3-0.8,0.5-0.8,1c0.5,0.1,1,0.1,1.4,0.2c1.6,0.4,3.2,0.3,4.7-0.5c0.1,0,0.2,0.1,0.3,0.1
				c-0.6,2.3-1.3,4.6-1.9,7c3.1,0.1,5.2-1.5,7.2-3.8c-0.6,2.4,0.1,4.6,0.9,6.9c1.2-0.6,2.3-1.3,3-2.4c0.7-1.1,1.3-2.2,1.8-3.2
				c0.9,1.7,1.8,3.4,2.8,5.1c1.7-1.2,2.1-3.5,1.2-5.7c-0.6-1.3-1.1-2.6-1.7-3.9c-2,0.9-3.5,2.2-4.4,4.5
				C239.1,74,239.3,71.8,239.7,69.5z M222.6,107.6c0.2-0.6,0.4-1.3,0.5-1.9c0-0.2-0.2-0.8-0.4-0.8c-1-0.1-1.6-0.7-2.2-1.2
				c-0.2-0.2-0.5-0.2-0.8-0.2c-0.5,0-1,0-1.5,0c-1,0.1-1.9-0.3-2.7-0.9c-1-0.8-1.9-1.7-2.7-2.6c-1.4-1.7-1.3-4,0-5.8
				c0.5-0.6,0.9-1.2,1.2-1.9c0.7-1.3,0.7-2.7,0.3-4c-0.1-0.3-0.5-0.6-0.8-0.7c-0.7-0.1-1.3,0.1-1.7,0.6c-0.3,0.4-0.6,0.9-0.9,1.3
				c-1.6-1.5-3.1-1.4-4.3,0.4c-0.8,1.1-1.3,2.4-1.5,3.7c-0.1,0.4,0.1,0.8,0.2,1.2c0.3-0.2,0.6-0.3,1-0.5c0.1,0,0.2,0,0.4,0
				c-0.1,1,0.1,2-0.2,3c-0.3,0.8,0,1.5,0.7,2.1c1.4,1,2.6,2.2,3.9,3.3c0.2-0.1,0.5-0.4,0.5-0.3c0.4,0.4,0.8,0.9,1.1,1.4
				c0.7,1,1.3,2,2,2.9c0.6,0.8,1.3,1.2,2.4,0.9c0.3-0.1,0.6-0.1,0.9,0c0.4,0.1,0.7,0.1,1-0.2c0.7-0.8,1.5-0.7,2.3-0.3
				C221.8,107.2,222.2,107.4,222.6,107.6z M245.8,88.4c0.5-0.5,0.8-0.8,1.1-1.1c0.5-0.5,0.9-1.2,1.7-1.4c0.8-0.2,1.4-0.7,1.8-1.5
				c0.5-1.1,1.5-1.4,2.6-1.1c0.5,0.1,1,0.6,1.4,1c0.5,0.4,0.8,0.7,1.6,0.4c0.8-0.4,1.7-0.3,2.3,0.5c0.2,0.3,0.6,0.5,0.9,0.6
				c0.4,0.2,1-0.1,0.9-0.6c-0.1-0.6,0.2-1.5-0.6-1.9c-0.5-0.2-0.6-0.6-0.7-1c-0.1-0.6-0.4-0.8-1-0.8c-0.7,0-1.2-0.3-1.6-0.9
				c-1.2-2-2.3-2.4-4.6-1.7c-2.4,0.7-4,2.2-4.4,4.8c-0.2,1.2-0.4,2.6-1.4,3.5C245.8,87.5,245.8,87.9,245.8,88.4z M249.1,68.3
				c0.4-0.2,0.9-0.4,1-0.6c0.1-0.2-0.2-0.6-0.4-0.9c0,0-0.1-0.1-0.1-0.1c-0.7-0.5-1.4-0.7-1.6-0.4c-0.3,0.6,0.2,1,0.4,1.4
				C248.6,68,248.9,68.1,249.1,68.3z M253.1,69.9c0-0.1,0-0.2,0-0.3c-0.8-0.3-1.6-0.6-2.4-0.8c-0.2-0.1-0.7,0.1-0.8,0.3
				c-0.2,0.5,0.3,0.7,0.6,0.8C251.4,70.1,252.2,70,253.1,69.9z M238,109.5c0.1-0.9,0.2-1.5-0.4-1.8c-0.4-0.2-0.8-0.1-1.1,0.5
				C236.9,108.5,237.3,108.9,238,109.5z M251,85.1c0.7-0.1,1.2-0.2,1.7-0.3c0.2,0,0.3-0.3,0.4-0.4c-0.2-0.1-0.3-0.3-0.5-0.4
				C251.9,83.9,251.4,84.2,251,85.1z M199.5,108.2c-0.3-0.4-0.5-0.7-0.7-0.9c-0.2-0.1-0.8,0.6-0.6,0.9c0.1,0.2,0.4,0.5,0.7,0.6
				C198.9,108.8,199.2,108.5,199.5,108.2z M257.4,87c0-0.5,0.1-0.7,0.1-1c0-0.3,0-0.7-0.5-0.7c-0.1,0-0.3,0-0.3,0.1
				c-0.1,0.3-0.2,0.6-0.1,0.9C256.7,86.5,257,86.7,257.4,87z M241,108.6c0-0.5,0.1-0.8,0-1.1c-0.1-0.3-0.3-0.5-0.5-0.7
				c0,0-0.2,0.1-0.2,0.2c0,0.3-0.1,0.6,0,0.9C240.3,108.1,240.6,108.2,241,108.6z M220.7,107.1c-0.1,0.5-0.3,0.7-0.2,0.8
				c0.1,0.4,0.5,0.8,0.8,0.6c0.1-0.1,0.2-0.3,0.2-0.4C221.3,107.9,221.1,107.6,220.7,107.1z M201.6,106.7c-0.2,0.3-0.3,0.4-0.3,0.5
				c0,0.4,0.1,0.8,0.6,0.8c0.1,0,0.3-0.2,0.3-0.3C202,107.5,201.8,107.2,201.6,106.7z M224.1,106.2c-0.1,0.4-0.3,0.5-0.2,0.6
				c0.2,0.3,0.5,0.5,0.7,0.8c0.1-0.1,0.2-0.3,0.2-0.4C224.5,106.9,224.3,106.6,224.1,106.2z M260.8,87.1c0.1,0,0.1-0.1,0.2-0.1
				c-0.1-0.2-0.2-0.5-0.3-0.7c-0.1,0-0.2,0.1-0.2,0.1C260.6,86.7,260.7,86.9,260.8,87.1z M251.5,67.1c-0.2-0.1-0.3-0.2-0.4-0.3
				c-0.1,0.2-0.2,0.3-0.2,0.5c0,0.1,0.1,0.2,0.2,0.3C251.2,67.4,251.3,67.3,251.5,67.1z"/>
			<path class="st6" d="M341.6,135.2c-0.3,0.7-0.5,1.5-0.8,2.3c-0.4,0-0.7,0.1-1.1,0.1c-3.6,0-7.2,0.1-10.8,0.1
				c-0.4,0-0.8,0-1.1-0.1c-0.1,0-0.2-0.2-0.2-0.2c0-0.1,0-0.2,0.1-0.3c0,0,0.1-0.1,0.1-0.1c1.5-0.2,1.7-1.2,1.7-2.5
				c0-3.4,0-6.7-0.1-10.1c0-0.9,0-1.8-0.1-2.7c0-0.8-0.3-1.4-1.2-1.4c-0.1,0-0.3-0.1-0.4-0.2c-0.1-0.1-0.3-0.3-0.2-0.4
				c0.1-0.2,0.3-0.3,0.4-0.4c0.2-0.1,0.4,0,0.6,0c3.7,0,7.4-0.1,11.1-0.1c1.1,0,1.2,0,1.2,1.2c0,0.7,0.2,1.4-0.3,2.2
				c-0.3-0.5-0.5-0.8-0.7-1.2c-0.3-0.6-0.7-1-1.4-1c-2,0-4,0-6.1,0c0,2.4,0,4.7,0.1,7.2c1.8,0,3.6,0,5.4,0c0.4,0,0.7-0.2,0.9-0.6
				c0.1-0.2,0.1-0.5,0.3-0.8c0.1-0.1,0.4-0.3,0.5-0.2c0.2,0,0.4,0.3,0.4,0.4c0,1.2,0,2.5,0,3.7c0,0.1-0.3,0.3-0.4,0.4
				c-0.1,0-0.4-0.1-0.4-0.2c-0.4-1.7-1.8-1.4-3-1.4c-1,0-2.1,0-3.1,0c-0.5,0-0.7,0.2-0.6,0.8c0.1,1.6,0.1,3.2,0.1,4.9
				c0,1.4,0.2,1.7,1.6,1.7c1.1,0,2.3,0,3.4,0c1.4-0.1,2.7-0.3,3.2-1.9c0.1-0.4,0.4-0.8,1-0.7C341.6,134.3,341.6,134.8,341.6,135.2z"
				/>
			<path class="st6" d="M186.9,134.3c1.5-3.6,2.9-7.1,4.3-10.6c0.4-0.9,0.7-1.8,1-2.7c0.1-0.4,0.4-0.7,0.8-0.7c1.2,0,2.4,0,3.6,0
				c0.1,0,0.4,0.2,0.4,0.2c0,0.2-0.1,0.4-0.2,0.5c-0.2,0.1-0.4,0.2-0.6,0.2c-0.7,0.3-1.1,0.8-1,1.5c0.1,1.5,0.2,2.9,0.3,4.4
				c0,0.1,0,0.2,0,0.3c0.1,2,0.3,4.1,0.4,6.1c0.1,0.7,0.2,1.4,0.3,2.1c0.1,1.1,0.5,1.8,1.6,2.2c0.1,0,0.2,0.3,0.3,0.4
				c-0.2,0.1-0.3,0.3-0.5,0.3c-1.8,0-3.7,0-5.5,0c-0.1,0-0.3-0.2-0.4-0.4c0-0.1,0.1-0.3,0.2-0.4c1.5-0.4,1.5-1.5,1.4-2.7
				c-0.2-2.6-0.5-5.3-0.7-7.9c-0.1-1,0-1.9-0.3-2.9c-0.9,2.2-1.8,4.4-2.7,6.6c-0.8,2.1-1.7,4.2-2.5,6.3c-0.1,0.3-0.2,0.5-0.3,0.7
				c-0.2,0.2-0.4,0.6-0.6,0.6c-0.2,0-0.5-0.3-0.6-0.6c-0.5-1.1-0.9-2.3-1.4-3.4c-1.3-3.1-2.6-6.3-3.9-9.4c-0.1-0.1-0.1-0.2-0.3-0.6
				c-0.1,1-0.2,1.8-0.3,2.6c-0.2,2-0.4,4-0.6,6c0,0.5,0,1,0,1.5c-0.2,1.6,0.3,2.8,1.9,3.4c0.2,0.1,0.2,0.3,0.4,0.4
				c-0.2,0.1-0.3,0.2-0.5,0.3c-0.1,0.1-0.3,0-0.5,0c-3.3,0-6.6,0-9.9,0.1c-0.3,0-0.5,0-0.8-0.1c-0.1,0-0.2-0.2-0.2-0.3
				c0-0.1,0.1-0.2,0.1-0.2c0.2-0.1,0.5-0.1,0.8-0.3c0.5-0.3,0.7-0.7,0.5-1.4c-0.6-1.6-1.1-3.2-1.7-4.9c-1.7,0-3.3,0-4.9,0
				c-0.6,0-0.9,0.2-1,0.8c-0.3,1.1-0.7,2.3-1.1,3.4c-0.4,1.5-0.4,1.6,1,2.4c0.1,0.1,0.3,0.2,0.2,0.3c0,0.1-0.2,0.3-0.3,0.3
				c-1.5,0-3,0-4.5,0c-0.1,0-0.1-0.2-0.3-0.4c0.2-0.1,0.4-0.3,0.6-0.4c1.1-0.4,1.6-1.3,2-2.4c1.5-4.7,3.1-9.4,4.7-14.1
				c0.1-0.3,0.1-0.5,0.2-0.8c0.2-0.5,0.5-0.7,1-0.5c0.2,0.1,0.3,0.2,0.5,0.1c0.7-0.2,0.9,0.2,1.1,0.8c1.1,3.2,2.2,6.4,3.3,9.6
				c0.6,1.6,1.1,3.3,1.7,4.9c0.1,0.4,0.3,0.8,0.5,1.2c0.3,0.8,1,1.2,1.8,1.1c0.8-0.1,1.6-0.5,1.8-1.3c0.1-0.4,0.3-0.7,0.3-1.1
				c0.2-2.7,0.4-5.5,0.6-8.2c0.1-1.3,0.2-2.7,0.3-4c0.1-1.2-0.1-1.4-1.2-1.8c-0.2-0.1-0.5-0.1-0.8-0.3c-0.1-0.1-0.3-0.4-0.3-0.5
				c0-0.1,0.3-0.3,0.5-0.3c1.2,0,2.4,0,3.6,0c0.6,0,0.9,0.3,1.1,0.8c1.1,2.8,2.2,5.5,3.4,8.2C185.5,131,186.2,132.5,186.9,134.3z
				 M168.4,130c-0.8-2.4-1.6-4.6-2.4-7c-0.7,2.6-1.7,4.8-2.1,7C165.4,130,166.8,130,168.4,130z"/>
			<path class="st6" d="M213.8,123.4c-0.1-0.2-0.4-0.3-0.4-0.5c-0.2-1.1-0.9-1.5-2-1.4c-1.4,0-2.7,0-4.1,0c-0.5,0-1.1,0-1.8,0
				c0,2.3,0,4.8,0,7.2c1.6,0,3.1-0.1,4.5,0c1.1,0,1.9-0.1,2.2-1.3c0-0.1,0.3-0.2,0.5-0.3c0.1,0.1,0.2,0.3,0.2,0.4c0,1.2,0,2.5,0,3.7
				c0,0.1-0.1,0.3-0.3,0.3c-0.1,0-0.3,0-0.4-0.1c-0.1-0.1-0.2-0.3-0.3-0.4c-0.2-0.9-0.8-1-1.6-1c-1.6,0-3.1,0-4.8,0
				c0,0.4-0.1,0.7-0.1,1.1c0,1.6,0,3.3,0,4.9c0,1.2,0.2,1.4,1.4,1.4c1.3,0,2.6,0,3.9,0c1.3-0.1,2.3-0.5,2.9-1.8
				c0.1-0.2,0.2-0.5,0.4-0.7c0.1-0.1,0.4-0.1,0.6-0.1c0.1,0,0.2,0.3,0.2,0.4c-0.2,0.9-0.4,1.9-0.7,2.8c0,0.2-0.4,0.3-0.6,0.3
				c-0.5,0.1-1.1,0-1.6,0c-3.1,0-6.3,0-9.4,0.1c-0.4,0-0.8,0-1.1,0c-0.2,0-0.3-0.2-0.4-0.4c0.1-0.1,0.2-0.3,0.3-0.3
				c1.4-0.3,1.6-1.3,1.6-2.4c0-4-0.1-8-0.1-12c0-0.1,0-0.1,0-0.2c-0.1-1-0.2-2-1.6-2c-0.1,0-0.4-0.3-0.4-0.4
				c0.1-0.2,0.3-0.4,0.5-0.5c0.2-0.1,0.4,0,0.6,0c3.6,0,7.2-0.1,10.7-0.1c1.4,0,1.5,0.1,1.5,1.5
				C214.3,122.2,214.6,122.9,213.8,123.4z"/>
			<path class="st6" d="M265,129.6c0,2.1,0,3.9,0,5.8c0,1,0.4,1.8,1.5,2c0.2,0,0.3,0.2,0.4,0.4c-0.2,0.1-0.4,0.3-0.6,0.4
				c-0.9,0-1.7,0-2.6,0c-1,0-2.1,0-3.1,0c-0.1,0-0.3-0.2-0.4-0.4c0.1-0.1,0.2-0.3,0.3-0.3c1.8-0.3,1.8-1.7,1.8-3
				c0.1-1.9,0-3.8,0-5.7c0-1.4,0-2.8,0-4.2c0-0.7-0.2-1.5-0.2-2.2c0-1-0.3-1.6-1.4-1.6c-0.1,0-0.3-0.1-0.4-0.3
				c-0.1-0.1-0.1-0.2-0.1-0.3c0-0.1,0.1-0.3,0.3-0.3c0.2-0.1,0.4-0.1,0.6-0.1c2.2,0,4.5-0.1,6.7,0c1.6,0,3.2,0.5,4.5,1.5
				c1.5,1.2,2.2,2.8,1.8,4.6c-0.4,1.9-1.7,3.1-3.6,3.6C268.7,129.9,266.9,130.1,265,129.6z M264.9,120.8c0,2.1,0,3.9,0,5.8
				c0,2.4,0.1,2.5,2.5,2.2c0.8-0.1,1.6-0.4,2.3-0.7c1.3-0.8,1.5-2.1,1.5-3.5c0-1.9-1.6-3.9-3.8-3.8
				C266.6,120.8,265.9,120.8,264.9,120.8z"/>
			<path class="st6" d="M324.8,132.8c0.6,0.3,0.6,0.7,0.3,1.2c-0.6,1.1-1.5,2.1-2.5,2.8c-4.5,2.9-11,1.3-13.1-3.6
				c-1.8-4.1-1.1-8,1.7-11.3c1.6-1.8,3.7-2.8,6.1-2.9c1.6,0,3.2,0,4.8,0.5c0.6,0.2,1.1,0.2,1.7-0.3c0.4-0.3,0.8-0.1,0.9,0.4
				c0,0.1,0,0.2,0,0.3c0,1.3,0,2.7,0,4c0,0.3-0.2,0.5-0.4,0.8c-0.7-0.3-0.7-0.9-0.9-1.4c-0.9-2.3-2.5-3.4-5-3.4
				c-1.4,0-2.7,0.1-3.9,0.9c-1.5,1-2.4,2.5-2.7,4.3c-0.3,2.2-0.4,4.4,0.3,6.6c0.5,1.4,1.2,2.6,2.4,3.6c0.8,0.7,1.6,1.1,2.6,1.2
				c2.9,0.3,5.4-0.3,7-3C324.4,133.3,324.6,133.1,324.8,132.8z"/>
			<path class="st6" d="M304.8,137.8c-0.8,0-1.6,0-2.4,0c-0.3,0-0.5-0.2-0.8-0.3c0.2-0.1,0.4-0.3,0.6-0.4c0.1-0.1,0.2-0.1,0.3-0.1
				c0.6-0.2,0.8-0.7,0.6-1.2c-0.5-1.6-1.1-3.2-1.6-4.7c-0.1-0.4-0.4-0.4-0.8-0.4c-1.5,0-2.9,0-4.4,0c-0.5,0-0.7,0.2-0.8,0.6
				c-0.5,1.5-1,3-1.4,4.5c-0.2,0.7-0.1,0.9,1.1,1.5c0.1,0.1,0.2,0.3,0.3,0.4c-0.1,0.1-0.3,0.2-0.4,0.2c-1.4,0-2.7,0-4.1,0
				c-0.1,0-0.3-0.2-0.3-0.3c0-0.1,0.1-0.3,0.2-0.4c1.4-0.4,1.9-1.5,2.3-2.7c1.4-4.3,2.8-8.6,4.2-12.9c0.2-0.6,0.4-1.1,0.6-1.7
				c0.2-0.5,0.5-0.8,1-0.6c0.5,0.1,1.2-0.2,1.4,0.7c0.3,1.2,0.8,2.3,1.2,3.5c1.2,3.6,2.5,7.1,3.7,10.7c0.1,0.4,0.2,0.7,0.4,1.1
				c0.4,1,0.9,1.9,2.2,1.9c0.1,0,0.2,0.3,0.3,0.4c-0.1,0.1-0.2,0.2-0.4,0.2C306.9,137.8,305.9,137.8,304.8,137.8
				C304.8,137.8,304.8,137.8,304.8,137.8z M298.7,122.5c-1,2.1-1.8,4.2-2.3,6.5c1.6,0,3,0.1,4.5-0.1
				C300.1,126.7,299.4,124.6,298.7,122.5z"/>
			<path class="st6" d="M238.4,135.8c0-0.6,0-1.3,0-1.9c0-0.2,0.3-0.3,0.5-0.5c0.1,0.2,0.3,0.3,0.3,0.5c0.1,0.4,0.2,0.8,0.3,1.2
				c0.8,2.1,3.2,3.2,5.3,2.4c1.9-0.7,2.7-2.6,1.7-4.3c-0.4-0.7-1.1-1.4-1.8-1.9c-1.2-0.9-2.5-1.5-3.7-2.4c-1.7-1.2-2.7-2.8-2.6-4.9
				c0.1-2.4,1.6-4.2,4-4.5c1.4-0.2,2.7-0.1,4,0.4c0.4,0.1,0.7,0.3,1-0.2c0.2-0.3,0.5-0.2,0.6,0.1c0.5,1.3,0.3,2.5,0.1,3.8
				c0,0.1-0.3,0.3-0.5,0.3c-0.1,0-0.3-0.2-0.3-0.3c-0.1-1-0.7-1.8-1.4-2.5c-1.3-1.1-2.7-1-4.1-0.5c-1.6,0.6-1.9,2.7-0.7,4.1
				c0.5,0.6,1.2,1.1,1.8,1.6c1.2,0.8,2.4,1.4,3.5,2.3c1.2,0.9,2.3,1.9,2.6,3.6c0.4,2.1-0.5,4.4-2.4,5.6c-1.5,0.9-3.1,1.1-4.8,0.5
				c-0.5-0.2-0.9-0.4-1.4-0.5c-0.5-0.1-0.9-0.2-1.3,0.3c-0.3,0.4-0.8,0.2-0.9-0.3C238.3,137.2,238.3,136.5,238.4,135.8
				C238.3,135.8,238.4,135.8,238.4,135.8z"/>
			<path class="st6" d="M130,122.1c0,2.9,0,5.7,0.1,8.5c0,1.4,0,2.8,0,4.2c0,0.7,0.2,1.4,0.2,2.1c0.1,0.8,0.4,1.3,1.2,1.5
				c0.2,0,0.3,0.2,0.4,0.4c-0.2,0.1-0.4,0.3-0.6,0.3c-1,0-2.1,0-3.1,0c-0.8,0-1.6,0-2.4,0c-0.1,0-0.3-0.2-0.3-0.3
				c0-0.1,0.1-0.3,0.2-0.3c1.3-0.2,1.7-1,1.6-2.2c-0.1-4.6-0.1-9.1-0.1-13.7c0-0.1-0.1-0.2-0.1-0.5c-1.3-0.1-2.6-0.1-3.9,0.1
				c-0.7,0.1-1.3,0.5-1.6,1.2c-0.1,0.3-0.1,0.5-0.2,0.8c-0.1,0.1-0.4,0.3-0.5,0.2c-0.2,0-0.4-0.3-0.4-0.4c0-1.1,0-2.3,0-3.4
				c0-0.1,0.4-0.4,0.6-0.4c2.1,1,4.4,0.5,6.6,0.5c2.2,0.1,4.4,0,6.7-0.1c0.6,0,1.1-0.4,1.7-0.5c0.5-0.2,1,0,1,0.5
				c0.1,1.1,0.1,2.3,0.1,3.4c0,0.1-0.1,0.2-0.2,0.2c-0.1,0-0.3,0-0.4-0.1c-0.2-0.3-0.3-0.6-0.5-0.8c-0.4-0.8-1.1-1.2-1.9-1.2
				C132.7,122,131.4,122,130,122.1z"/>
			<path class="st6" d="M118.2,120.4c0,1.5,0,2.9,0,4.2c0,0.1-0.3,0.4-0.4,0.4c-0.2,0-0.4-0.1-0.5-0.3c-0.1-0.3-0.1-0.6-0.2-0.9
				c-0.6-1.5-1.7-2.4-3.4-2.3c-0.7,0-1.5,0-2,0.3c-1.5,0.7-1.8,2.7-0.7,4c0.5,0.6,1.2,1.1,1.8,1.6c1.2,0.8,2.4,1.4,3.5,2.3
				c1.2,0.9,2.2,1.9,2.6,3.4c0.5,1.8,0,3.2-1,4.5c-1.3,1.7-3.1,2.5-5.3,1.9c-0.5-0.1-0.9-0.2-1.4-0.3c-1.4-0.4-1.4-0.4-2.6,0.3
				c-0.1-0.2-0.2-0.4-0.2-0.6c0-1.3,0-2.6,0-3.9c0-0.2,0.2-0.5,0.3-0.7c0.1,0.2,0.3,0.3,0.4,0.5c0.1,0.2,0.1,0.4,0.1,0.6
				c0.5,2,2,3,3.8,3.2c2,0.2,3.5-0.8,3.8-2.9c0.1-1-0.4-1.9-1.2-2.6c-1-0.9-2.2-1.6-3.3-2.3c-0.8-0.6-1.7-1.2-2.5-1.8
				c-1.7-1.3-2.1-4.9-0.6-6.8c1.1-1.4,2.6-1.8,4.3-1.8c0.7,0,1.5,0.2,2.2,0.4C116.9,121.1,116.9,121.1,118.2,120.4z"/>
			<path class="st6" d="M227.7,119.7c0,1.5,0,2.8,0,4.1c0,0.2-0.2,0.4-0.3,0.4c-0.2,0-0.4-0.1-0.5-0.3c-0.1-0.3-0.1-0.6-0.2-0.9
				c-0.5-1.4-1.6-2.2-3.1-2.3c-0.3,0-0.7,0-1,0c-1.2,0-2.1,0.5-2.6,1.6c-0.4,1.1-0.1,2.2,0.7,3c1,0.9,2.1,1.7,3.3,2.3
				c1.2,0.7,2.3,1.6,3.3,2.6c2.7,2.7,1.2,7.4-2.4,8.5c-1.2,0.4-2.5,0.3-3.6-0.1c-1.1-0.4-2.1-0.8-3.2,0.3c-0.3-1.8-0.1-3.3-0.1-4.9
				c0-0.1,0.2-0.4,0.4-0.4c0.2,0,0.4,0.2,0.5,0.4c0.1,0.2,0.1,0.4,0.1,0.6c0.6,2.9,3.8,4.3,6.3,2.8c1.4-0.9,1.7-3,0.5-4.4
				c-0.9-1.1-2.1-1.9-3.3-2.6c-1.3-0.7-2.5-1.5-3.4-2.7c-1.9-2.6-1.3-6.6,2.2-7.7c1.3-0.4,2.7-0.4,4,0
				C226.5,120.3,226.5,120.3,227.7,119.7z"/>
			<path class="st6" d="M155.8,132.1c0,2.8,0,5.5,0.1,8.3c0,1.3-0.3,2.5-0.9,3.6c-1.5,2.4-4.9,2.7-6.6,0.6c-0.1-0.1,0-0.4-0.1-0.5
				c0.2,0,0.4-0.1,0.5,0c2.1,1,3.5,0.3,4-1.8c0.2-1,0.3-2,0.3-3c0-4.7,0-9.3-0.1-14c0-0.9-0.2-1.7-0.3-2.6c-0.1-0.5-0.4-1-1.1-1
				c-0.2,0-0.4-0.1-0.6-0.2c-0.1-0.1-0.2-0.3-0.2-0.4c0-0.1,0.2-0.3,0.3-0.3c0.4-0.1,0.9-0.1,1.3-0.1c1.5,0,3,0,4.6,0
				c0.2,0,0.4,0.3,0.6,0.4c-0.1,0.2-0.2,0.4-0.4,0.5c-1.4,0.2-1.5,1.3-1.5,2.4C155.7,126.6,155.7,129.4,155.8,132.1z"/>
			<path class="st6" d="M282.3,138c-1.8,0-3.6,0-5.4,0c-0.3,0-0.6,0-1-0.1c-0.1,0-0.1-0.2-0.1-0.2c0-0.1,0.1-0.3,0.1-0.3
				c1.8-0.3,1.8-1.7,1.8-3.1c-0.1-3.7-0.1-7.5-0.1-11.2c0-0.4,0-0.9,0-1.3c0-0.6-0.3-1-0.9-1.1c-0.3,0-0.6-0.2-0.9-0.4
				c-0.1,0,0-0.4,0.1-0.5c0.1-0.1,0.3-0.1,0.5-0.1c1.8,0,3.6,0,5.4,0c0.2,0,0.5,0.2,0.7,0.3c-0.1,0.2-0.2,0.6-0.4,0.6
				c-1.4,0.2-1.5,1.2-1.5,2.3c0,4.1,0.1,8.1,0.1,12.2c0,1.5,0.4,1.8,1.8,1.9c1.2,0,2.4,0,3.6,0c1.6,0,2.7-0.6,3.2-2.2
				c0.1-0.3,0-1.1,0.6-0.9c0.6,0.2,0.3,0.8,0.2,1.3c-0.1,0.7-0.4,1.3-0.6,2c-0.1,0.6-0.5,0.9-1.1,0.9
				C286.4,137.9,284.4,137.9,282.3,138z"/>
			<path class="st6" d="M196.1,154.1c1.1-0.4,2.9-0.4,4.2-0.1c0,0.1,0,0.3-0.1,0.3c-0.9,0.4-1.2,1.2-1.1,2.1c0,2.4,0,4.8,0.1,7.2
				c0,1.3,0.2,1.6,1.6,2.4c-0.3,0.2-0.5,0.4-0.8,0.4c-0.5,0.1-1,0-1.5,0c-0.9,0.1-1.3-0.3-1.3-1.3c-1.2,0.9-2.4,1.5-3.8,1.4
				c-2.6-0.1-4.2-1.5-4.3-4.2c-0.1-1.6,0-3.1,0-4.7c0-0.4,0-0.8,0-1.1c0-1.6,0-1.6-1.3-2.4c0.9-0.4,2.8-0.5,4.5-0.2
				c-0.1,0.1-0.1,0.4-0.2,0.4c-0.8,0.1-1.1,0.7-1.1,1.4c0,2.4-0.1,4.8,0.1,7.2c0.2,2.3,2.2,3,4.1,2.4c1.6-0.5,2.1-1.2,2.1-3
				c0-2,0-3.9,0-5.9C197,155.1,197,155.1,196.1,154.1z"/>
			<path class="st6" d="M216.8,165.9c0-0.1,0-0.1,0.1-0.1c1.2-0.4,1.4-1.4,1.4-2.4c0-2.4,0-4.8,0-7.2c0-1-0.5-1.7-1.7-2.3
				c0.7-0.1,1-0.2,1.2-0.2c1.7,0,3.5,0,5.2,0c1.6,0,3,0.5,4.2,1.4c1.9,1.3,2.9,4.1,2.3,6.3c-0.7,2.7-2.5,4.3-5.1,4.7
				c-2.2,0.3-4.3,0.2-6.5,0.3C217.5,166.4,217,166.4,216.8,165.9z M220.1,154.3c0,3.5,0,6.7,0.1,9.9c0,0.1,0,0.2,0,0.3
				c0,0.6,0.3,0.9,0.9,0.9c0.9,0,1.9,0.1,2.8-0.1c1-0.2,1.8-0.6,2.4-1.5c1.3-1.8,1.3-3.8,0.7-5.9c-0.5-1.9-1.7-3.1-3.7-3.4
				C222.4,154.5,221.3,154.4,220.1,154.3z"/>
			<path class="st6" d="M274.5,165.5c0,0,0-0.1,0.1-0.1c1.4-0.8,1.4-0.8,1.4-2.3c0-2.3,0-4.6,0-6.8c0-1.1,0-2.1-1.4-2.3
				c-0.1,0-0.1-0.3-0.2-0.4c0-0.1,0.1-0.2,0.2-0.2c0.9,0,1.7-0.1,2.6,0c0.4,0.1,0.8,0.5,1.1,0.9c1.1,1.3,2.2,2.7,3.3,4
				c1.1,1.4,2.2,2.7,3.5,4.3c0-2.6,0-4.9-0.1-7.3c0-0.7-0.2-1.3-1.1-1.4c-0.1,0-0.2-0.2-0.3-0.5c1.2-0.3,2.3-0.2,3.4-0.1
				c0.1,0,0.2,0.2,0.2,0.2c0,0.1-0.1,0.4-0.2,0.4c-1.1,0.1-1,0.9-1,1.7c0,2.9,0.1,5.9,0.1,8.8c0,0.5,0.2,1.1-0.5,1.6
				c-2.8-3.4-5.6-6.8-8.6-10.5c0,3,0,5.7,0.1,8.4c0,0.7,0.2,1.2,1,1.2c0.2,0,0.4,0.2,0.6,0.3c-0.2,0.6-0.6,0.6-1,0.6
				C275.5,166.1,275.2,166,274.5,165.5z"/>
			<path class="st6" d="M204.5,156.1c0,2.9,0,5.7,0.1,8.4c0,0.5,0.2,0.9,0.8,1.1c0.2,0.1,0.5,0.2,0.8,0.3c-0.2,0.6-0.6,0.6-1,0.6
				c-2,0.1-2.3,0.1-3-0.5c1.5-1,1.5-1,1.5-2.9c0-2.1,0-4.2,0-6.3c0-1.1,0-2.1-1.4-2.3c-0.1,0-0.2-0.2-0.2-0.4c0-0.1,0.1-0.2,0.2-0.2
				c0.9,0,1.7-0.1,2.6,0c0.4,0,0.7,0.4,1,0.7c1.1,1.4,2.3,2.8,3.4,4.1c1.1,1.4,2.2,2.7,3.5,4.3c0-2.6,0-4.9-0.1-7.3
				c0-0.7-0.2-1.3-1-1.4c-0.1,0-0.2-0.2-0.3-0.4c1.2-0.4,2.3-0.2,3.4-0.2c0.1,0,0.2,0.1,0.2,0.2c0,0.1-0.1,0.4-0.2,0.4
				c-1.1,0.1-1.1,0.9-1,1.7c0,2.8,0,5.6,0.1,8.5c0,0.3,0.1,0.7,0,1c-0.1,0.3-0.2,0.6-0.4,0.8c-0.2-0.2-0.6-0.3-0.7-0.5
				c-2.5-3-5-6.1-7.5-9.2C205,156.4,204.8,156.3,204.5,156.1z"/>
			<path class="st6" d="M266.1,166.1c-3.2,0.3-6.7-2.2-6.7-6.5c0-3.8,2.7-6.4,6.6-6.6c4.2-0.2,6.8,3.4,6.9,6.5
				C272.9,162.6,269.7,166.6,266.1,166.1z M261.6,159.6c-0.1,1.4,0.3,2.7,1,3.9c1.6,2.6,5.2,2.5,6.6,0.5c1.8-2.4,1.8-5.6,0.4-8.1
				c-0.8-1.4-2.2-2.2-3.8-2.1c-1.6,0.1-2.9,0.9-3.6,2.4C261.8,157.3,261.5,158.4,261.6,159.6z"/>
			<path class="st6" d="M179.8,166.7c-3.9,0.2-6.7-2.7-6.8-6.5c-0.1-4,3.3-6.6,6.8-6.6c3.7-0.1,6.8,3.3,6.6,6.5
				C186.2,164,183.7,166.7,179.8,166.7z M179.7,166c1.3,0,2.4-0.4,3.1-1.4c1.7-2.4,1.9-5.6,0.4-8.2c-0.8-1.4-2.1-2.3-3.8-2.1
				c-1.6,0.2-3,1-3.6,2.6c-1,2.4-1,4.7,0.3,7C176.9,165.3,178.1,166,179.7,166z"/>
			<path class="st6" d="M242.2,165.7c-0.3,0.2-0.5,0.5-0.7,0.5c-1.2,0-2.4,0.1-3.6,0.1c-0.1,0-0.4-0.2-0.4-0.4
				c0-0.1,0.2-0.4,0.3-0.5c0.7-0.2,0.7-0.6,0.5-1.1c-0.3-0.8-0.6-1.6-0.8-2.4c-0.1-0.5-0.4-0.7-0.9-0.7c-3-0.2-3.1-0.2-3.9,2.6
				c-0.1,0.3-0.2,0.5-0.2,0.8c-0.1,0.4,0,0.7,0.4,0.9c0.2,0.1,0.3,0.4,0.4,0.6c-0.2,0.1-0.4,0.3-0.6,0.3c-0.8,0-1.5,0-2.3,0
				c-0.1,0-0.3-0.2-0.3-0.3c0-0.1,0-0.4,0.1-0.4c1.3-0.4,1.5-1.6,1.8-2.6c0.9-2.8,1.8-5.5,2.7-8.3c0.1-0.3,0.2-0.6,0.3-0.9
				c0.3-0.6,1.3-0.6,1.6,0c0.2,0.3,0.3,0.7,0.4,1.1c0.9,2.6,1.8,5.3,2.7,8C240.2,164,240.5,165.3,242.2,165.7z M233.9,160
				c1.1,0,1.9,0,2.9,0c-0.5-1.5-1-2.9-1.5-4.4C234.8,157.1,234.4,158.5,233.9,160z"/>
			<path class="st6" d="M162.5,154.2c3.1,0,5.8,0,8.7-0.1c0.3,0.8,0.2,1.5,0.1,2.4c-0.2-0.1-0.4-0.2-0.4-0.2c-0.2-1.2-1-1.4-2-1.3
				c-0.9,0.1-1.7,0-2.7,0c-0.1,1.5,0,3,0,4.5c1.1,0.1,2.1,0.2,3.1,0.2c0.3,0,0.6-0.3,0.8-0.5c0.2-0.3,0.4-0.6,0.7-1.2
				c0.6,1.4,0.3,2.6,0.3,3.7c-0.2,0-0.4,0.1-0.4,0c-0.5-1.1-1.3-1.3-2.4-1.2c-0.6,0.1-1.3,0-2,0c0,1.5,0,2.8,0,4.2
				c0,0.5,0.1,0.8,0.6,1c0.2,0.1,0.4,0.3,0.7,0.4c-0.4,0.7-1,0.6-1.5,0.5c-1.1-0.1-2.2,0.4-3.3-0.3c0.1-0.2,0.2-0.4,0.3-0.4
				c1-0.2,1.2-0.9,1.2-1.8c0-0.9,0-1.8,0-2.8c0-1.5,0-3,0-4.6C164,155.3,164,155.3,162.5,154.2z"/>
			<path class="st6" d="M248.9,165.8c-0.3,0.1-0.5,0.3-0.8,0.3c-1.1,0-2.2,0.1-3.3,0c-0.2,0-0.4-0.3-0.6-0.4
				c0.1-0.1,0.2-0.4,0.4-0.4c0.6-0.1,0.9-0.4,0.9-1c0-3.2,0-6.5-0.1-9.9c-0.7,0-1.3,0-1.9,0c-1.1-0.1-1.9,0.3-2.1,1.5
				c0,0.1-0.2,0.1-0.4,0.2c-0.4-1-0.2-2-0.2-3.2c1.7,0.8,3.3,0.5,5,0.5c0.9,0,1.8,0,2.8,0c1.1-0.1,2.2-0.2,3.4-0.3c0,0.8,0,1.8,0,3
				c-0.3-0.4-0.5-0.6-0.6-0.8c-0.4-0.6-1-0.9-1.8-0.9c-0.6,0-1.3,0-2,0c0,0.5-0.1,0.9-0.1,1.3c0,2.5,0,5,0.1,7.5
				C247.6,164.9,247.6,164.9,248.9,165.8z"/>
			<path class="st6" d="M253.2,153.6c1.5-0.3,2.9-0.3,4.5-0.2c-0.1,0.2-0.1,0.5-0.2,0.5c-0.8,0.2-1.1,0.7-1.1,1.4
				c0,2.8,0,5.6,0.1,8.5c0,0.7,0.3,1.2,1.1,1.4c0.1,0,0.2,0.3,0.2,0.4c0,0.1-0.2,0.4-0.2,0.4c-1.4,0-2.8,0.4-4.2-0.2
				c0,0-0.1-0.1-0.1-0.2c0.1-0.1,0.2-0.3,0.3-0.3c0.9-0.3,1-0.9,1-1.7c0-2.6,0-5.2-0.1-7.8C254.4,154.5,254.4,154.5,253.2,153.6z"/>
			<path class="st6" d="M233.5,118.3c1.1,0,2,0.8,2,2.2c0,2.2-1,4-3,5c0,0-0.1,0.1-0.2,0c-0.2-0.1-0.4-0.1-0.6-0.2
				c0.1-0.1,0.1-0.3,0.2-0.4c0.3-0.3,0.6-0.5,0.9-0.7c0.5-0.5,0.8-1.1,0.8-1.9c0-0.6,0-1.1-0.8-1.3c-0.8-0.2-1-0.7-0.9-1.5
				C232.1,118.8,232.6,118.4,233.5,118.3z"/>
			<path class="st6" d="M139.9,138.2c0,0.8-0.9,1.8-1.6,1.7c-0.8,0-1.8-1-1.7-1.8c0.1-0.8,0.9-1.5,1.8-1.4
				C139.3,136.6,139.9,137.3,139.9,138.2z"/>
			<path class="st6" d="M244,108.9c1.1-0.5,2.3-1.1,3.4-1.6c0.2-0.1,0.4-0.1,0.6,0c0.9,0.4,1.8,0.9,2.7,1.3c0.1,0.1,0.2,0.2,0.3,0.5
				c-2.2,0-4.3,0-6.4,0C244.4,109.1,244.2,108.9,244,108.9L244,108.9z"/>
			<path class="st6" d="M214.3,109c-2.5,0-4.7,0-7,0c0-0.1,0-0.1,0-0.2c0.7-0.1,1.5-0.3,2.2-0.4c0.8-0.1,1.8-0.1,2.5-0.4
				c0.8-0.3,1.3-0.1,1.8,0.5C213.9,108.6,214,108.7,214.3,109z"/>
			<path class="st6" d="M186.8,108.8c1.1-0.3,2.3-0.6,3.4-0.8c0.7-0.2,0.8-0.1,1.2,0.9C189.9,109.1,188.3,108.9,186.8,108.8z"/>
			<path class="st6" d="M229.6,108.9c-1.3,0-2.4,0-3.8,0c1-0.4,1.7-0.6,2.3-0.9C229,107.7,229,107.7,229.6,108.9z"/>
			<path class="st6" d="M244,108.8c0,0.1-0.1,0.1-0.1,0.2C243.9,109,243.9,108.9,244,108.8L244,108.8z"/>
			<path class="st6" d="M217.2,57.2c0.1-0.1,0.1-0.1,0.2-0.2C217.3,57.1,217.2,57.1,217.2,57.2L217.2,57.2z"/>
			<path class="st6" d="M221.2,76.4c0.1-0.1,0.1-0.2,0.2-0.2C221.3,76.2,221.3,76.3,221.2,76.4L221.2,76.4z"/>
			<path class="st6" d="M247.5,90c-0.2,0.6-0.4,1.2-0.7,1.8c-1.3,3.4-0.6,6.6,1.3,9.5c1.5,2.4,3.8,3.8,6.5,4.5
				c0.4,0.1,0.9,0.1,1.3,0.3c-3.6,0.2-6.5-1-8.6-4c-1.5-2.1-2.3-4.6-2-7.2C245.3,93,245.8,91.2,247.5,90L247.5,90z"/>
			<path class="st6" d="M247.4,89.9c0.1,0,0.2-0.1,0.3-0.1C247.6,89.8,247.5,89.9,247.4,89.9L247.4,89.9z"/>
			<path class="st6" d="M243.9,60c0.8-0.9,1.5-1.2,2.4-0.7c0.6,0.3,1.1,0.5,1.4-0.3c0-0.1,0.5-0.2,0.7-0.1c0.2,0.1,0.4,0.3,0.5,0.6
				c0.1,0.6-0.2,1.1-0.8,1.1c-0.3,0-0.5,0-0.8-0.1C246.2,60,245.2,59.6,243.9,60z"/>
			<path class="st6" d="M237.9,57.7c-0.5-0.2-1-0.4-1.4-0.6c-0.3,0.3-0.5,0.7-0.8,1c-0.1,0.1-0.5,0.1-0.7,0
				c-0.2-0.1-0.3-0.5-0.2-0.7c0.2-0.5,0.6-0.9,1.2-1c0.9-0.1,1.6,0.3,2.1,1C238,57.5,237.9,57.6,237.9,57.7z"/>
			<path class="st6" d="M246.1,60.9c0.7,0,1.2-0.1,1.6,0c0.2,0,0.5,0.3,0.5,0.4c0,0.2-0.2,0.5-0.4,0.6c-0.2,0.1-0.5,0.1-0.7,0
				C246.8,61.7,246.6,61.4,246.1,60.9z"/>
			<path class="st6" d="M245.5,61.3c0.5,0.4,1,0.9,1.5,1.3c0.1,0.1,0.1,0.3,0.1,0.4c0,0.1-0.2,0.1-0.3,0.1c-0.3-0.1-0.8-0.2-1-0.5
				c-0.3-0.3-0.4-0.8-0.6-1.2C245.3,61.4,245.4,61.3,245.5,61.3z"/>
		</g>
	</g>
</g>
</svg>
