<?xml version="1.0" encoding="utf-8"?>
<!-- Generator: Adobe Illustrator 22.0.1, SVG Export Plug-In . SVG Version: 6.00 Build 0)  -->
<svg version="1.1" xmlns="http://www.w3.org/2000/svg" xmlns:xlink="http://www.w3.org/1999/xlink" x="0px" y="0px"
	 viewBox="0 0 450 220" style="enable-background:new 0 0 450 220;" xml:space="preserve">
<style type="text/css">
	.st0{display:none;}
	.st1{display:inline;fill:#6CD3CE;}
	.st2{opacity:0.19;}
	.st3{fill:none;stroke:#FFFFFF;stroke-width:2.2778;stroke-miterlimit:10;}
	.st4{fill:none;stroke:#FFFFFF;stroke-width:1.7633;stroke-miterlimit:10;}
	.st5{clip-path:url(#SVGID_2_);}
	.st6{fill:#FFFFFF;}
</style>
<g id="BG" class="st0">
	<rect class="st1" width="450" height="220"/>
</g>
<g id="Layer_2">
	<g id="_x30_1tHNR_1_">
		<g>
			<path class="st6" d="M238.1,50.4c-1.4,16.1-2.9,32.2-4.3,48.4c-0.4,0.1-0.9,0.2-1.3,0.2c-10.3,1.3-20.4,3.4-30.2,6.9
				c-1.8,0.6-3.6,1.4-5.3,2.1c-0.2,0.1-0.4,0.2-0.7,0.3c0-0.2-0.1-0.3-0.1-0.5c0-0.4,0-0.9,0-1.3c-0.1-18.5-0.3-37-0.4-55.5
				c0-0.3,0-0.7,0-1c1.1-0.2,57.5-0.6,58.4-0.3c0,0.3,0.1,0.7,0.1,1c0.1,13.5,0.2,27,0.3,40.5c0,1.8,0,3.7,0,5.5
				c0,0.8,0,0.8-0.8,0.9c-2.9,0.1-5.7,0.2-8.6,0.3c-0.3,0-0.6,0.1-0.9,0.1c-0.3,0-0.7,0-1.1,0c-1.7-15.9-3.3-31.7-5-47.5
				C238.2,50.4,238.1,50.4,238.1,50.4z"/>
			<path class="st6" d="M185.9,147.1c-2.5,0-4.9,0-7.3,0.1c-0.1-0.3-0.2-0.5-0.3-0.8c-0.8-2-1.6-3.9-2.4-5.9
				c-0.2-0.6-0.3-0.6-0.9-0.6c-3.4,0-6.9,0.1-10.3,0.1c-0.5,0-0.7,0.2-0.9,0.6c-0.9,2.1-1.8,4.1-2.7,6.2c-0.2,0.5-0.5,0.6-1,0.6
				c-1.4,0-2.8,0-4.2,0c-0.2,0-0.4,0-0.7,0c0.1-0.3,0.2-0.6,0.3-0.8c3.3-7.4,6.5-14.9,9.8-22.3c0.1-0.2,0.1-0.3,0.2-0.5
				c0.4-1,0.1-1.6-0.8-2.1c-0.2-0.1-0.4-0.1-0.5-0.2c-0.6-0.2-0.6-0.2-0.5-1c0.2,0,0.3-0.1,0.5-0.1c3.5,0,7,0,10.6-0.1
				c0.6,0,0.7,0.3,0.9,0.7c2.5,6.4,5.1,12.7,7.6,19.1c0.8,2.1,1.6,4.1,2.5,6.2C185.7,146.5,185.8,146.8,185.9,147.1z M165.5,136.4
				c1.1,0.1,8.1,0,8.7-0.1c-1.4-3.4-2.7-6.8-4.1-10.1c-0.1,0-0.1,0-0.2,0C168.5,129.6,167,133,165.5,136.4z"/>
			<path class="st6" d="M270.6,120.5c0-0.3,0-0.5,0-0.8c0.2,0,0.4-0.1,0.6-0.1c3.5,0,6.9-0.1,10.4-0.1c0.7,0,0.7,0,0.9,0.6
				c3.4,8.5,6.7,16.9,10.1,25.4c0.1,0.2,0.1,0.4,0.3,0.8c-2.5,0-4.9,0-7.3,0.1c-1-2.5-2-4.9-2.9-7.3c-3.9,0-7.7,0.1-11.7,0.1
				c-0.1,0.2-0.2,0.5-0.4,0.7c-0.9,2-1.8,4-2.6,6c-0.2,0.5-0.4,0.7-1,0.7c-1.4,0-2.8,0-4.2,0c-0.2,0-0.4,0-0.6,0
				c-0.1-0.3,0.1-0.6,0.2-0.8c2-4.6,4-9.2,6-13.8c1.3-2.9,2.6-5.8,3.8-8.8c0.6-1.4,0.3-2-1.1-2.5
				C271.1,120.6,270.9,120.6,270.6,120.5z M277.3,125.5c-0.1,0-0.1,0-0.2,0c-1.5,3.4-3,6.8-4.5,10.2c0.8,0.2,8.1,0.1,8.7-0.1
				C280,132.2,278.6,128.8,277.3,125.5z"/>
			<path class="st6" d="M214.6,120.1c-0.1,0.3-0.2,0.6-0.3,0.8c-3.4,8.4-6.9,16.8-10.3,25.2c0,0,0,0,0,0.1c-0.4,0.9-0.2,0.8-1.2,0.8
				c-2,0-4,0-6,0c-0.7,0-0.7,0-1-0.7c-3-7.5-6.1-15-9.1-22.5c-0.6-1.4-1.5-2.4-3-2.7c-0.1,0-0.1-0.1-0.2-0.1c0-0.2,0-0.5,0-0.8
				c0.3,0,0.6,0,0.8,0c2.7,0,5.4,0,8.1-0.1c1,0,0.9-0.1,1.2,0.8c2.4,5.9,4.8,11.9,7.2,17.8c0.1,0.3,0.2,0.5,0.3,0.8
				c0.3-0.2,0.4-0.5,0.5-0.8c2.1-5.1,4.2-10.2,6.3-15.3c0.4-0.9,0.8-1.9,1.1-2.8c0.2-0.4,0.4-0.6,0.8-0.6c1.4,0,2.7,0,4.1,0
				C214.2,120,214.4,120.1,214.6,120.1z"/>
			<path class="st6" d="M263.6,119.8c-0.1,0.2-0.1,0.4-0.2,0.6c-3.5,8.5-6.9,17-10.4,25.5c-0.2,0.5-0.5,0.7-1,0.7
				c-2.1,0-4.1,0-6.2,0c-0.7,0-0.7,0-1-0.7c-2.8-6.9-5.6-13.7-8.3-20.6c-0.3-0.7-0.6-1.4-0.9-2.2c-0.4-1.2-1.3-2-2.5-2.3
				c-0.2,0-0.3-0.1-0.5-0.2c0-0.3,0-0.5,0-0.8c0.3,0,0.5,0,0.7,0c2.8,0,5.6,0,8.4-0.1c0.7,0,0.7,0,1,0.7c2.4,6,4.8,11.9,7.3,17.9
				c0.1,0.3,0.2,0.5,0.4,0.9c0.2-0.4,0.3-0.6,0.4-0.9c2.4-5.9,4.9-11.9,7.3-17.8c0.1-0.2,0.2-0.4,0.2-0.6c0.1-0.2,0.2-0.4,0.5-0.4
				c1.6,0,3.2,0,4.7,0C263.5,119.7,263.5,119.8,263.6,119.8z"/>
			<path class="st6" d="M221.3,146.7c0-0.3,0-0.6,0-0.9c-0.1-7.4-0.1-14.7-0.2-22.1c0-1.5-0.4-2-1.7-2.6c-0.3-0.1-0.6-0.2-0.9-0.3
				c0-0.3,0-0.5,0-0.8c3.2,0,6.4,0,9.7-0.1c0.1,8.9,0.1,17.8,0.2,26.7C227.9,146.9,222.2,146.9,221.3,146.7z"/>
			<path class="st6" d="M167.4,170.3c-1,0-1.9,0-2.9,0c0-0.3-0.1-0.6-0.1-0.8c0-3.9-0.1-7.9-0.1-11.8c0-0.9-0.3-1.5-1.2-1.7
				c-0.2-0.1-0.4-0.1-0.3-0.5c0.2,0,0.4-0.1,0.6-0.1c1.5,0,3,0,4.5,0c0.5,0,0.8,0.2,1.1,0.5c2.5,3.2,4.9,6.4,7.4,9.6
				c0.2,0.2,0.3,0.4,0.6,0.6c0-0.2,0-0.5,0-0.7c0-3,0-6.1-0.1-9.1c0-0.3,0-0.6,0-0.9c1,0,2,0,2.9,0c0,5,0.1,9.9,0.1,15
				c-0.3,0-0.5,0-0.7,0.1c-1.2,0-2.5,0-3.7,0c-0.5,0-0.8-0.1-1.1-0.5c-2.2-2.9-4.4-5.7-6.5-8.6c-0.2-0.2-0.3-0.4-0.5-0.6
				c0,0-0.1,0-0.1,0C167.3,163.8,167.3,167,167.4,170.3z"/>
			<path class="st6" d="M255.2,170.2c-1.6,0-3.2-0.2-4.7-1c-2.9-1.5-4.3-4-4.2-7.2c0.1-3.1,1.6-5.5,4.4-6.8c2.8-1.3,5.7-1.3,8.6-0.1
				c3,1.3,4.5,3.8,4.6,7.1c0,3.3-1.5,5.7-4.5,7.1C258.1,170,256.7,170.2,255.2,170.2z M255.1,156.6
				C255.1,156.6,255.1,156.7,255.1,156.6c-0.1,0-0.2,0-0.4,0c-2.2,0.1-3.5,1.2-4.1,3.3c-0.3,1.2-0.3,2.4-0.1,3.7
				c0.1,0.6,0.3,1.3,0.5,1.8c0.5,1.3,1.5,2,2.9,2.3c0.8,0.1,1.5,0.1,2.3,0c1.6-0.3,2.7-1.2,3.2-2.7c0.6-1.9,0.6-3.8,0-5.7
				c-0.5-1.7-1.8-2.5-3.5-2.7C255.6,156.7,255.4,156.7,255.1,156.6z"/>
			<path class="st6" d="M281.6,169.5c-0.3,0-0.7,0-1,0c-0.8,0-1.7,0-2.5,0c-0.7,0.1-1.1-0.2-1.5-0.7c-1-1.3-2-2.5-3.1-3.8
				c-0.5-0.5-1-1-1.5-1.5c-0.2-0.2-0.4-0.3-0.8-0.5c-0.1,2.2,0,4.3,0,6.5c-1.3,0-2.6,0-3.9,0c0-0.3,0-0.6,0-0.9
				c0-3.9-0.1-7.8-0.1-11.8c0-0.9-0.3-1.4-1.2-1.7c-0.2-0.1-0.5-0.2-0.3-0.5c0.2,0,0.3-0.1,0.5-0.1c2.9,0,5.8,0,8.6,0
				c1.1,0,2.2,0.2,3.2,0.6c2,0.9,2.6,2.6,2.4,4.3c-0.1,1-0.6,1.8-1.5,2.3c-0.6,0.3-1.3,0.6-1.9,0.8c-0.2,0.1-0.5,0.1-0.8,0.2
				c1.8,2.2,3.6,4.4,5.4,6.5C281.7,169.4,281.6,169.5,281.6,169.5z M271.2,161.7c0.7,0.1,1.4,0.1,2.1,0c0.7-0.1,1.4-0.2,2-0.6
				c0.9-0.6,1.3-1.6,1.1-2.7c-0.2-1-0.7-1.6-1.8-1.8c-0.6-0.1-1.2-0.2-1.8-0.2c-0.6,0-1.1-0.1-1.7,0.1
				C271.2,158.3,271.2,160,271.2,161.7z"/>
			<path class="st6" d="M193.6,170.2c-1.3,0-2.6,0-3.8,0c-0.4,0-0.5-0.3-0.6-0.6c-0.6-1.6-1.3-3.1-1.9-4.7c-1-2.5-2.1-5.1-3.1-7.6
				c-0.3-0.7-0.7-1.3-1.5-1.5c-0.3-0.1-0.4-0.2-0.3-0.6c1.8,0,3.6,0,5.5,0c1.4,3.5,2.9,7.1,4.4,10.7c0,0,0.1,0,0.1,0
				c0.1-0.2,0.2-0.5,0.3-0.7c1.3-3.1,2.6-6.2,3.8-9.4c0.2-0.6,0.5-0.8,1.1-0.7c0.7,0,1.4,0,2,0C199.6,155.7,194.2,169.1,193.6,170.2
				z"/>
			<path class="st6" d="M217,169.5c0-0.8,0-1.6,0-2.6c0.3,0.1,0.5,0.2,0.8,0.3c1.6,0.7,3.3,0.9,5.1,0.8c0.3,0,0.6-0.1,0.9-0.2
				c0.8-0.4,1.1-1.1,0.6-1.9c-0.4-0.5-0.8-1-1.3-1.3c-0.8-0.5-1.6-1-2.4-1.5c-0.8-0.5-1.6-1.1-2.3-1.8c-0.7-0.7-1.1-1.6-1.1-2.6
				c0-1.1,0.4-1.9,1.2-2.6c0.7-0.6,1.5-1,2.4-1.2c2.2-0.5,4.4-0.4,6.7,0.1c0.1,0,0.2,0.1,0.3,0.1c0.1,0,0.1,0.1,0.2,0.1
				c0,1,0,2,0,3.2c-0.2-0.1-0.4-0.1-0.5-0.2c-1.1-1.5-2.7-1.6-4.4-1.4c-0.5,0.1-1,0.3-1.4,0.5c-0.6,0.4-0.6,0.9-0.1,1.4
				c0.5,0.5,1.1,0.9,1.7,1.3c0.9,0.6,1.8,1.1,2.6,1.6c0.8,0.5,1.5,1.1,2.1,1.8c1.4,1.8,1.1,4.1-0.8,5.3c-0.9,0.6-1.8,0.9-2.8,1.1
				c-2.3,0.4-4.6,0.2-6.8-0.4C217.3,169.6,217.2,169.6,217,169.5z"/>
			<path class="st6" d="M294.7,154.8c0,1.1,0,2.1,0,3.1c-0.3,0.1-0.4,0.1-0.6-0.2c-0.5-0.8-1.3-1.1-2.2-1.3
				c-0.8-0.2-1.7-0.2-2.5,0.1c-0.4,0.1-0.8,0.3-1.2,0.6c-0.4,0.3-0.4,0.7-0.1,1.1c0.3,0.4,0.7,0.7,1.2,1c0.8,0.6,1.7,1.1,2.6,1.6
				c0.9,0.6,1.8,1.2,2.5,1.9c0.6,0.7,1.1,1.5,1.1,2.5c0,1.3-0.5,2.2-1.5,3c-0.8,0.6-1.7,0.9-2.6,1.1c-2.4,0.5-4.8,0.3-7.1-0.3
				c-0.1,0-0.2-0.1-0.4-0.1c-0.1-0.8-0.1-1.7,0-2.6c0.3,0.1,0.5,0.2,0.7,0.3c1.6,0.7,3.3,1,5.1,0.8c0.3,0,0.6-0.1,0.9-0.3
				c0.7-0.4,0.9-1,0.6-1.7c-0.3-0.6-0.8-1.1-1.4-1.4c-0.7-0.5-1.5-0.9-2.2-1.4c-0.7-0.5-1.4-0.9-2.1-1.5c-0.9-0.7-1.4-1.6-1.5-2.8
				c-0.1-1.4,0.5-2.4,1.6-3.1c1-0.7,2.1-1,3.3-1.1c1.7-0.2,3.5-0.1,5.2,0.3c0.1,0,0.3,0.1,0.4,0.1
				C294.6,154.7,294.6,154.7,294.7,154.8z"/>
			<path class="st6" d="M207.6,167.8c2.1,0,4.2,0,6.4,0c0,0.8,0,1.4,0,2.2c-3.5,0-6.9,0-10.3,0.1c0-0.3,0-0.6,0-0.9
				c0-3.9-0.1-7.7-0.1-11.6c0-1-0.3-1.6-1.2-1.9c-0.3-0.1-0.4-0.2-0.2-0.5c3.9,0,7.8-0.1,11.8-0.1c0.1,0.7,0.1,1.3,0,2.1
				c-2.1,0.1-4.2,0-6.4,0.1c-0.1,1.3-0.1,2.5,0,3.8c2,0,3.9,0,5.7,0c0.2,0.6,0.2,1.4,0.1,2.2c-1.9,0-3.8,0-5.8,0
				C207.6,164.7,207.6,166.2,207.6,167.8z"/>
			<path class="st6" d="M236,157c-1.9,0-3.6,0-5.4,0c-0.1-0.7-0.1-1.4-0.1-2.1c0.6-0.2,13.9-0.3,14.7-0.1c0,0.6,0,1.3,0,2
				c-0.6,0.2-1.2,0.1-1.7,0.1c-0.6,0-1.1,0-1.7,0c-0.6,0-1.2,0-1.8,0c0,0.3-0.1,0.6-0.1,0.9c0,3.7,0,7.4,0.1,11.1c0,0.3,0,0.6,0,0.9
				c-1.3,0.1-2.6,0.1-3.9,0C236.1,165.6,236,161.3,236,157z"/>
			<path class="st6" d="M159.9,170.4c-1.3,0-2.5,0-3.8,0c0-0.3-0.1-0.6-0.1-0.9c0-3.9-0.1-7.8-0.1-11.8c0-0.9-0.3-1.5-1.2-1.8
				c-0.2-0.1-0.4-0.2-0.3-0.5c0.5-0.2,4.6-0.2,5.3-0.1C159.9,156,160,169.5,159.9,170.4z"/>
		</g>
	</g>
</g>
</svg>
