<?xml version="1.0" encoding="utf-8"?>
<!-- Generator: Adobe Illustrator 22.0.1, SVG Export Plug-In . SVG Version: 6.00 Build 0)  -->
<svg version="1.1" xmlns="http://www.w3.org/2000/svg" xmlns:xlink="http://www.w3.org/1999/xlink" x="0px" y="0px"
	 viewBox="0 0 450 220" style="enable-background:new 0 0 450 220;" xml:space="preserve">
<style type="text/css">
	.st0{display:none;}
	.st1{display:inline;fill:#6CD3CE;}
	.st2{opacity:0.19;}
	.st3{fill:none;stroke:#FFFFFF;stroke-width:2.2778;stroke-miterlimit:10;}
	.st4{fill:none;stroke:#FFFFFF;stroke-width:1.7633;stroke-miterlimit:10;}
	.st5{clip-path:url(#SVGID_2_);}
	.st6{fill:#FFFFFF;}
</style>
<g id="BG" class="st0">
	<rect class="st1" width="450" height="220"/>
</g>
<g id="Layer_2">
	<g id="_x30_GKguO_1_">
		<g>
			<path class="st6" d="M211.7,110c0.1,5.1-1.4,9.6-4.7,13.4c-2.5,2.9-5.8,4.8-9.6,5.7c-7.1,1.6-13.5,0.2-18.8-5
				c-4.4-4.3-5.9-9.8-5.5-15.9c0.3-4.6,2-8.7,5.3-12c3.3-3.3,7.3-5.2,11.9-5.6c3.6-0.3,7.2,0.1,10.5,1.6c6.8,3.2,10.1,8.7,10.9,16
				C211.7,108.8,211.7,109.4,211.7,110z M201.4,109.2c-0.2-0.9-0.5-2.6-1.1-4.2c-1.3-3.1-3.8-4.8-7.2-5.1c-3.2-0.2-6,0.8-7.8,3.5
				c-2.5,3.8-2.6,7.9-0.8,11.9c2.6,6,10.3,6,13.7,2.8C200.5,115.9,201.3,113.2,201.4,109.2z"/>
			<path class="st6" d="M233.2,90.3c8.5-0.1,15.7,4.9,18.1,13.1c2.2,7.3,1.2,14.2-4.1,20.1c-4,4.5-9.3,6.2-15.2,6
				c-6.4-0.2-11.5-3-15.1-8.3c-4.9-7.2-4.4-17.7,1.2-24.3C222,92.3,227.1,90.2,233.2,90.3z M232.1,120c4.8-0.1,7.6-2,9.1-5.7
				c1.1-2.8,1.1-5.7,0.1-8.5c-1.2-3.6-3.6-5.7-7.5-6.1c-3.5-0.4-6.8,1.3-8.4,4.3c-1.9,3.5-2,7.2-0.4,10.8
				C226.5,118.2,229.2,120,232.1,120z"/>
			<path class="st6" d="M255.8,109.8c0-5.7-0.1-11.3-0.1-17c0-1.7,0-1.7,1.6-1.7c4.9,0,9.9-0.1,14.8,0c3.3,0.1,6.4,0.8,9.3,2.4
				c3.8,2.1,6.3,5.1,7.6,9.2c1.4,4.4,1.5,8.9,0.2,13.3c-2,6.4-6.6,10.1-13,11.5c-2,0.4-4,0.6-6.1,0.7c-4.3,0.1-8.7,0.1-13,0.2
				c-0.7,0-1.1-0.2-1.1-1c0-0.3,0-0.5,0-0.8C255.9,121,255.8,115.4,255.8,109.8C255.8,109.8,255.8,109.8,255.8,109.8z M265.8,109.6
				C265.8,109.6,265.8,109.6,265.8,109.6c0,2.9,0,5.8,0.1,8.7c0,1.1,0.1,1.2,1.1,1.2c1.2,0,2.5,0,3.7-0.1c2.5-0.2,4.7-1,6.5-2.9
				c2.4-2.6,2.8-5.7,2.3-8.9c-0.6-4.3-3-6.8-7.3-7.5c-1.7-0.3-3.6-0.2-5.3-0.2c-1.1,0-1.1,0.1-1.1,1.2
				C265.7,103.9,265.8,106.7,265.8,109.6z"/>
			<path class="st6" d="M127.5,107.7c0.9,0,1.5,0.1,2.2,0.1c2.9,0,5.9,0,8.8-0.1c1.2,0,1.3,0.1,1.3,1.3c0,1.9,0,3.7,0,5.6
				c0,1.2-0.1,1.3-1.3,1.3c-3.2,0-6.3,0.1-9.5,0.1c-1.6,0-1.6,0-1.6,1.6c0,3.3,0,6.6,0.1,10c0,1.5,0,1.5-1.5,1.5
				c-2.4,0-4.8,0-7.2,0.1c-1.3,0-1.4-0.1-1.4-1.4c0-4.6-0.1-9.3-0.1-13.9c0-6.7-0.1-13.4-0.1-20.1c0-1.9,0-1.9,1.9-1.9
				c6.7-0.1,13.5-0.1,20.2-0.2c0.9,0,1.8-0.1,2.7-0.1c0.8,0,1.2,0.2,1.2,1.1c0,2.2,0,4.4,0,6.6c0,1-0.1,1.1-1.2,1.1
				c-4.1,0-8.3,0.1-12.4,0.1c-2.6,0-2.3-0.2-2.3,2.2C127.5,104.5,127.5,106.1,127.5,107.7z"/>
			<path class="st6" d="M156.3,120.2c1.6,0,2.9,0,4.3,0c3.8,0,7.6-0.1,11.4-0.1c1.3,0,1.4,0,1.4,1.3c0,2.1,0.1,4.2,0.1,6.3
				c0,1.1-0.1,1.2-1.2,1.2c-8.3,0.1-16.5,0.1-24.8,0.2c-1.1,0-1.2-0.1-1.2-1.4c-0.1-8-0.1-16-0.2-24c0-3.5-0.1-6.9-0.1-10.4
				c0-1.4,0.1-1.4,1.4-1.5c2.3,0,4.7,0,7-0.1c1.5,0,1.5,0,1.5,1.6c0.1,8.4,0.1,16.8,0.2,25.2C156.2,119.1,156.2,119.6,156.3,120.2z"
				/>
			<path class="st6" d="M313.3,114.5c-0.6,0-1,0.1-1.4,0.1c-1.3,0-2.6,0-4,0.1c-1,0.1-1.6-0.3-2-1.2c-0.8-1.8-1.8-3.5-2.6-5.2
				c-0.8-1.7-1-1.8-3.1-1.3c0,0.4-0.1,0.9-0.1,1.3c0,1.7,0,3.5,0,5.2c0,1.1-0.1,1.2-1.2,1.2c-1.4,0-2.7,0-4.1,0c-0.7,0-1-0.3-1-1
				c0-0.5,0-0.9,0-1.4c0-6.6-0.1-13.1-0.1-19.7c0-1.6,0-1.6,1.5-1.6c2.8,0,5.5-0.1,8.3,0c0.9,0,1.8,0.1,2.7,0.3
				c3.3,0.7,5.5,3.3,5.7,6.6c0.2,2.8-0.6,5.2-2.8,7c-0.6,0.5-0.6,0.9-0.2,1.5c1.2,2.1,2.4,4.2,3.6,6.3
				C312.7,113.3,312.9,113.8,313.3,114.5z M300,98.9c0,0.5,0,0.9,0,1.4c0,1.3,0.1,1.3,1.3,1.3c0.5,0,1,0,1.5,0
				c1.8-0.1,2.8-1.1,2.8-2.7c0-1.7-1-2.8-2.8-2.8C299.4,96.2,300.1,95.8,300,98.9z"/>
			<path class="st6" d="M321.3,109c1.1,0,2,0,2.9,0c2.4,0,4.8,0,7.2-0.1c1.2,0,1.3,0.1,1.3,1.2c0,1,0,2,0,3.1c0,1.2-0.1,1.2-1.2,1.2
				c-4.5,0-9,0.1-13.5,0.1c-0.7,0-1.4,0-2,0c-0.6,0-1-0.3-0.9-0.9c0-0.3,0-0.7,0-1c-0.1-6.7-0.1-13.5-0.2-20.2c0-1.4,0-1.5,1.5-1.5
				c4.7,0,9.4-0.1,14.1-0.1c1.5,0,1.5,0,1.6,1.6c0,0.9,0,1.9,0,2.8c0,1-0.1,1.2-1.2,1.2c-2.5,0-5,0-7.5,0.1c-1.9,0-1.9,0-1.9,1.9
				c0,1.5,0,1.5,1.5,1.5c2,0,4,0,6,0c1.1,0,1.2,0.1,1.3,1.3c0,0.9,0,1.9,0,2.8c0,1-0.1,1.2-1.2,1.2c-1.9,0-3.8,0-5.7,0
				c-1.8,0-1.8-0.1-1.8,1.7C321.3,107.5,321.3,108.1,321.3,109z"/>
			<path class="st6" d="M332.4,118.4c0.1,0.5,0.2,0.8,0.2,1.1c0,1.7,0,3.3,0.1,5c0,0.7-0.2,1.1-0.9,1.3c-6,2.3-12.1,2.7-18.3,0.8
				c-6-1.8-11.9-1.7-17.8,0.5c-0.3,0.1-0.6,0.2-1,0.3c-0.1,0-0.2,0-0.4-0.1c-0.1-0.2-0.1-0.5-0.2-0.7c0-1.8,0-3.7-0.1-5.5
				c0-0.6,0.2-1,0.9-1.2c6.1-1.8,12.2-2.3,18.5-0.4c5.9,1.7,11.9,1.8,17.7-0.6C331.5,118.7,331.9,118.6,332.4,118.4z"/>
		</g>
	</g>
</g>
</svg>
