<?xml version="1.0" encoding="utf-8"?>
<!-- Generator: Adobe Illustrator 22.0.1, SVG Export Plug-In . SVG Version: 6.00 Build 0)  -->
<svg version="1.1" xmlns="http://www.w3.org/2000/svg" xmlns:xlink="http://www.w3.org/1999/xlink" x="0px" y="0px"
	 viewBox="0 0 450 220" style="enable-background:new 0 0 450 220;" xml:space="preserve">
<style type="text/css">
	.st0{display:none;}
	.st1{display:inline;fill:#6CD3CE;}
	.st2{opacity:0.19;}
	.st3{fill:none;stroke:#FFFFFF;stroke-width:2.2778;stroke-miterlimit:10;}
	.st4{fill:none;stroke:#FFFFFF;stroke-width:1.7633;stroke-miterlimit:10;}
	.st5{clip-path:url(#SVGID_2_);}
	.st6{fill:#FFFFFF;}
</style>
<g id="BG" class="st0">
	<rect class="st1" width="450" height="220"/>
</g>
<g id="Layer_2">
	<g id="Dc2ZTJ_1_">
		<g>
			<path class="st6" d="M253.1,76.1c-0.9-0.3-1.2-0.8-1.4-1.4c-1.7-3.6-4.4-6.4-7.9-8.2c-7-3.6-15.5-2.1-20.9,3.5
				c-0.6,0.7-1.2,1.4-1.8,2.1c0.1,0.1,0.1,0.1,0.2,0.2c0.2-0.2,0.4-0.4,0.6-0.6c3.2-3.3,7.1-5,11.6-5c7.4,0,13.7,4.6,15.9,11.7
				c0.1,0.5,0.2,1,0.3,1.6c-0.7-0.3-0.9-0.9-1.1-1.5c-0.7-2.3-1.8-4.3-3.6-6c-3.8-3.5-8.2-4.7-13.1-3.2c-5,1.5-8.1,4.9-9.3,10
				c-0.1,0.5-0.2,1-0.2,1.6c0,0.2,0,0.4,0,0.7c2.8-2,5.7-2.7,9-1.7c2,0.6,3.5,1.7,4.7,3.4c-0.8,0.1-1.5,0.2-2.3,0.4
				c-2.1,0.6-4.5,3-4.2,6.5c0.2,2.6,2.4,5.1,5,5.4c2.2,0.3,4.4-0.1,6.4-1.1c3.3-1.5,5.7-4,7-7.3c0.1-0.4,0.3-0.7,0.5-1.1
				c0.3-0.5,0.6-0.9,1.2-1c0.3,2-1.6,7.4-5.5,10.6c-3.3,2.7-7.1,4-11.4,3.9c1.2,0.3,2.5,0.4,3.7,0.3c6.2-0.6,11.1-3.4,14.5-8.8
				c0.2-0.4,0.4-0.7,0.7-1.1c0.4-0.5,0.8-0.8,1.6-0.9c-1.4,4.5-3.9,8-7.6,10.7c-3.6,2.7-7.8,4-12.3,4.2c0.7,0,1.5,0,2.2,0
				c0.8,0,1.5,0,2.3-0.1c4.2-0.5,8-2.1,11.3-4.7c2.5-2,4.5-4.5,6-7.3c0.3-0.5,0.5-1,0.8-1.5c0.4-0.6,0.8-1,1.5-1.1
				c-1.1,6.7-8.2,17.5-21.9,19c1.6,0.1,3.1-0.1,4.7-0.4c8.6-1.9,15-6.7,18.9-14.6c0.9-1.8,1.5-3.7,1.9-5.7c0.1-0.5,0.2-1,0.4-1.4
				c0.2-0.5,0.5-0.9,1.1-1.3c0,0.4,0,0.8,0,1.1c-0.8,7.7-4,14.1-9.7,19.3c-4,3.6-8.7,6-14,7c-8.6,1.7-16.5-0.2-23.5-5.4
				c-6.2-4.6-10-10.8-11.3-18.4c-1.5-8.5,0.4-16.4,5.6-23.3c4.5-6,10.6-9.7,18-11.1c8.6-1.6,16.4,0.3,23.4,5.5
				c5.8,4.4,9.4,10.3,11.1,17.4c0.2,0.8,0.3,1.7,0.4,2.6c-0.8-0.4-0.9-1-1-1.6c-0.5-1.7-0.8-3.5-1.5-5.2
				c-3.7-9.2-10.4-14.8-20.2-16.5c-8-1.4-15.1,0.9-21.3,6c-0.4,0.3-0.8,0.7-1.1,1.1c8.9-6.5,18.2-7.5,28-2.4c5.9,3.1,9.8,8,12,14.5
				c-0.9-0.3-1.2-1-1.5-1.7c-0.7-1.7-1.6-3.4-2.8-4.9c-4-5.2-9.4-8.2-16-8.7c-7-0.5-12.8,2-17.7,7c-0.1,0.1-0.2,0.3-0.3,0.5
				c6.8-5.7,14.4-7.2,22.7-3.8C247.2,66.4,250.9,70.5,253.1,76.1z M230.7,83.7c0.9,0,1.5-0.7,1.5-1.6c0-0.8-0.7-1.5-1.5-1.5
				c-0.8,0-1.6,0.7-1.6,1.5C229.1,83,229.8,83.7,230.7,83.7z"/>
			<path class="st6" d="M228.7,129.4c0-2,0-3.7,0-5.4c0-1.7,0-3.4,0-5.2c1.9,0,3.7,0,5.5,0c0.2,0.7,0.5,29.1,0.3,30.6
				c-1.7,0.1-3.5,0.1-5.3,0c0-0.8-0.1-1.6-0.1-2.5c-0.2,0.2-0.3,0.3-0.4,0.4c-3.2,3.8-11.5,4-14.3-2.2c-2.2-4.9-2-9.8,1.1-14.4
				c2.1-3.2,5.8-4.5,9.5-3.6c1.2,0.3,2.3,0.9,3.2,1.7C228.2,128.9,228.4,129.1,228.7,129.4z M228.8,138.5c0-1.4-0.1-2.8,0-4.2
				c0.1-1.1-0.4-1.8-1.1-2.5c-2.3-2.3-5.8-1.9-7.5,0.8c-0.3,0.5-0.6,1.2-0.8,1.8c-0.6,1.8-0.7,3.7-0.5,5.6c0.2,1.4,0.5,2.9,1.2,4.1
				c1,1.7,2.5,2.6,4.5,2.4c1.5-0.1,2.6-0.9,3.6-1.9c0.4-0.4,0.6-0.9,0.6-1.5C228.8,141.6,228.8,140.1,228.8,138.5z"/>
			<path class="st6" d="M140.5,142.6c0.6,0.6,1.1,1.1,1.7,1.8c-0.8,1.5-1.9,2.6-3.2,3.6c-2.1,1.6-4.5,2.4-7.1,2.6
				c-2.8,0.3-5.6-0.1-8.2-1.1c-3.6-1.5-6.2-4-7.5-7.6c-2-5.4-1.9-10.8,1.2-15.8c2.4-4,6.1-6.3,10.7-7c3-0.5,6-0.3,8.8,0.9
				c2.2,0.9,3.9,2.4,5,4.6c0.1,0.2,0.1,0.4,0.3,0.6c-0.8,0.6-1.5,1.2-2.4,1.8c-0.2-0.2-0.3-0.3-0.4-0.5c-3.3-4.8-9.8-5-13.7-2
				c-2.1,1.6-3.3,3.8-3.9,6.3c-0.7,3.1-0.6,6.1,0.5,9.1c1.8,4.7,6,6.9,10.8,6.4c2-0.2,3.8-0.8,5.4-1.9
				C139.1,143.9,139.7,143.3,140.5,142.6z"/>
			<path class="st6" d="M203.9,136.2c0.5-2.7-1-5.3-3.8-5.7c-2.4-0.3-4.5,0.3-6.3,1.8c-0.4,0.3-0.7,0.6-1.1,0.9
				c-0.5-0.5-1-1-1.6-1.5c1.3-2,3-3.3,5.2-4.2c2.6-1,5.2-1,7.8-0.2c3,0.9,4.7,3,5.3,6c0.2,1.1,0.4,2.3,0.4,3.5
				c0.1,3.9,0.1,7.7,0.1,11.6c0,0.3,0,0.5,0,0.9c-1.7,0.2-3.5,0.1-5.3,0.1c-0.1-0.7-0.1-1.3-0.2-2.1c-0.3,0.3-0.6,0.4-0.8,0.6
				c-2.5,2-5.3,2.6-8.4,1.8c-2.7-0.7-4.6-2.4-5.1-5.3c-0.5-2.9,0.3-5.5,2.8-7.3c1.6-1.2,3.4-1.7,5.3-1.8c1.6-0.1,3.3,0.1,4.9,0.5
				C203.3,136.1,203.6,136.2,203.9,136.2z M204.1,142.4c0-0.7,0-1.4,0-2.2c0-0.6-0.2-0.8-0.7-1c-0.7-0.1-1.3-0.4-2-0.5
				c-1.5-0.2-2.9,0-4.1,1c-1.4,1.1-1.7,2.5-1.3,4.1c0.4,1.6,1.4,2.4,2.9,2.7c1.8,0.3,3.4-0.2,4.8-1.2c0.3-0.2,0.4-0.5,0.4-0.8
				C204.1,143.9,204.1,143.2,204.1,142.4z"/>
			<path class="st6" d="M251.9,135.9c0.5-3.1-1.1-5.3-4.1-5.7c-2.5-0.3-4.6,0.5-6.4,2.1c-0.1,0.1-0.2,0.2-0.4,0.3
				c-0.1,0.1-0.2,0.2-0.4,0.4c-0.5-0.5-1.1-1-1.6-1.5c0.6-1,1.3-1.8,2.2-2.4c2.3-1.8,4.9-2.6,7.8-2.4c0.8,0.1,1.6,0.1,2.4,0.3
				c3.2,0.8,5.1,2.9,5.9,6.1c0.3,1.1,0.4,2.3,0.4,3.5c0.1,3.9,0.1,7.8,0.1,11.7c0,0.3,0,0.6-0.1,0.9c-1.7,0.1-3.4,0.1-5.2,0.1
				c0-0.7-0.1-1.4-0.1-2.2c-0.2,0.2-0.4,0.3-0.6,0.4c-2.7,2.4-5.8,3-9.2,2c-2.6-0.8-4.3-2.6-4.7-5.3c-0.4-2.9,0.4-5.3,2.8-7.1
				c1.6-1.2,3.4-1.7,5.4-1.9c1.7-0.1,3.4,0.1,5,0.6C251.4,135.8,251.6,135.8,251.9,135.9z M252.1,142.1
				C252.1,142.1,252.1,142.1,252.1,142.1c0-0.5,0-0.9,0-1.4c0-1.6,0-1.6-1.6-2c-1.6-0.4-3.2-0.4-4.8,0.4c-1.4,0.8-2.2,2.4-1.9,4.1
				c0.3,1.7,1.3,2.8,3,3c1.8,0.3,3.4-0.2,4.8-1.2c0.2-0.1,0.4-0.5,0.4-0.8C252.1,143.5,252.1,142.8,252.1,142.1z"/>
			<path class="st6" d="M163,149.8c-1.8,0-3.5,0-5.3,0c0-0.7,0-1.4,0-2.3c-0.3,0.3-0.5,0.4-0.6,0.5c-2.8,2.6-7.2,3.2-10.6,1.3
				c-2.3-1.3-3.5-3.7-3.3-6.4c0.3-4,3.1-6.3,6.6-7c2.1-0.4,4.2-0.3,6.3,0.3c0.4,0.1,0.7,0.2,1.1,0.3c0.5-3-1.2-5.3-4.1-5.7
				c-2.6-0.3-4.7,0.5-6.6,2.1c-0.2,0.2-0.4,0.4-0.7,0.6c-0.5-0.5-1-1-1.5-1.6c0.4-0.5,0.9-1.1,1.4-1.7c2.3-2.2,5.1-3.3,8.4-3.1
				c1.1,0.1,2.2,0.2,3.3,0.5c3.1,1,4.7,3.3,5.3,6.4c0.2,1,0.2,2,0.3,2.9c0.1,3.9,0.1,7.9,0.1,11.8C163,149.2,163,149.4,163,149.8z
				 M157.4,140c-1.6-0.8-3.4-1-5-0.7c-2.4,0.5-3.5,2.1-3.3,4.5c0.1,1.5,1,2.7,2.5,3c2,0.5,3.8,0,5.4-1.1c0.2-0.1,0.3-0.5,0.4-0.7
				C157.5,143.3,157.4,141.7,157.4,140z"/>
			<path class="st6" d="M335.2,138.2c-5.3,0-10.6,0.1-15.8,0.1c-0.1,0.2-0.2,0.3-0.2,0.4c-0.1,3.2,2.3,6.4,5.4,6.9
				c3.2,0.5,6.2-0.2,8.6-2.6c0.1-0.1,0.2-0.2,0.3-0.3c0,0,0.1,0,0.2-0.1c0.4,0.4,0.9,0.8,1.4,1.3c-0.5,1.2-1.3,2.1-2.3,2.9
				c-2.6,2.2-5.7,2.8-9,2.6c-0.9-0.1-1.9-0.2-2.8-0.5c-3.2-0.9-5.5-3-6.7-6.1c-1.5-4.1-1.3-8.1,1.2-11.8c1.9-2.8,4.6-4.3,7.9-4.7
				c1.5-0.2,3.1-0.1,4.6,0.3c2.9,0.7,4.9,2.5,6.1,5.2c0.8,2,1.2,4,1.2,6.1C335.2,137.8,335.2,137.9,335.2,138.2z M329.4,134.9
				c0.1-2.9-1.4-4.9-3.8-5.3c-3.4-0.5-6.1,1.7-6.3,5.4C322.7,134.9,326,134.9,329.4,134.9z"/>
			<path class="st6" d="M186.8,149.6c-2,0-3.8,0-5.7,0c0-0.4,0-0.8,0-1.2c0-4.2-0.1-8.5-0.1-12.7c0-0.6-0.1-1.2-0.1-1.9
				c-0.2-2.3-2-3.9-5-3.1c-1.1,0.3-2,1-2.8,1.8c-0.4,0.4-0.5,0.9-0.5,1.5c0,3.9,0.1,7.8,0.1,11.7c0,1.2,0,2.5,0,3.7
				c-0.8,0.3-4.6,0.3-5.6,0.1c-0.1-7.2-0.1-14.4-0.2-21.7c0.7-0.2,3.9-0.3,5.5-0.1c0,0.8,0.1,1.6,0.1,2.6c0.4-0.3,0.6-0.6,0.9-0.8
				c2.4-2.2,5.2-3,8.3-2.3c2.7,0.6,4.5,2.7,4.7,5.5c0.1,1.1,0.1,2.3,0.2,3.4c0,4,0.1,8.1,0.1,12.1
				C186.8,148.8,186.8,149.2,186.8,149.6z"/>
			<path class="st6" d="M269.3,149.1c-0.1-10.2-0.1-20.3-0.2-30.5c2,0,3.9,0,6,0c0.1,8.7,0.1,17.4,0.2,26.2c1.2,0.2,2.3,0.1,3.4,0.1
				c1.1,0,2.2,0,3.3,0c1.1,0,2.2,0,3.3,0c1.1,0,2.2,0,3.5,0c0.1,1.4,0.1,2.8,0,4.2C282.3,149,275.9,149,269.3,149.1z"/>
			<path class="st6" d="M302.7,130.2c-1.2,0-2.2,0-3.3,0c0-1.1,0-2.1,0-3.3c1.1,0,2.1,0,3.2,0c0-0.5,0-1,0-1.4
				c0-1.3,0.1-2.5,0.5-3.7c0.9-2.5,3.2-4.2,5.9-4.3c1.8-0.1,3.5,0.2,5,1.2c0.3,0.2,0.6,0.4,0.9,0.7c-0.4,0.7-0.7,1.3-1.1,1.9
				c-0.3-0.1-0.6-0.2-0.9-0.3c-1.9-0.6-3.6,0.2-4.2,2.1c-0.4,1.1-0.4,2.3-0.3,3.6c0.8,0,1.6,0,2.3,0c0.8,0,1.6,0,2.4,0
				c0,1.1,0,2.2,0,3.4c-1.6,0-3.1,0-4.8,0c-0.1,1.1,0,2.1,0,3.1c0,1,0,2.1,0,3.1c0,1,0,2,0,3c0,1,0,2,0,3c0,1,0,2.1,0,3.1
				c0,1,0,2,0,3.1c-1.9,0.2-3.7,0.1-5.7,0.1c0-3.1,0-6.2-0.1-9.3C302.8,136.5,302.7,133.4,302.7,130.2z"/>
			<path class="st6" d="M296.7,148.9c-1.8,0-3.6,0-5.3,0c-0.2-0.7-0.4-20.5-0.2-21.8c0.7-0.2,4.2-0.3,5.3-0.1
				C296.7,127.7,296.9,147.5,296.7,148.9z"/>
			<path class="st6" d="M293.7,117.7c1.7,0,3.1,1.3,3.2,3c0,1.6-1.4,3.1-3,3.1c-1.6,0-3.1-1.4-3.2-3
				C290.7,119.2,292.1,117.7,293.7,117.7z"/>
		</g>
	</g>
</g>
</svg>
