<?xml version="1.0" encoding="utf-8"?>
<!-- Generator: Adobe Illustrator 22.0.1, SVG Export Plug-In . SVG Version: 6.00 Build 0)  -->
<svg version="1.1" xmlns="http://www.w3.org/2000/svg" xmlns:xlink="http://www.w3.org/1999/xlink" x="0px" y="0px"
	 viewBox="0 0 450 220" style="enable-background:new 0 0 450 220;" xml:space="preserve">
<style type="text/css">
	.st0{display:none;}
	.st1{display:inline;fill:#6CD3CE;}
	.st2{opacity:0.19;}
	.st3{fill:none;stroke:#FFFFFF;stroke-width:2.2778;stroke-miterlimit:10;}
	.st4{fill:none;stroke:#FFFFFF;stroke-width:1.7633;stroke-miterlimit:10;}
	.st5{clip-path:url(#SVGID_2_);}
	.st6{fill:#FFFFFF;}
</style>
<g id="BG" class="st0">
	<rect class="st1" width="450" height="220"/>
</g>
<g id="Layer_2">
	<g id="eKBDmt_1_">
		<g>
			<path class="st6" d="M123.6,100.7c-2.1-1-2.5-2.4-1-3.6c-2.1-2.6-2.2-5.1-0.2-6.9c1.7-1.6,4.4-1.5,6.1,0.1
				c1.9,1.8,1.8,4.4-0.4,6.8c1.7,1.2,0.9,2.9-1.1,3.7c-0.1,2.5-0.2,5-0.2,7.6c0,4.8,0.3,9.5,1.5,14.2c0.4,1.7,0.9,3.4,2.1,4.6
				c3.2,0.5,8.2-0.9,12.6-3.5c1.6,0.2,3.2,0.6,4.9,1.5c-0.4,0.4-0.7,0.6-1,0.9c-6.2,5.2-13.1,8.9-20.7,11.4
				c-0.5,0.2-1.1,0.2-1.6,0.1c-7.8-2.5-14.9-6.4-21.2-11.8c-0.2-0.1-0.3-0.2-0.7-0.5c1.6-1,3.2-1.3,4.9-1.6
				c3.8,2.5,7.9,3.6,12.6,3.6c0.4-0.6,0.9-1.3,1.2-2c1.2-2.7,1.6-5.6,1.9-8.6c0.5-4.5,0.5-9.1,0.4-13.7
				C123.7,102.3,123.6,101.5,123.6,100.7z M125.4,91.6c-1.1,0-1.9,0.8-1.9,1.9c0,1.1,0.9,2,1.9,2c1,0,1.8-0.9,1.8-1.9
				C127.2,92.4,126.4,91.6,125.4,91.6z"/>
			<path class="st6" d="M138.1,96.5c-2.2-4.1-5.3-7.1-9.6-9.3c-0.4-1.5-0.7-3-1.2-4.8c0.5,0.1,0.8,0.1,1.1,0.2
				c7.7,2.8,14.6,6.9,20.6,12.4c0.4,0.3,0.7,0.8,0.8,1.3c1.8,8.2,1.9,16.4,0.4,24.6c0,0.1-0.1,0.2-0.2,0.5c-1.5-0.9-2.6-2.1-3.7-3.4
				c0.3-4.6-0.8-8.8-3.3-12.9c-1.2,0.1-2.4,0.1-3.6,0.3c-3,0.6-8.4,2.7-10.9,4.3c1.9,1,3.6,1.9,5.3,2.8c2.3-1.3,3.4-1,3.8,1
				c1.6-0.5,3.1-0.4,4.5,0.7c0.9,0.7,1.4,1.6,1.6,2.7c0.4,2.3-0.9,4.5-3.1,5.1c-2.5,0.7-4.5-0.5-5.8-3.7c-0.8,0.5-1.6,0.5-2.1-0.3
				c-0.4-0.7-0.5-1.5-0.9-2.6c-0.9-0.6-2.2-1.4-3.6-2.3c0-2.3,0-4.6,0-7C131.8,103.3,135.9,100.9,138.1,96.5z M139.3,119.7
				c1,0,1.9-0.8,1.9-1.9c0-1.1-0.9-2-1.9-1.9c-1.1,0-1.9,0.8-1.9,1.9C137.5,118.8,138.3,119.7,139.3,119.7z"/>
			<path class="st6" d="M104.4,118.2c-1.1,1.1-2.3,2.2-3.4,3.2c-0.1,0-0.2-0.1-0.3-0.1c-0.2-1.1-0.4-2.2-0.6-3.2
				c-0.9-7.3-0.7-14.5,0.8-21.6c0.1-0.5,0.4-1,0.7-1.3c6.1-5.5,13-9.7,20.7-12.5c0.2-0.1,0.5-0.1,0.9-0.2c0,1.8-0.5,3.4-1.1,4.9
				c-4.1,2.1-7.2,5.1-9.3,9c0.3,1.3,0.9,2.2,1.8,3c2.1,2,4.4,3.8,6.6,5.7c0.5,0.4,1,0.7,1.4,1c0,2.4,0,4.8,0,7.1
				c-1.4,0.9-2.6,1.7-3.9,2.5c0.1,2.5-1.2,3.6-2.7,2.7c-1.2,3.2-3.2,4.4-5.8,3.7c-2.2-0.7-3.6-3-3.1-5.3c0.6-2.6,2.7-3.7,6.1-3.2
				c0.3-1.9,1.7-2.3,3.6-0.9c1.7-0.9,3.5-1.8,5.3-2.8c0-0.1,0-0.2,0-0.3c-4.6-2.1-9.1-4.5-14.4-4.5
				C105.2,109.2,104.1,113.4,104.4,118.2z M111.4,115.9c-1,0-1.9,0.8-1.9,1.9c0,1.1,0.9,2,1.9,2c1,0,1.9-0.9,1.9-1.9
				C113.4,116.8,112.4,115.9,111.4,115.9z"/>
			<path class="st6" d="M242.7,99c1.8,0,3.4,0,5.2,0c0,7.2,0,14.3,0,21.5c-1.6,0-3.1,0-4.8,0c0-4.4,0-8.8,0-13.2
				c-0.1,0-0.2-0.1-0.3-0.1c-1.9,2.8-3.7,5.7-5.7,8.7c-2-3-3.8-5.8-5.7-8.7c-0.1,0-0.1,0-0.2,0c0,4.4,0,8.8,0,13.2
				c-1.6,0-3.1,0-4.7,0c0-7.1,0-14.3,0-21.5c1.7,0,3.4,0,5.2,0c1.8,2.9,3.6,5.8,5.5,8.9C239.1,104.9,240.9,102,242.7,99z"/>
			<path class="st6" d="M250.7,99c1.6,0,3.1,0,4.8,0c0,0.5,0.1,0.9,0.1,1.3c0,3.5,0,7.1,0,10.6c0,0.8,0.1,1.6,0.2,2.3
				c0.6,2.2,2.2,3.3,4.8,3.1c2.2-0.2,3.6-1.6,3.9-3.8c0.1-0.9,0.1-1.8,0.1-2.7c0-3.2,0-6.4,0-9.7c0-0.4,0-0.8,0.1-1.2
				c1.6,0,3.2,0,4.8,0c0,0.3,0.1,0.6,0.1,0.9c0,3.7,0.1,7.4,0,11.1c0,1.3-0.2,2.7-0.6,4c-0.8,2.8-2.7,4.6-5.5,5.4
				c-1.9,0.5-3.9,0.6-5.9,0.2c-4-0.8-6.5-3.3-6.7-7.6C250.5,108.4,250.7,103.8,250.7,99z"/>
			<path class="st6" d="M291.9,99c1.6,0,3.1,0,4.8,0c0,0.4,0,0.8,0,1.2c0,3.5,0,7.1,0,10.6c0,0.5,0,1,0.1,1.5
				c0.5,3.1,2.6,4.6,5.7,3.9c1.5-0.3,2.5-1.2,2.9-2.7c0.2-0.7,0.3-1.5,0.3-2.2c0-3.7,0-7.4,0-11c0-0.4,0-0.8,0-1.3
				c1.6,0,3.2,0,4.9,0c0,0.4,0,0.8,0,1.2c0,3.8,0,7.5,0,11.3c0,0.9-0.1,1.8-0.3,2.7c-0.9,3.9-3.5,6.3-7.6,6.6
				c-1.3,0.1-2.7,0.1-4-0.1c-4.3-0.8-6.8-3.8-6.9-8.4c-0.1-4.2,0-8.4,0-12.6C291.8,99.5,291.9,99.3,291.9,99z"/>
			<path class="st6" d="M317.2,115.9c-0.7,1.6-1.3,3.2-1.9,4.7c-1.7,0-3.2,0-5,0c3.1-7.3,6.1-14.4,9.2-21.6c1.5,0,3,0,4.6,0
				c3,7.1,6.1,14.3,9.2,21.6c-1.8,0-3.4,0-5.1,0c-0.6-1.5-1.3-3.1-1.9-4.7C323.1,115.9,320.2,115.9,317.2,115.9z M319,111.3
				c1.8,0,3.5,0,5.3,0c-0.9-2.1-1.7-4.2-2.5-6.2c-0.1,0-0.2,0-0.2,0C320.7,107.2,319.9,109.2,319,111.3z"/>
			<path class="st6" d="M283.1,120.5c-1.7,0-3.2,0-4.9,0c0-5.7,0-11.3,0-17c-2.2,0-4.3,0-6.5,0c0-1.5,0-3,0-4.5c5.9,0,11.8,0,17.7,0
				c0,1.5,0,2.9,0,4.4c-2.1,0-4.2,0-6.4,0C283.1,109.2,283.1,114.8,283.1,120.5z"/>
			<path class="st6" d="M204.8,120.7c0-7.3,0-14.5,0-21.6c0.3,0,0.5-0.1,0.8-0.1c2.7,0,5.4,0,8.1,0.1c5.7,0.3,9.9,4.7,10.1,10.4
				c0.1,6.2-4.1,10.3-9.2,10.9C211.3,120.7,208.1,120.6,204.8,120.7z M207.4,118.2c1.8,0,3.4,0,5,0c0.6,0,1.1-0.1,1.7-0.2
				c3.9-0.6,6.7-3.7,6.9-7.5c0.3-4.8-2.7-8.2-6.3-8.8c-2.3-0.4-4.7-0.2-7.1-0.2c-0.1,0-0.1,0.1-0.2,0.2
				C207.4,107.1,207.4,112.6,207.4,118.2z"/>
			<path class="st6" d="M162.9,109.8c0-6.3,4.7-11.1,10.8-11.2c6.2-0.2,11.2,4.7,11.2,11.1c0,6.3-4.8,11.2-11,11.2
				C167.6,121,162.9,116.2,162.9,109.8z M173.8,101c-3.3,0-6.1,1.8-7.5,4.9c-0.8,1.9-1,3.8-0.6,5.8c1.3,6.3,8.8,9,13.5,4.8
				c2.5-2.3,3.3-5.2,2.7-8.5C181.3,103.9,177.9,101,173.8,101z"/>
			<path class="st6" d="M340,116.1c3.6,0,7,0,10.5,0c0,1.5,0,2.9,0,4.4c-5.1,0-10.2,0-15.4,0c0-7.2,0-14.3,0-21.5c1.6,0,3.2,0,4.8,0
				C340,104.7,340,110.3,340,116.1z"/>
			<path class="st6" d="M190,118.2c4.1,0,8,0,12,0c0,0.8,0,1.5,0,2.3c-4.8,0-9.6,0-14.5,0c0-7.1,0-14.2,0-21.5c0.8,0,1.6,0,2.5,0
				C190,105.4,190,111.7,190,118.2z"/>
		</g>
	</g>
</g>
</svg>
