<?xml version="1.0" encoding="utf-8"?>
<!-- Generator: Adobe Illustrator 22.0.1, SVG Export Plug-In . SVG Version: 6.00 Build 0)  -->
<svg version="1.1" xmlns="http://www.w3.org/2000/svg" xmlns:xlink="http://www.w3.org/1999/xlink" x="0px" y="0px"
	 viewBox="0 0 450 220" style="enable-background:new 0 0 450 220;" xml:space="preserve">
<style type="text/css">
	.st0{display:none;}
	.st1{display:inline;}
	.st2{display:inline;fill:#6CD3CE;}
	.st3{fill:#FFFFFF;}
</style>
<g id="Layer_2" class="st0">
	<rect class="st1" width="450" height="220"/>
</g>
<g id="Layer_1">
	<g id="BG" class="st0">
		<rect y="0" class="st2" width="450" height="220"/>
	</g>
	<g id="Cpgq39_1_">
		<g>
			<path class="st3" d="M100.8,109.9c0.1-24.1,19.7-43,43.1-43c23.7,0,43.3,19.3,43.1,43.4c-0.2,24-20,42.9-43.5,42.7
				C120.5,152.8,100.8,134.2,100.8,109.9z M138.8,105.6c-0.1-0.4-0.2-0.7-0.3-1.1c-2.4-6.5-7.3-9.9-13.9-10.7
				c-2.8-0.3-5.7-0.1-8.5-0.2c-0.7,0-1,0.3-1.1,1c0,0.2,0,0.5,0,0.7c0,3.9,0,7.9,0,11.8c0,0.9,0,1.8,0,2.7c0,1.5,1.1,2.6,2.5,2.8
				c1.6,0.2,3-1.1,3-2.8c0-3.3,0-6.7,0-10c0-0.3,0-0.7,0-1.1c1.4,0,2.8-0.1,4.1,0.2c3.9,0.7,6.7,2.7,8.1,6.4
				c0.1,0.2,0.2,0.5,0.3,0.7C135,105.4,136.9,105.9,138.8,105.6z M149.1,114.2c0,0.2,0,0.2,0,0.3c0,0.1,0.1,0.3,0.1,0.4
				c0.6,1.9,1.5,3.7,2.9,5.2c3.3,3.8,7.5,5.6,12.4,5.8c2.3,0.1,4.7,0,7,0c1.1,0,1.2-0.2,1.3-1.2c0-0.1,0-0.2,0-0.4
				c0-4.8,0-9.5,0-14.3c0-0.2,0-0.5,0-0.7c-0.1-1.6-1.7-2.8-3.2-2.5c-1.3,0.3-2.3,1.2-2.3,2.8c0,3.3,0,6.7,0,10c0,0.3,0,0.7,0,1
				c-1,0-2,0.1-2.9,0c-4.4-0.3-7.6-2.3-9.3-6.5c-0.1-0.2-0.2-0.4-0.3-0.6C152.8,114.5,150.9,114,149.1,114.2z M146.6,107.4
				c0-0.4,0-0.7,0-0.9c0-1.8,0-3.6,0-5.3c0-1.1-0.7-2-1.7-2.2c-1.2-0.3-2.4,0.1-2.9,1.1c-0.2,0.4-0.3,1-0.3,1.5c0,1.6,0,3.3,0,4.9
				c0,0.3,0,0.6,0,1c-0.4,0-0.7,0-1,0c-1.6,0-3.3,0-4.9,0c-1,0-1.9,0.3-2.4,1.3c-0.8,1.6,0.1,3.8,2.2,3.8c1.7,0,3.4,0,5.2,0
				c0.3,0,0.6,0,1,0c0,0.4,0,0.8,0,1.1c0,1.7,0,3.3,0,5c0,0.7,0.1,1.4,0.7,1.9c0.8,0.8,1.8,0.9,2.9,0.5c1-0.4,1.4-1.1,1.4-2.2
				c0-1.8,0-3.5,0-5.3c0-0.3,0-0.6,0-1c0.3,0,0.5-0.1,0.8-0.1c1.8,0,3.6,0,5.4,0c0.6,0,1.2-0.1,1.6-0.6c0.8-0.7,1-1.7,0.7-2.7
				c-0.3-0.9-0.9-1.5-1.8-1.7c-0.3-0.1-0.7-0.1-1-0.1c-1.6,0-3.2,0-4.7,0C147.2,107.4,146.9,107.4,146.6,107.4z M154.5,106.1
				c0.1-0.2,0.1-0.2,0.2-0.3c1.3-3.3,3.7-5.3,7-6.3c1.2-0.4,2.4-0.5,3.7-0.5c1.7,0,3.4,0,5.1,0c1.4,0,2.5-1.1,2.6-2.5
				c0-1.4-1-2.5-2.5-2.7c-0.2,0-0.4,0-0.5,0c-1.8,0-3.6,0-5.3,0c-2.7,0.1-5.2,0.6-7.6,1.7c-4,1.9-6.8,4.9-8.1,9.2
				c-0.1,0.3-0.2,0.7-0.3,1C150.7,105.9,152.6,105.4,154.5,106.1z M133.3,113.7c-0.4,0.8-0.8,1.6-1.3,2.3c-2.1,3-5,4.4-8.6,4.7
				c-1.8,0.1-3.7,0.1-5.5,0.1c-0.4,0-0.8,0-1.1,0.1c-1.1,0.2-2,1.1-2.1,2.2c-0.1,1.1,0.5,2.2,1.5,2.6c0.4,0.2,0.9,0.3,1.4,0.3
				c1.8,0,3.7,0,5.5,0c2.1,0,4.1-0.4,6-1.1c4.5-1.6,7.8-4.6,9.5-9.2c0.2-0.5,0.3-0.9,0.4-1.5C137.1,114,135.1,114.4,133.3,113.7z"/>
			<path class="st3" d="M204.2,94.8c0-3.9,0-7.7,0-11.6c0-0.2,0-0.5,0-0.7c0-0.6,0.2-0.9,0.9-0.9c2.8,0,5.6-0.3,8.4,0.2
				c4.1,0.7,7.4,2.7,9.4,6.4c2.5,4.4,2.3,11.6-2.3,15.9c-2.1,2-4.6,3.1-7.4,3.5c-1.6,0.2-3.3,0.2-4.9,0.2c-1,0-1.9,0-2.9,0
				c-1.1,0-1.2-0.1-1.2-1.2c0-3.2,0-6.3,0-9.5C204.2,96.5,204.2,95.6,204.2,94.8z M209.2,86c-0.2,1.1-0.2,16.9,0,17.6
				c1.2,0.1,2.4,0.1,3.6-0.1c3.2-0.6,5.4-2.4,6.3-5.6c0.6-2.1,0.5-4.3-0.1-6.4c-0.8-2.8-2.6-4.5-5.5-5.2
				C212.2,85.9,210.7,85.9,209.2,86z"/>
			<path class="st3" d="M213.3,127c1.1,1.2,2.3,2.3,3.5,3.5c0.2-0.4,0.4-0.8,0.5-1.2c0.3-1,0.6-2.1,0.8-3.1c0.2-1.1,0.8-1.8,1.9-1.9
				c0.6-0.1,1.3,0,2,0.1c1,0.2,1.5,1,1.3,2c-0.5,2.6-1.2,5.1-2.8,7.2c-0.1,0.1-0.1,0.1-0.2,0.3c0.6,0.5,1.1,1.1,1.7,1.6
				c0.6,0.6,1.2,1.1,1.8,1.7c0.7,0.7,0.6,1.2-0.3,1.4c-2.2,0.5-4.4,0.5-6.2-1.2c-0.1-0.1-0.3-0.2-0.4-0.3c0,0-0.1-0.1-0.2-0.1
				c-0.2,0.1-0.5,0.2-0.7,0.4c-3,1.6-6.2,1.9-9.4,0.9c-1.1-0.3-2.1-0.9-3-1.8c-2.4-2.4-2.5-6.2-0.1-8.7c0.7-0.7,1.4-1.3,2.2-1.9
				c-0.2-0.3-0.4-0.7-0.6-1c-1.5-2.8-0.7-6,2-7.6c2.4-1.5,5.1-1.6,7.6-0.4c3.3,1.5,4,5.5,1.4,8.1c-0.6,0.6-1.4,1.1-2.1,1.6
				C213.8,126.8,213.5,126.9,213.3,127z M214.2,134.1c-1.9-1.9-3.7-3.8-5.6-5.7c-0.8,0.4-1.3,0.8-1.7,1.4c-1.1,1.6-0.7,3.6,0.8,4.7
				C209.6,135.9,213,135.4,214.2,134.1z M210.1,124.8c0.4-0.2,0.7-0.3,1-0.5c0.4-0.3,0.8-0.5,1.1-0.8c0.3-0.3,0.6-0.7,0.8-1.1
				c0.5-1,0-2.3-0.9-2.8c-1.4-0.7-3,0.1-3.3,1.7C208.6,122.6,209.1,123.7,210.1,124.8z"/>
			<path class="st3" d="M250.1,90.8c3.9-1.9,7.4-1.4,10.7,1.4c0.3-0.2,0.6-0.5,0.8-0.7c3.3-2.5,7.2-2.4,10.4-0.4
				c2.1,1.4,3.2,3.4,3.3,6c0,2.8,0,5.6,0,8.3c0,0.5-0.1,1.1-0.4,1.5c-0.5,0.8-1.2,1.1-2.2,1c-1-0.1-1.7-0.6-2-1.6
				c-0.1-0.4-0.1-0.7-0.1-1.1c0-2.7-0.1-5.5,0-8.2c0.1-2.1-1.9-3.6-3.9-3.5c-0.7,0-1.4,0.2-2.1,0.7c-0.9,0.6-1.5,1.5-1.4,2.6
				c0,2.9,0,5.8,0,8.7c0,1.2-0.6,2-1.7,2.4c-1.5,0.5-3.2-0.7-3.1-2.2c0.1-2.8,0-5.7,0-8.5c0-1.8-0.9-3-2.6-3.5
				c-1.8-0.5-3.7,0.3-4.5,1.7c-0.2,0.5-0.3,1.1-0.3,1.6c0,2.9,0,5.8,0,8.7c0,1.2-1,2.2-2.2,2.3c-1.4,0.1-2.5-0.8-2.5-2.2
				c0-2.5,0-5.1,0-7.6c0-2.3,0-4.7,0-7c0-1,0.3-1.2,1.2-1.3C248.5,89.9,249.4,90.1,250.1,90.8z"/>
			<path class="st3" d="M247.6,134.1c0-0.4,0-0.7,0-1c0-2.6,0-5.1,0-7.7c0-0.6,0.1-1.2,0.5-1.6c0.6-0.8,1.7-1.1,2.6-0.7
				c0.9,0.3,1.5,1.1,1.5,2.1c0,4.1,0,8.2,0,12.3c0,0.1,0,0.2,0,0.4c0,0.4-0.3,0.7-0.7,0.7c-2.9-0.1-5.9,0.4-8.8-0.4
				c-5.1-1.3-8.6-4.3-9.9-9.5c-0.9-3.4-0.7-6.7,1-9.8c1.9-3.5,5-5.4,8.8-6.2c1.2-0.3,2.4-0.3,3.7-0.4c1.3-0.1,2.7,0,4,0
				c1.2,0,2.1,0.9,2.2,1.9c0.1,1.3-0.8,2.3-2.2,2.3c-1.3,0-2.7,0-4,0c-1.3,0-2.6,0.2-3.8,0.7c-2.2,0.9-4,2.2-4.8,4.5
				c-1.2,3.5-0.7,6.8,1.6,9.7c1.2,1.5,2.9,2.2,4.8,2.6C245.3,134.2,246.4,134.2,247.6,134.1z"/>
			<path class="st3" d="M336.2,121.4c0.1-0.1,0.2-0.3,0.3-0.5c0.8-0.8,1.8-1,2.8-0.7c0.9,0.2,1.4,0.8,1.5,1.7c0,0.3,0,0.5,0,0.8
				c0,4.6,0,9.2,0,13.8c0,0.2,0,0.5,0,0.7c-0.1,0.8-0.5,1.1-1.3,1.2c-1.1,0.1-2-0.3-2.7-1.1c-0.1-0.1-0.2-0.2-0.3-0.4
				c-0.3,0.1-0.5,0.3-0.8,0.4c-2.7,1.3-5.4,1.5-8.2,0.4c-3.8-1.5-6.1-5.2-5.8-9.2c0.3-4.1,3.3-7.4,7.2-8.3c2.2-0.5,4.4-0.3,6.4,0.7
				C335.6,121.1,335.8,121.2,336.2,121.4z M336.3,129c0-1.2-0.5-2.4-1.5-3.5c-1.2-1.2-2.6-1.8-4.3-1.6c-2.1,0.3-3.5,1.5-4.2,3.5
				c-0.7,2-0.3,3.9,1.2,5.5c1.1,1.2,2.5,1.8,4.1,1.6C334.3,134.4,336.3,132,336.3,129z"/>
			<path class="st3" d="M281.4,100.2c0.5,3,4.1,5.2,7.1,3.5c0.8-0.5,1.6-1.1,2.2-1.9c1.3-1.4,3.5-0.4,3.8,1c0.2,0.7,0.1,1.4-0.4,1.9
				c-4.4,4.6-11.8,4.7-15.5-0.4c-3.8-5.2-1.1-12.6,5.2-14.2c3.5-0.9,6.7-0.1,9.3,2.5c1.4,1.4,2,3.2,2.1,5.1c0.1,1.5-0.9,2.5-2.4,2.5
				c-3.5,0-7,0-10.4,0C282.1,100.2,281.8,100.2,281.4,100.2z M290.8,96.5c-0.5-1.6-2.6-3.2-4.8-3c-1.9,0.1-3.8,1.4-4.3,3
				C284.8,96.5,287.8,96.5,290.8,96.5z"/>
			<path class="st3" d="M296.5,130.5c0.3,1.4,1,2.4,2.1,3.1c1.7,1.2,3.7,1.3,5.4,0.1c0.7-0.5,1.3-1.1,1.9-1.7
				c0.7-0.7,1.6-0.9,2.6-0.4c0.9,0.4,1.4,1.2,1.3,2.2c-0.1,0.4-0.2,0.9-0.5,1.2c-3.3,3.5-8.3,4.3-12.1,2.4c-3.5-1.8-5.5-5.4-5-9.4
				c0.4-3.5,3.4-6.9,7-7.7c2.8-0.6,5.5-0.2,7.9,1.4c2.2,1.5,3.3,3.7,3.4,6.3c0.1,1.5-0.8,2.4-2.3,2.4c-3.5,0-7,0-10.5,0
				C297.2,130.5,296.9,130.5,296.5,130.5z M306,126.9c-0.6-1.9-2.8-3.2-4.8-3c-1.9,0.2-3.9,1.6-4.2,3
				C300,126.9,302.9,126.9,306,126.9z"/>
			<path class="st3" d="M258.4,130.5c0.2,1.9,1.9,3.6,3.8,4c1.4,0.3,2.7,0,3.9-0.9c0.6-0.4,1.1-1,1.6-1.5c0.7-0.7,1.6-0.9,2.6-0.4
				c0.9,0.4,1.4,1.3,1.2,2.3c-0.1,0.4-0.2,0.8-0.5,1c-3.5,3.7-9,4.4-12.9,2c-2.8-1.8-4.8-5-4.2-9.2c0.5-3.6,3.4-6.7,7-7.5
				c2.8-0.6,5.5-0.2,7.9,1.5c2.2,1.5,3.3,3.7,3.4,6.3c0,1.5-0.8,2.4-2.3,2.4c-3.5,0-7,0-10.5,0C259,130.5,258.7,130.5,258.4,130.5z
				 M267.7,126.9c-0.6-1.8-2.9-3.2-4.9-3c-1.9,0.2-3.9,1.7-4,3C261.7,126.9,264.7,126.9,267.7,126.9z"/>
			<path class="st3" d="M244.9,98.8c-0.1,3.4-1.6,6-4.5,7.8c-3.9,2.4-9,1.8-12.3-1.5c-3.5-3.5-3.4-9.1,0.2-12.7
				c4.7-4.6,12.8-3.2,15.6,2.6C244.6,96.2,244.9,97.4,244.9,98.8z M230.2,98.9c0,0.1,0,0.4,0,0.7c0.5,3.6,4.5,5.9,7.8,3.7
				c3-2,3.1-6.6,0.1-8.8c-1.1-0.8-2.2-1.1-3.6-0.9C232,94.1,230.2,96.2,230.2,98.9z"/>
			<path class="st3" d="M277.6,121.3c3.2-1.9,6.4-1.6,9.5,0.2c2.3,1.3,3.5,3.3,3.5,6c0,1.3,0,2.7,0,4c0,1.5,0,2.9,0,4.4
				c0,1.6-0.8,2.5-2.3,2.5c-1.5,0-2.4-1-2.4-2.5c0-2.7,0-5.4,0-8.1c0-0.3,0-0.6,0-0.9c-0.1-1.3-0.8-2.3-2-2.7
				c-1.2-0.4-2.3-0.5-3.5-0.1c-1.3,0.4-1.9,1.3-2.1,2.6c0,0.4,0,0.8,0,1.1c0,2.7,0,5.5,0,8.2c0,1.2-1,2.4-2.4,2.3
				c-1.3,0-2.2-0.9-2.2-2.2c0-1.3,0-2.5,0-3.8c0-3.6,0-7.2,0-10.9c0-1.2,0.5-1.4,1.3-1.4C276,120.2,277,120.5,277.6,121.3z"/>
			<path class="st3" d="M304,108c-1.6-0.1-3.1-0.3-4.5-1c-0.7-0.3-1.3-0.7-2-1.1c-0.3-0.2-0.6-0.6-0.8-1c-0.7-1.3,0.2-2.7,1.6-2.9
				c0.8-0.1,1.4,0.1,2.1,0.5c0.5,0.3,1,0.7,1.5,1c1.3,0.8,2.6,0.9,4.1,0.7c0.1,0,0.2,0,0.3-0.1c0.6-0.2,1.1-0.4,1.2-1.1
				c0.1-0.7-0.3-1.1-0.8-1.4c-0.6-0.3-1.2-0.6-1.9-0.9c-1.2-0.5-2.5-0.9-3.7-1.4c-0.8-0.3-1.6-0.8-2.3-1.3c-2.8-2-2.1-5.1-0.3-6.7
				c1.4-1.2,3-1.7,4.7-1.8c2-0.2,4,0.2,5.8,1c0.6,0.3,1.2,0.7,1.7,1.2c0.6,0.6,0.8,1.4,0.5,2.2c-0.3,0.8-1,1.1-1.9,1.2
				c-0.6,0-1.2-0.1-1.7-0.5c-0.6-0.4-1.2-0.8-1.8-1.1c-0.9-0.5-1.8-0.8-2.9-0.5c-0.6,0.1-1,0.4-1.1,1c-0.1,0.7,0.2,1.2,0.8,1.4
				c0.5,0.3,1.1,0.5,1.6,0.7c1.2,0.4,2.5,0.8,3.6,1.3c0.8,0.3,1.7,0.7,2.4,1.2c2.2,1.5,2.6,4.3,1.1,6.5c-0.6,0.9-1.5,1.5-2.5,1.9
				C307.3,107.9,305.6,108,304,108z"/>
			<path class="st3" d="M341.4,108c-5.5,0.2-10.4-4.3-9.9-9.9c0.3-3.8,2.5-6.4,6-7.7c3.9-1.5,8.5-0.4,11.1,2.7
				c0.6,0.7,0.8,1.6,0.4,2.4c-0.4,0.9-1.2,1.2-2.2,1.2c-0.6,0-1.2-0.3-1.6-0.8c-0.3-0.3-0.5-0.6-0.8-0.8c-2.3-2-5.4-1.8-7.2,0.5
				c-1.8,2.2-1.4,5.6,1,7.3c2,1.5,4.5,1.3,6.3-0.4c0.3-0.3,0.6-0.7,0.9-1c0.7-0.7,1.8-0.8,2.7-0.4c0.8,0.4,1.3,1.2,1.2,2.2
				c-0.1,0.4-0.3,0.9-0.6,1.2c-1.6,1.9-3.7,3-6.3,3.4C342,108,341.7,108,341.4,108z"/>
			<path class="st3" d="M319,89.8c0.5,0,0.8,0,1.2,0.1c0.3,0,0.6,0,1,0c1.1,0.1,1.9,1,1.9,2c0,1-0.8,1.9-1.9,1.9c-0.7,0-1.3,0-2.1,0
				c0,0.4,0,0.8,0,1.1c0,3.9,0,7.7,0,11.6c0,0.2,0,0.5,0,0.7c0,0.5-0.3,0.7-0.7,0.7c-1,0.1-1.9,0-2.8-0.5c-0.7-0.4-1.1-0.9-1.1-1.7
				c0-0.3,0-0.6,0-1c0-5.3,0-10.7,0-16c0-0.3,0-0.5,0-0.8c0.1-1.3,1.1-2.2,2.4-2.1c1.3,0,2.2,1,2.3,2.3C319,88.7,319,89.2,319,89.8z
				"/>
			<path class="st3" d="M343.7,126.2c0-3.3,0-6.5,0-9.8c0-1.1,0.3-1.4,1.4-1.4c2,0,3.2,1.1,3.2,3c0,6,0,12,0,18
				c0,1.5-1.2,2.5-2.7,2.3c-1.1-0.2-1.8-1-1.8-2.2c0-1.6,0-3.3,0-4.9C343.7,129.6,343.7,127.9,343.7,126.2z"/>
			<path class="st3" d="M315.7,121.3c1.3-0.7,2.5-1.2,3.9-1.2c0.6,0,1.2,0.1,1.7,0.5c0.7,0.5,1.1,1.2,0.9,2
				c-0.2,0.8-0.8,1.4-1.7,1.5c-0.2,0-0.5,0-0.7,0c-1.3-0.3-2.6,0.9-2.9,2.2c-0.1,0.4-0.1,0.8-0.1,1.2c0,2.8,0,5.6,0,8.3
				c0,0.5,0,1-0.2,1.4c-0.4,1-1.7,1.5-2.8,1.2c-1-0.2-1.7-1.1-1.7-2.2c0-4.9,0-9.8,0-14.7c0-0.9,0.3-1.2,1.1-1.2
				C314.2,120.2,315,120.6,315.7,121.3z"/>
			<path class="st3" d="M325.1,98.3c0-2.5,0-4.9,0-7.4c0-0.9,0.2-1.2,1.2-1.2c1.9-0.1,3.2,0.9,3.4,3.2c0,0.4,0,0.8,0,1.2
				c0,3.9,0,7.8,0,11.6c0,1.6-1.7,2.8-3.2,2.2c-1-0.4-1.4-1.1-1.4-2.2c0-1.8,0-3.6,0-5.3C325,99.7,325,99,325.1,98.3
				C325,98.3,325,98.3,325.1,98.3z"/>
		</g>
	</g>
</g>
</svg>
