<?xml version="1.0" encoding="utf-8"?>
<!-- Generator: Adobe Illustrator 22.0.1, SVG Export Plug-In . SVG Version: 6.00 Build 0)  -->
<svg version="1.1" xmlns="http://www.w3.org/2000/svg" xmlns:xlink="http://www.w3.org/1999/xlink" x="0px" y="0px"
	 viewBox="0 0 450 220" style="enable-background:new 0 0 450 220;" xml:space="preserve">
<style type="text/css">
	.st0{display:none;}
	.st1{display:inline;fill:#6CD3CE;}
	.st2{opacity:0.19;}
	.st3{fill:none;stroke:#FFFFFF;stroke-width:2.2778;stroke-miterlimit:10;}
	.st4{fill:none;stroke:#FFFFFF;stroke-width:1.7633;stroke-miterlimit:10;}
	.st5{clip-path:url(#SVGID_2_);}
	.st6{fill:#FFFFFF;}
</style>
<g id="BG" class="st0">
	<rect class="st1" width="450" height="220"/>
</g>
<g id="Layer_2">
	<g id="R9N9ae_1_">
		<g>
			<path class="st6" d="M167.1,78.7c0.8,1.3,0.5,1.8-0.9,2c-1.6,0.2-2,0.6-2,2.2c0,6.9,0.1,13.9,0.1,20.8c0,1.8,0.4,2.1,2.2,2.3
				c0.8,0.1,1.5,0.7,2.5,0.4c1-0.3,1.5-0.8,1.8-1.7c1.4-3.7,2.8-7.4,4.2-11.1c0.7-1.8,1.2-3.6,1.8-5.4c0.1-0.2,0.3-0.3,0.5-0.5
				c0.4-0.3,0.8-0.5,1.2-0.8c1-0.8,1.3-0.8,1.7,0.5c1.7,4.7,3.3,9.5,5,14.2c0.3,0.7,0.6,1.4,0.7,2.2c0.3,1.8,1.6,2.3,3,2.7
				c1.1,0.3,2.7-0.9,2.7-2c0-4.7,0-9.5,0-14.2c0-1.1-0.3-1.9-1.6-1.9c-0.3,0-0.5-0.4-0.8-0.7c0.2-0.3,0.5-0.7,0.7-0.7
				c3.7-0.3,7.3-0.7,11,0.1c3.8,0.8,5.8,4.3,4.2,7.5c-0.6,1.2-1.9,2.1-3.1,3.5c1.5,2.2,3.3,4.7,5.1,7.2c0.4,0.6,1.3,0.7,1.9,1.2
				c0.3,0.2,0.4,0.5,0.7,0.7c-0.3,0.2-0.5,0.5-0.8,0.6c-3.2,0.5-5.8-0.4-7.6-3.2c-1-1.5-1.9-3.1-2.8-4.6c-0.2-0.3-0.4-0.8-0.7-1
				c-0.5-0.2-1-0.4-1.5-0.3c-0.1,0-0.3,0.7-0.4,1.1c0,1.6,0.1,3.2,0.1,4.8c0,1,0.4,1.6,1.5,1.6c0.6,0,1.1,0.1,1,0.9
				c-0.1,0.8-0.6,0.7-1.1,0.7c-2.2,0-4.5,0-6.7,0c-3,0-6.1,0-9.1,0.1c-0.5,0-1.1,0-1-0.6c0-0.3,0.5-0.8,0.8-0.8
				c0.8-0.1,1-0.4,0.7-1.2c-0.5-1.4-1-2.9-1.5-4.2c-0.1-0.3-0.6-0.7-0.9-0.7c-1.4-0.1-2.7,0-4.1,0c-0.3,0-0.7,0.3-0.8,0.6
				c-0.5,1.3-0.9,2.7-1.4,4.1c-0.3,0.9-0.2,1.3,0.8,1.4c0.2,0,0.5,0,0.6,0.2c0.2,0.2,0.4,0.6,0.3,0.8c0,0.2-0.4,0.5-0.6,0.5
				c-2.2,0-4.4-0.1-6.5-0.2c-0.5,0-0.9,0.2-1.4,0.2c-3.4,0-6.8,0.1-10.1,0.1c-0.6,0-1.2,0-1.3-0.8c-0.1-0.9,0.5-1,1.2-1.1
				c2-0.3,2.3-0.6,2.3-2.6c0-2.8,0-5.6,0-8.4c0-0.7-0.2-1-1-1c-4.1,0-8.2,0.1-12.2,0.1c-0.7,0-1,0.3-1,1.1c0.1,2.6,0,5.3,0.1,7.9
				c0,2.4,0.3,2.7,2.7,3c0.6,0.1,1.3,0.2,1.2,1c0,0.3-0.5,0.9-0.8,0.9c-3.7,0.1-7.3,0.1-11,0.1c-0.3,0-0.7-0.4-0.7-0.7
				c0-0.3,0.2-0.8,0.5-1c0.7-0.4,1.8-0.4,2.1-0.9c0.4-0.8,0.5-2,0.5-3c0-3.5-0.1-7,0-10.5c0-0.5,0.3-1.1,0.6-1.5
				c1.5-1.6,3.1-3.2,4.9-5c0,1.7,0,3.2,0,4.6c0,1.5,0,1.5,1.5,1.5c3.8,0,7.6-0.1,11.4-0.1c1,0,1.3-0.3,1.3-1.4
				c-0.1-2.4,0-4.8-0.1-7.3c-0.1-1.7-0.4-2-2.2-2.3c-1.4-0.2-1.7-0.7-0.9-2c0.7,0,1.3,0,2,0c2.6,0,5.1,0,7.7-0.1
				C165.8,78.7,166.5,78.7,167.1,78.7z M201.3,92.9c0-2.8-1.8-4.6-4.5-4.4c-0.6,0-0.9,0.2-0.9,0.9c0,2.2,0,4.5,0.1,6.7
				c0,0.3,0.5,0.7,0.7,0.8C199.6,97.2,201.3,95.8,201.3,92.9z M179.8,98.3c-0.7-1.9-1.3-3.7-2-5.6c-0.1,0-0.2,0-0.2,0
				c-0.6,1.8-1.3,3.6-2,5.5C177.1,98.3,178.3,98.3,179.8,98.3z"/>
			<path class="st6" d="M147.5,78.9c0.4,1.7,0.4,1.8-1.4,2.1c-1.1,0.2-1.6,0.9-1.7,2c0,0.4-0.1,0.8-0.4,1.1
				c-1.6,1.7-3.2,3.4-4.8,5.1c-0.1,0-0.2-0.1-0.3-0.1c0-0.8,0-1.6,0-2.4c0-1.2,0-2.5-0.1-3.7c-0.1-1.4-0.5-1.7-1.9-1.8
				c-1.7-0.1-1.9-0.4-1.3-2C139.6,78.9,143.5,78.9,147.5,78.9z"/>
			<path class="st6" d="M125,149.7c0.2-0.4,0.4-0.8,0.7-1.1c4.3-4.3,8.6-8.6,12.8-13c0.4-0.4,0.7-1.2,0.7-1.8
				c0.2-1.9,0.3-3.8,1.6-5.4c1.2-1.5,2.9-2.1,4.7-2.4c1.2-0.2,2.3-0.3,3.7-0.4c0.3,1.6,0.8,3.1,1,4.7c1,9.2-5.1,18-14.1,20.3
				c-12.4,3.2-24.3-6.4-23.7-19.2c0.1-1.6,0.5-3.2,0.8-4.8c0.1-0.2,0.5-0.6,0.7-0.6c1.8,0.1,3.6,0.1,5.4,0.4
				c2.5,0.4,4.1,1.9,4.4,4.5c0.3,1.9,0.5,3.7,0.5,5.6c0.1,4.1,0.1,8.2,0.1,12.2c0,0.2,0,0.4,0.1,0.6
				C124.7,149.4,124.8,149.5,125,149.7z"/>
			<path class="st6" d="M244,97.6c1.7,2.5,3.4,5,5.2,7.4c0.9,1.2,3,1.4,4.3,0.7c0.2-0.1,0.4-0.4,0.5-0.7c0.1-0.5,0.2-1,0.2-1.5
				c0-4.3-0.1-8.7-0.1-13c0-0.3,0-0.6,0-0.9c0-1-0.4-1.6-1.6-1.7c-0.3,0-0.5-0.5-0.8-0.8c0.3-0.2,0.6-0.6,0.9-0.6
				c4.5-0.1,9.1-0.1,13.8-0.1c0.2,1.5,0.4,3,0.5,4.5c0,0.2-0.4,0.5-0.5,0.5c-0.3,0-0.9-0.2-1-0.4c-0.5-2.6-2.5-2.7-4.5-2.6
				c0,0-0.1,0-0.1,0c-2.6,0-2.6,0-2.6,2.7c0,1.5,0,2.9,0,4.5c1.4,0,2.8,0,4.2-0.1c0.3,0,0.6-0.5,0.8-0.8c0.2-0.3,0.1-0.8,0.3-1
				c0.2-0.3,0.6-0.6,0.9-0.6c0.2,0,0.6,0.5,0.6,0.8c0.1,1.8,0.1,3.7,0,5.5c0,0.3-0.4,0.8-0.6,0.8c-0.3,0-0.8-0.3-0.9-0.6
				c-0.7-2-0.6-2-2.7-2c-0.8,0-1.6,0-2.4,0c0,2.3,0,4.6,0.1,6.8c0,0.4,0.7,1,1.1,1c1.7,0.1,3.4,0.1,5-0.1c1.1-0.1,1.8-0.9,2.3-1.9
				c0.1-0.3,0.2-0.7,0.4-0.9c0.3-0.2,0.7-0.5,1-0.4c0.2,0.1,0.5,0.6,0.5,0.9c-0.1,0.9-0.4,1.7-0.6,2.6c1.2,0.2,1.7-0.5,2-1.4
				c1.2-3.1,2.4-6.3,3.6-9.5c0.9-2.4,1.7-4.8,2.5-7.2c0.1-0.2,0.3-0.3,0.4-0.4c0.3-0.2,0.6-0.3,0.8-0.5c1.7-1.3,1.7-1.2,2.3,0.7
				c1.9,5.5,3.8,10.9,5.7,16.4c0.4,1,0.9,1.7,2.1,1.9c0.3,0.1,0.6,0.6,0.9,0.9c-0.3,0.2-0.7,0.5-1,0.6c-2.2,0.1-4.3,0.1-6.5,0.1
				c-0.5,0-1.1,0.1-1.1-0.7c0-0.7,0.4-0.8,1-0.9c0.7,0,0.8-0.5,0.6-1.1c-0.5-1.5-1-2.9-1.6-4.3c-0.1-0.3-0.7-0.7-1.1-0.7
				c-1.2-0.1-2.5,0-3.7,0c-0.6,0-0.9,0.2-1.1,0.8c-0.4,1.3-0.8,2.7-1.3,4c-0.3,0.9-0.1,1.3,0.8,1.4c0.1,0,0.2,0,0.2,0
				c0.3,0.3,0.5,0.6,0.8,0.8c-0.3,0.2-0.6,0.6-0.9,0.6c-3.2,0.1-6.5,0-9.7,0.1c-4.7,0.1-9.3,0.1-14,0.3c-2.8,0.1-5-0.9-6.6-3.2
				c-1.1-1.5-2-3.2-2.9-4.8c-0.2-0.3-0.3-0.6-0.5-0.7c-0.5-0.2-1.1-0.4-1.7-0.4c-0.1,0-0.3,0.7-0.3,1.1c0,1.5,0,3.1,0,4.6
				c0,1.1,0.4,1.9,1.7,1.8c0.6,0,1,0.3,0.8,0.8c-0.1,0.3-0.6,0.6-0.9,0.6c-2.4,0.1-4.8,0.1-7.2,0.1c-0.4,0-0.7-0.4-1.1-0.6
				c0.3-0.3,0.6-0.8,0.9-0.8c1.2-0.1,1.6-0.7,1.6-1.8c0-4.8-0.1-9.7-0.1-14.5c0-1-0.4-1.4-1.4-1.5c-0.5,0-1.2-0.1-1-0.8
				c0.1-0.3,0.7-0.7,1.1-0.7c3.6-0.2,7.2-0.7,10.8,0.1c2,0.5,3.6,1.6,4.3,3.7c0.6,2,0.2,3.8-1.3,5.3C245.7,96.5,244.9,96.9,244,97.6
				z M238,92.4C238,92.4,238,92.4,238,92.4c0,1.1,0,2.2,0,3.3c0,0.3,0.3,0.8,0.5,0.8c1.4,0.1,2.7,0.1,3.8-0.9
				c1.1-1.1,1.4-3.6,0.5-5.3c-0.7-1.5-2.3-2.3-4-2.1c-0.6,0.1-0.9,0.3-0.8,0.9C238,90.2,238,91.3,238,92.4z M277.3,92.1
				c-0.1,0-0.2,0-0.3,0c-0.6,1.8-1.3,3.6-1.9,5.5c1.5,0,2.7,0,4.2,0C278.6,95.6,278,93.9,277.3,92.1z"/>
			<path class="st6" d="M332.7,132.2c0-3.9,0-7.3-0.1-10.8c0-1.2-0.6-1.8-1.8-1.9c-0.6,0-1.1-0.3-0.9-0.9c0.1-0.3,0.7-0.5,1.1-0.6
				c1.8-0.1,3.7-0.1,5.5,0c0.4,0,0.7,0.4,1.1,0.6c-0.3,0.3-0.5,0.9-0.8,0.9c-1.5,0.2-1.6,1.2-1.6,2.3c0,5.2,0,10.4,0,15.6
				c0,0.3,0.1,0.6,0,0.9c-0.1,0.4-0.3,1-0.6,1.1c-0.4,0.1-1-0.1-1.3-0.4c-2.3-2.5-4.5-5-6.7-7.6c-2.2-2.5-4.4-5-6.9-7.7
				c0,0.6-0.1,0.9-0.1,1.3c0,3.2,0.1,6.3,0.2,9.5c0,0.5,0.1,1,0.2,1.5c0.1,1,0.7,1.5,1.6,1.6c0.6,0.1,1.2,0.2,1,0.9
				c-0.1,0.3-0.7,0.6-1.2,0.6c-1.8,0.1-3.6,0-5.4,0.1c-0.5,0-1.1,0.1-1-0.6c0-0.3,0.5-0.8,0.8-0.9c1.2-0.2,1.5-0.9,1.5-1.9
				c0-4.6,0-9.2-0.1-13.8c0-1.2-0.7-1.9-1.8-2.2c-1.1-0.3-1.9,0.2-2.4,1.1c-1.2,2.5-2.4,5-3.5,7.5c-1.5,3.4-2.8,6.8-4.2,10.2
				c-0.2,0.5-0.4,1.3-1.1,1.1c-0.4-0.1-0.9-0.7-1.1-1.1c-1.1-2.3-2.1-4.6-3.2-6.9c-0.1,0-0.2,0-0.3,0c-1,2.3-2,4.6-3.1,6.9
				c-0.2,0.6-0.4,1.4-1.2,1.1c-0.4-0.1-0.9-0.7-1.1-1.2c-2.7-5.7-5.4-11.4-8.1-17.1c-0.4-0.9-1.2-1.3-2.1-1.6
				c-0.3-0.1-0.6-0.6-0.8-0.9c0.3-0.2,0.7-0.6,1-0.6c2.1-0.1,4.2-0.1,6.3-0.1c0.4,0,0.7,0.4,1.1,0.6c-0.3,0.3-0.5,0.8-0.8,0.9
				c-0.5,0.2-0.8,0.4-0.5,1c2,4.3,4,8.6,6,12.9c0.1,0,0.2,0,0.3,0c0.7-1.5,1.4-3.1,2-4.7c0.1-0.3-0.2-0.8-0.3-1.1
				c-1-2.1-2-4.1-2.9-6.2c-0.5-1.1-1.1-1.9-2.3-2.1c-0.3,0-0.6-0.5-0.6-0.8c0-0.2,0.5-0.6,0.7-0.6c2.1-0.1,4.3-0.1,6.4,0
				c0.3,0,0.7,0.4,0.7,0.6c0,0.2-0.3,0.8-0.5,0.8c-1.2,0.2-0.9,0.8-0.6,1.5c0.6,1.2,1.1,2.3,1.8,3.8c0.7-1.6,1.2-3,1.7-4.3
				c0.3-0.6-0.2-0.7-0.6-0.9c-0.3-0.2-0.6-0.6-0.8-0.9c0.4-0.2,0.7-0.5,1.1-0.5c1.5-0.1,3-0.1,4.5,0c0.3,0,0.7,0.4,1,0.6
				c-0.2,0.3-0.4,0.8-0.7,0.8c-1.1,0.2-1.8,0.9-2.3,1.9c-0.8,1.6-1.6,3.2-2.3,4.7c-0.2,0.3-0.3,0.8-0.2,1.1c0.9,2,1.8,4.1,2.9,6.4
				c1.9-4.8,3.7-9.2,5.6-13.7c-0.5-0.2-0.9-0.2-1.1-0.4c-0.3-0.3-0.5-0.7-0.8-1c0.3-0.2,0.6-0.5,1-0.5c2.9,0,5.8,0.1,8.7,0
				c1.5-0.1,2.2,0.4,3.2,1.6C325.2,123.9,328.9,127.9,332.7,132.2z"/>
			<path class="st6" d="M311.6,94.9c1.3,0,2.5,0,3.6,0c0.9,0,1.4-0.4,1.5-1.4c0-0.3,0-0.6,0.2-0.7c0.3-0.2,0.7-0.4,1-0.4
				c0.2,0,0.5,0.4,0.5,0.7c0,1.8,0.1,3.7,0,5.5c0,0.3-0.4,0.6-0.7,0.9c-0.3-0.2-0.9-0.5-0.9-0.7c-0.2-2.2-1.1-1.9-2.6-1.9
				c-0.8,0-1.7,0-2.5,0c0,2.3,0,4.4,0.1,6.6c0,0.9,0.6,1.3,1.5,1.4c1.4,0,2.9,0.1,4.3,0c1.2-0.1,2.1-0.7,2.7-1.9
				c0.2-0.3,0.3-0.7,0.5-1c0.3-0.2,0.7-0.5,1-0.4c0.2,0.1,0.6,0.6,0.5,0.9c-0.3,1.3-0.6,2.6-1.1,3.8c-0.1,0.2-0.5,0.5-0.8,0.5
				c-4.9,0.1-9.8,0.1-14.8,0.1c-0.3,0-0.7-0.4-1-0.7c0.3-0.3,0.6-0.7,1-0.8c1.8-0.3,2-0.4,2-2.2c0-4.6,0-9.1-0.1-13.7
				c0-0.8,0.2-1.8-1-2.2c-1.4-0.4-2.9,0.1-3.5,1.2c-1.1,2.2-2.2,4.5-3.2,6.8c-1.6,3.6-3,7.3-4.6,11c-0.2,0.4-0.7,0.9-1,0.9
				c-0.3,0-0.8-0.5-1-0.9c-2.4-5.7-4.8-11.5-7.2-17.3c-0.4-0.9-1-1.5-2-1.7c-0.3-0.1-0.6-0.6-0.8-0.9c0.3-0.2,0.7-0.6,1-0.6
				c2.2-0.1,4.4-0.1,6.6,0c0.4,0,0.7,0.4,1.1,0.6c-0.3,0.3-0.5,0.7-0.8,0.9c-0.2,0.2-0.6,0.2-1.1,0.4c1.7,4.2,3.4,8.3,5.1,12.4
				c0.1,0,0.2,0,0.3,0c0.6-1.3,1.2-2.7,1.7-4.1c1-2.5,2-5,3-7.5c0.3-0.8,0.3-1.3-0.7-1.4c-0.6-0.1-1.1-0.4-0.8-1
				c0.1-0.3,0.7-0.6,1.1-0.6c6.4-0.1,12.8-0.1,19.3-0.1c0.7,0,0.9,0.2,1,0.8c0.1,1.1,0.3,2.3,0.4,3.4c0,0.2-0.2,0.6-0.4,0.7
				c-0.3,0.1-0.7-0.1-1-0.2c-0.1,0-0.1-0.2-0.1-0.3c-0.4-2.2-2-2.6-3.9-2.5c-0.8,0-1.7,0-2.5,0.1c-0.3,0-0.7,0.4-0.7,0.7
				C311.5,90.5,311.6,92.6,311.6,94.9z"/>
			<path class="st6" d="M166.2,140.2c-3.3,0-6.5,0-9.8,0.1c-0.6,0-1.1,0-1.2-0.8c-0.1-0.8,0.4-1,1-1.1c2.8-0.6,2.8-0.6,2.8-3.5
				c0-6.2-0.1-12.3-0.1-18.5c0-0.2,0-0.4,0-0.7c-0.2-2.3-0.4-2.5-2.7-2.8c-0.7-0.1-1.2-0.3-1.2-1c0-0.8,0.6-0.9,1.2-0.9
				c3.6,0,7.1,0,10.7-0.1c0.6,0,1,0.2,1.1,0.8c0.1,0.6-0.2,0.9-0.8,1.1c-2.6,0.6-2.7,0.7-2.7,3.3c0,5.8,0,11.7,0.1,17.5
				c0.1,3.6,0.6,4,4.2,4.1c1.1,0,2.3,0,3.4,0c1.7,0,3-0.8,3.7-2.3c0.3-0.6,0.6-1.2,0.9-1.8c0.3-0.7,0.9-0.8,1.4-0.5
				c0.3,0.2,0.5,0.8,0.5,1.1c-0.4,1.7-0.9,3.4-1.4,5.1c-0.2,0.6-0.5,0.8-1.2,0.8C172.8,140.2,169.5,140.2,166.2,140.2L166.2,140.2z"
				/>
			<path class="st6" d="M273.7,139.6c-3.4-0.2-6.5-0.9-9-3.2c-4.5-4-4.6-11.2-0.2-15.4c4-3.9,12-4.6,16.6-1.5
				c3.7,2.5,5.2,6.1,4.6,10.5c-0.6,4.5-3.4,7.3-7.6,8.7C276.7,139.2,275.2,139.3,273.7,139.6z M280.8,129.9
				c-0.1-3.5-0.7-6.1-2.5-8.2c-2.9-3.4-8.3-2.9-10.6,0.9c-2.2,3.8-1.3,10.2,1.7,13.3c3.1,3.2,9,2,10.5-2.1
				C280.4,132.3,280.6,130.7,280.8,129.9z"/>
			<path class="st6" d="M243.9,139.5c-1.7,0-3.5,0.1-5.2,0c-0.4,0-0.9-0.3-1-0.6c-0.2-0.7,0.4-0.9,0.9-0.9c1.1,0,1.5-0.7,1.5-1.6
				c0-5-0.1-9.9-0.1-14.9c0-0.8-0.4-1.2-1.2-1.3c-0.5,0-1.2-0.1-1-0.8c0.1-0.3,0.7-0.7,1.1-0.7c3.9,0,7.9-0.3,11.8,0.1
				c4.7,0.4,7.9,3.5,8.9,7.7c1.4,5.9-2.5,11.6-8.8,12.6c-2.3,0.4-4.6,0.4-6.9,0.6C243.9,139.6,243.9,139.5,243.9,139.5z M244.2,128
				c0.1,0,0.1,0,0.2,0c0,2.6,0,5.1,0.1,7.7c0,1,0.7,1.8,1.7,1.9c2.5,0.4,5.6-0.1,7.4-2.6c1.4-2,1.7-4.3,1.6-6.6
				c-0.3-5.7-3.9-8.8-9.5-8.1c-1,0.1-1.4,0.4-1.4,1.5C244.2,123.8,244.2,125.9,244.2,128z"/>
			<path class="st6" d="M147.3,122.1c-10.7,0.1-21.2,0.2-31.8,0.2c1-3.1,6.8-8.3,13.8-9C137,112.5,144.1,116.6,147.3,122.1z"/>
			<path class="st6" d="M204.2,124.9c0,1.1,0,2.2,0,3.4c0.1,2.6,0.1,5.3,0.2,7.9c0.1,1.8,0.2,1.9,2,2.3c0.3,0.1,0.5,0.5,0.8,0.8
				c-0.3,0.2-0.6,0.6-0.9,0.6c-2,0.1-4,0.1-5.9,0.1c-0.3,0-0.6-0.4-0.8-0.6c0.2-0.3,0.4-0.8,0.7-0.8c1.4-0.1,1.7-1,1.7-2.2
				c0-4.5,0-9,0-13.5c0-1.3-0.7-1.8-2.2-2.3c-0.5-0.1-1.2-0.2-1.1-1c0.1-0.8,0.8-0.6,1.3-0.6c1.5,0,2.9,0,4.4,0
				c0.3,0,0.7,0.1,0.9,0.3c2.7,3.2,5.4,6.4,8.1,9.5c1.1,1.3,2.3,2.5,3.4,3.7c0.1,0.1,0.2,0.1,0.5,0.3c0-0.4,0.1-0.7,0.1-1
				c-0.1-3.1-0.1-6.2-0.3-9.2c-0.1-1.7-0.4-1.8-2-2.3c-0.3-0.1-0.8-0.5-0.8-0.8c-0.1-0.6,0.5-0.7,1-0.7c1.9,0,3.9,0,5.8,0
				c0.3,0,0.6,0.4,0.9,0.6c-0.2,0.3-0.4,0.8-0.6,0.9c-1.7,0.1-1.9,1.3-1.9,2.7c0,5.3,0,10.6,0.1,15.9c0,0.6,0.2,1.4-0.7,1.5
				c-0.4,0-1.1-0.3-1.4-0.7c-4.2-4.7-8.4-9.4-12.6-14.1c-0.2-0.2-0.4-0.5-0.5-0.7C204.5,124.8,204.4,124.8,204.2,124.9z"/>
			<path class="st6" d="M227.8,87c0.2,1.6,0.4,3.2,0.4,4.7c0,0.3-0.4,0.8-0.6,0.8c-0.3,0-0.8-0.3-0.9-0.7c-0.5-1.4-1.2-2.5-2.5-3.2
				c-3.7-1.9-8.6-0.1-10,3.9c-1.3,3.5-1.1,6.9,0.7,10.2c1.5,2.7,4.9,4.1,7.9,3.4c0.9-0.2,1.4-0.6,1.3-1.6c-0.1-0.8-0.1-1.7,0-2.5
				c0.1-1-0.4-1.5-1.4-1.6c-0.5-0.1-1-0.1-1.4-0.3c-0.3-0.1-0.6-0.5-0.5-0.8c0-0.2,0.4-0.6,0.7-0.6c2.7-0.1,5.4-0.1,8-0.1
				c0.3,0,0.7,0.4,0.7,0.6c0,0.3-0.3,0.8-0.5,0.8c-1.5,0.1-1.5,1.1-1.5,2.2c0.1,1.3-0.3,2.7,0.7,3.9c0.1,0.1-0.2,0.7-0.4,0.7
				c-3.9,0.8-7.8,1.7-11.9,0.7c-4.8-1.3-7.7-4.6-8.1-9.7c-0.3-4.4,2.4-8.8,6.6-10.5c3.3-1.4,6.8-1.5,10.3-0.8
				C226.2,86.7,226.9,86.8,227.8,87z"/>
			<path class="st6" d="M195.1,140c-1.1,0-2.3,0.1-3.4,0c-0.3,0-0.6-0.4-1-0.6c0.3-0.3,0.5-0.8,0.9-0.8c0.8-0.1,1-0.4,0.7-1.2
				c-0.5-1.4-1-2.9-1.5-4.2c-0.1-0.3-0.6-0.7-0.9-0.7c-1.4-0.1-2.7-0.1-4.1,0c-0.3,0-0.7,0.3-0.8,0.6c-0.5,1.4-1,2.8-1.5,4.3
				c-0.3,0.7,0,1.1,0.8,1.2c0.6,0,1.2,0.1,1.1,0.9c-0.1,0.3-0.7,0.6-1.1,0.6c-1.7,0.1-3.4,0.1-5.1,0c-0.3,0-0.6-0.4-1-0.6
				c0.3-0.3,0.5-0.8,0.8-0.8c1.2-0.1,1.8-0.8,2.2-1.9c1.9-5.1,4-10.1,5.7-15.3c0.5-1.5,1.6-1.9,2.5-2.7c0.6-0.5,1,0.1,1.2,0.7
				c0.7,2.1,1.4,4.2,2.1,6.2c1.3,3.7,2.6,7.3,3.9,11c0.3,1,0.9,1.6,2,1.8c0.3,0.1,0.8,0.5,0.8,0.9c0.1,0.7-0.5,0.6-1,0.6
				C197.2,140,196.1,140,195.1,140z M188,124.9c-0.1,0-0.2,0-0.3,0c-0.6,1.8-1.3,3.6-1.9,5.5c1.4,0,2.7,0,4.1,0
				C189.2,128.5,188.6,126.7,188,124.9z"/>
			<path class="st6" d="M331.2,85.1c1,0.2,2.3,0.3,3.5,0.6c0.3,0.1,0.7,0.4,0.8,0.7c0.3,1.1,0.4,2.2,0.5,3.4c0,0.3-0.4,0.8-0.6,0.8
				c-0.3,0-0.8-0.3-1-0.6c-0.6-0.8-1-1.8-1.7-2.4c-1.3-1.2-3.7-0.9-4.7,0.3c-1.1,1.3-0.8,3.2,0.7,4.5c0.4,0.4,0.9,0.6,1.4,0.9
				c1,0.6,2,1,3,1.6c2,1.3,3.3,3,3.4,5.5c0.2,3.1-1.7,5.5-4.9,6.3c-2.3,0.6-4.6,0.5-6.8-0.6c-0.6-0.3-1.2-1-1.4-1.6
				c-0.4-1-0.4-2.1-0.5-3.2c0-0.3,0.4-0.7,0.6-1c0.3,0.2,0.7,0.4,1,0.7c0.9,1.2,1.7,2.4,2.7,3.5c0.3,0.4,0.9,0.5,1.4,0.6
				c1.7,0.4,3.3-0.3,3.9-1.6c0.7-1.4,0.2-3.4-1.2-4.5c-0.8-0.7-1.8-1.1-2.7-1.7c-1-0.7-2-1.3-2.8-2.1c-1.8-1.6-2.4-3.7-1.7-6
				c0.7-2.4,2.6-3.6,4.9-4C329.6,85.2,330.3,85.2,331.2,85.1z"/>
			<path class="st6" d="M230.5,118.1c0.7,0.1,1.5,0.2,2.3,0.3c2,0.3,2.2,0.5,2.4,2.5c0.1,0.6,0.2,1.2,0.1,1.8c0,0.3-0.4,0.7-0.6,1
				c-0.3-0.2-0.8-0.3-1-0.6c-0.5-0.6-0.7-1.4-1.3-2c-1-1.2-3-1.4-4.4-0.6c-1.5,0.8-1.9,2.9-0.7,4.3c0.7,0.8,1.7,1.4,2.6,2
				c0.8,0.5,1.8,0.9,2.6,1.5c2.7,1.9,3.9,4.5,3.1,7.3c-0.8,3-3.1,4.2-6,4.6c-2,0.3-3.9,0.1-5.7-0.9c-0.5-0.3-1.1-0.9-1.3-1.5
				c-0.3-1-0.4-2-0.6-3c-0.1-0.5-0.1-1.3,0.6-1.3c0.4,0,0.8,0.5,1.1,0.8c0.7,0.9,1.2,2.1,2,2.8c0.7,0.6,1.7,1.1,2.6,1.2
				c1.3,0.2,2.6-0.3,3.2-1.6c0.7-1.4,0.4-2.8-0.6-3.9c-0.8-0.8-1.9-1.4-2.8-2.1c-1.2-0.9-2.6-1.6-3.6-2.7c-1.6-1.7-2-3.7-1.2-5.9
				c0.8-2.3,2.7-3.3,4.9-3.7C229.2,118.2,229.8,118.1,230.5,118.1z"/>
		</g>
	</g>
</g>
</svg>
