<?xml version="1.0" encoding="utf-8"?>
<!-- Generator: Adobe Illustrator 22.0.1, SVG Export Plug-In . SVG Version: 6.00 Build 0)  -->
<svg version="1.1" xmlns="http://www.w3.org/2000/svg" xmlns:xlink="http://www.w3.org/1999/xlink" x="0px" y="0px"
	 viewBox="0 0 450 220" style="enable-background:new 0 0 450 220;" xml:space="preserve">
<style type="text/css">
	.st0{display:none;}
	.st1{display:inline;fill:#6CD3CE;}
	.st2{opacity:0.19;}
	.st3{fill:none;stroke:#FFFFFF;stroke-width:2.2778;stroke-miterlimit:10;}
	.st4{fill:none;stroke:#FFFFFF;stroke-width:1.7633;stroke-miterlimit:10;}
	.st5{clip-path:url(#SVGID_2_);}
	.st6{fill:#FFFFFF;}
</style>
<g id="BG" class="st0">
	<rect class="st1" width="450" height="220"/>
</g>
<g id="Layer_2">
	<g id="RgAwro_1_">
		<g>
			<path class="st6" d="M138.2,111.1c-0.6,0.6-1.1,1.2-1.7,1.8c-0.4,0.5-0.8,0.9-1.2,1.4c-0.3,0.4-0.5,0.8-0.7,1.3
				c-0.1,0.2-0.2,0.4-0.3,0.6c-0.2,0.6-0.5,1.2-0.7,1.8c-0.1,0.2-0.1,0.5-0.1,0.8c0.1,0,0.1,0.1,0.2,0.1c1.3,0.1,2.6,0.2,3.9,0.1
				c3.1-0.2,6-1,8.8-2.4c2.4-1.2,4.5-2.6,6.7-4.1c1.4-0.9,2.9-1.9,4.4-2.6c1.2-0.6,2.5-1.1,3.9-1.4c1.7-0.3,3.4-0.3,5.1,0.1
				c0,0,0.1,0,0.2,0.1c0,0.2,0,0.4,0,0.7c0,1,0,2.1,0,3.1c-0.1,1.4-0.3,2.8-0.6,4.2c-0.7,3-1.8,5.9-3.5,8.5
				c-2.2,3.5-5.1,6.3-8.8,8.1c-1.8,0.8-3.6,1.4-5.5,1.6c-0.4,0-0.7,0.1-1.1,0.1c-2.3-0.1-4.6-0.6-6.7-1.5c-3.3-1.5-6-3.8-8.1-6.6
				c-2-2.6-3.4-5.5-4.3-8.6c-0.3-1.2-0.6-2.5-0.8-3.7c-0.2-1.6-0.3-3.2-0.3-4.7c0,0,0-0.1,0-0.1c0-0.6,0-0.6,0.6-0.7
				c2-0.5,4-0.4,6,0.2C135.2,109.5,136.7,110.2,138.2,111.1C138.2,111.1,138.2,111.1,138.2,111.1z"/>
			<path class="st6" d="M166.3,104.7c-1.9,1-3.9,1.8-5.9,2.3c-2.6,0.6-5.2,0.4-7.7-0.7c-0.1,0-0.2-0.1-0.3-0.2
				c0.1-0.1,0.2-0.2,0.3-0.2c1.1-0.3,2-1,3-1.7c0.5-0.3,0.9-0.7,1.3-1.1c0.4-0.4,0.8-0.9,1.2-1.4c0.5-0.8,1.1-1.5,1.4-2.4
				c0.2-0.6,0.4-1.2,0.6-1.8c0-0.1,0-0.3,0.1-0.5c-0.4,0.1-0.7,0.1-1,0.1c-2.4,0.5-4.7,1.3-6.9,2.5c-1.5,0.8-3,1.7-4.4,2.6
				c-1.9,1.2-3.8,2.4-5.7,3.5c-1.5,0.9-3.1,1.4-4.7,1.6c-1.6,0.2-3.2,0.1-4.8-0.3c-1.8-0.5-3.6-1.2-5.3-2c0.1-0.5,0.1-0.9,0.2-1.4
				c0.4-2.2,1.1-4.2,1.8-6.3c1-2.6,2.2-5.1,3.8-7.4c1.6-2.4,3.5-4.5,5.9-6.2c1.8-1.3,3.7-2.2,5.9-2.6c1.5-0.3,3.1-0.2,4.6,0.3
				c2,0.6,3.8,1.6,5.5,2.9c2.6,2.1,4.6,4.6,6.4,7.4c0.9,1.5,1.7,3,2.3,4.6c0.6,1.5,1.1,3.1,1.6,4.7
				C165.7,102.1,166,103.4,166.3,104.7z"/>
			<path class="st6" d="M212.9,96.5c0.4,0,0.8,0,1.3,0c0.8,0,1.6,0,2.3,0c0.3,0,0.5,0.1,0.7,0.4c2,3.1,4,6.2,6.1,9.3
				c0.1,0.2,0.2,0.3,0.4,0.5c2.2-3.4,4.3-6.9,6.5-10.3c1.4,0,2.7,0,4.1,0c0.1,0.4,0.3,20.8,0.2,21.7c-0.4,0.1-3.3,0.1-3.8,0
				c0-5.1-0.1-10.3-0.1-15.4c0,0,0,0-0.1,0c-2.2,3.4-4.5,6.8-6.8,10.3c-0.5-0.6-0.8-1.2-1.2-1.7c-0.4-0.6-0.8-1.1-1.1-1.7
				c-0.4-0.6-0.8-1.1-1.1-1.7c-0.4-0.5-0.7-1.1-1.1-1.6c-0.4-0.6-0.8-1.1-1.1-1.7c-0.4-0.6-0.8-1.1-1.2-1.8c0,5.2,0.1,10.3,0.1,15.4
				c-0.4,0.1-3,0.2-3.7,0.1C213,117.9,212.8,97.5,212.9,96.5z"/>
			<path class="st6" d="M237.7,96.3c5.4,0,10.7-0.1,16.1-0.1c0,1.1,0,2.3,0,3.4c-2,0-4.1,0-6.1,0c-2,0-4.1,0-6.1,0
				c0,1.9,0,3.7,0,5.5c0,0,0,0,0,0c0,0,0,0,0,0c0,0,0.1,0,0.1,0c0,0,0.1,0,0.1,0c3.5,0,7,0,10.5-0.1c0,0,0,0,0,0
				c0.1,0.4,0.1,2.8,0,3.4c-3.6,0-7.2,0.1-10.9,0.1c0,2,0,3.9,0,5.8c4.1,0,8.3-0.1,12.4-0.1c0,1.2,0,2.3,0,3.4
				c-5.4,0-10.8,0.1-16.2,0.1C237.8,117.7,237.7,97.4,237.7,96.3z"/>
			<path class="st6" d="M298.6,108.5c-3.5,0-6.9,0-10.4,0.1c0,3,0,6.1,0.1,9.1c-0.4,0.1-3.3,0.1-3.9,0.1c-0.1-7.2-0.1-14.5-0.2-21.7
				c1.3,0,2.5,0,3.8,0c0.1,0.6,0,1.2,0,1.8c0,0.6,0,1.2,0,1.8c0,0.6,0,1.2,0,1.8c0,0.6,0,1.2,0,1.8c0,0.6,0,1.2,0,1.8
				c0.4,0.1,9.6,0.1,10.4,0c0-1.5,0-3,0-4.5c0-1.5,0-3,0-4.5c1.3,0,2.5,0,3.8,0c0.1,0.4,0.3,21.1,0.2,21.8c-1.2,0-2.5,0-3.8,0
				c-0.1-0.6,0-1.2,0-1.8c0-0.6,0-1.2,0-1.8c0-0.6,0-1.2,0-1.8c0-0.6,0-1.2,0-1.8C298.6,109.7,298.6,109.1,298.6,108.5z"/>
			<path class="st6" d="M198,96.4c1.2,0,2.4,0,3.6,0c3.2,7.3,6.5,14.5,9.7,21.8c-0.2,0-0.3,0.1-0.4,0.1c-1.1,0-2.1,0-3.2,0
				c-0.3,0-0.5-0.1-0.6-0.4c-0.6-1.4-1.2-2.9-1.8-4.3c-0.1-0.2-0.2-0.4-0.3-0.5c-3.4,0-6.8,0-10.3,0.1c-0.7,1.7-1.5,3.5-2.2,5.2
				c-1.3,0-2.6,0-4,0C191.8,111,194.9,103.7,198,96.4z M199.8,101c-1.2,2.9-2.4,5.8-3.6,8.6c2.5,0,4.9,0,7.4-0.1
				C202.3,106.7,201.1,103.9,199.8,101z"/>
			<path class="st6" d="M326.6,117.4c-1.4,0-2.7,0-4.1,0c-0.7-1.7-1.5-3.5-2.2-5.2c-3.4,0-6.8,0-10.3,0.1c-0.7,1.7-1.4,3.5-2.2,5.2
				c-1.3,0-2.6,0-4,0c3.1-7.3,6.3-14.6,9.4-21.9c0.4-0.1,2.7-0.1,3.6-0.1C320.1,102.8,323.3,110.1,326.6,117.4z M311.4,108.8
				c2.5,0,4.9,0,7.4-0.1c0-0.1,0-0.2,0-0.2c-1.2-2.7-2.4-5.5-3.6-8.2c0,0,0,0,0,0c0,0,0,0-0.1,0C313.8,103.2,312.6,106,311.4,108.8z
				"/>
			<path class="st6" d="M255.6,114.8c0.8-0.9,1.5-1.8,2.3-2.8c0.2,0.2,0.4,0.3,0.6,0.5c1.3,1.1,2.8,1.9,4.5,2.2
				c1.2,0.2,2.3,0.3,3.5-0.1c0.4-0.1,0.7-0.3,1-0.5c1.1-0.7,1.3-1.7,1.1-2.7c-0.1-0.5-0.4-1-0.8-1.2c-0.5-0.3-1-0.6-1.5-0.7
				c-1.1-0.3-2.1-0.6-3.2-0.9c-1.2-0.3-2.5-0.7-3.6-1.3c-1.2-0.6-2.3-1.5-2.7-2.9c-0.7-2.5-0.4-4.7,1.5-6.6c1-1,2.3-1.6,3.7-1.8
				c3.5-0.6,6.7,0.2,9.5,2.3c0.1,0.1,0.2,0.1,0.3,0.2c-0.7,1-1.3,1.9-2,2.9c-0.7-0.4-1.3-0.8-1.9-1.1c-1.3-0.7-2.7-1.1-4.2-1
				c-0.7,0-1.4,0.2-2,0.5c-1.1,0.7-1.5,1.6-1.2,2.9c0.1,0.4,0.4,0.8,0.8,1.1c0.6,0.4,1.2,0.7,1.8,0.9c1.2,0.3,2.4,0.6,3.6,1
				c1.1,0.3,2.2,0.7,3.2,1.3c1.3,0.8,2.3,1.8,2.6,3.3c0.5,2.5,0,4.7-2,6.4c-1,0.9-2.2,1.3-3.5,1.6c-4.1,0.7-7.8-0.4-11-3
				C255.8,114.9,255.7,114.9,255.6,114.8z"/>
			<path class="st6" d="M335,117.4c-1.3,0-2.6,0-3.9,0c0-0.2,0-0.4,0-0.5c0-2.5,0-5.1-0.1-7.6c0-0.3-0.1-0.6-0.3-0.8
				c-2.7-4.1-5.5-8.2-8.2-12.3c-0.1-0.1-0.2-0.2-0.3-0.4c1.5,0,3,0,4.5,0c2,3.1,4.1,6.3,6.1,9.5c0.1-0.2,0.2-0.3,0.3-0.4
				c1.8-2.9,3.7-5.9,5.5-8.8c0.2-0.3,0.4-0.5,0.8-0.4c1.1,0,2.2,0,3.4,0c0.1,0,0.3,0,0.5,0c-0.1,0.2-0.2,0.4-0.3,0.6
				c-1.3,2-2.6,4-3.9,5.9c-1.4,2.1-2.8,4.2-4.1,6.4c-0.1,0.2-0.2,0.4-0.2,0.7c0,2.6,0,5.1,0.1,7.7C335,117,335,117.1,335,117.4z"/>
			<path class="st6" d="M174.2,115.3c0.8-0.9,1.6-1.7,2.5-2.6c0.2,0.3,0.4,0.5,0.7,0.7c0.6,0.6,1.2,1.1,2,1.4
				c0.8,0.3,1.7,0.4,2.6,0.2c1-0.2,1.7-0.8,2.2-1.8c0.3-0.7,0.4-1.5,0.4-2.2c0-4.6-0.1-9.3-0.1-13.9c0-0.2,0-0.4,0-0.6
				c1.3,0,2.6,0,3.9,0c0,0.1,0,0.3,0,0.4c0,4.8,0.1,9.6,0.1,14.4c0,1.3-0.2,2.5-0.8,3.7c-0.8,1.7-2.1,2.8-3.9,3.3
				c-2.4,0.7-4.7,0.5-6.9-0.7c-1-0.6-1.9-1.3-2.6-2.3C174.3,115.4,174.3,115.4,174.2,115.3z"/>
			<path class="st6" d="M275.5,123.6c0.5,0,1,0,1.5,0c0.1,0,0.2,0.1,0.3,0.2c0.6,0.8,1.3,1.6,1.9,2.4c1.1,1.4,2.1,2.7,3.2,4.1
				c0.1,0.1,0.2,0.2,0.2,0.2c0,0,0.1,0,0.1,0c0,0,0,0,0,0c0,0,0-0.1,0-0.1c0-2.2,0-4.4,0-6.6c0,0,0,0,0-0.1c0.2,0,0.5,0,0.7,0
				c0.3,0,0.5,0,0.8,0c0.1,0.4,0.2,9.5,0.1,10.2c-0.4,0-0.8,0-1.2,0c-0.1,0-0.3-0.1-0.4-0.2c-0.8-1-1.6-2.1-2.5-3.1
				c-1-1.2-1.9-2.4-2.9-3.7c0,0-0.1-0.1-0.1-0.1c0,0-0.1,0-0.1,0c0,0,0,0,0,0c0,0,0,0.1,0,0.1c0,2.3,0,4.6,0,7
				c-0.3,0.1-0.6,0.1-0.8,0.1c-0.3,0-0.6,0-0.9,0C275.5,130.4,275.5,127,275.5,123.6z"/>
			<path class="st6" d="M258.3,130.3c0,1.2,0,2.4,0,3.6c-0.6,0-1.1,0-1.7,0c0-3.4,0-6.8-0.1-10.1c0.1,0,0.2,0,0.3,0
				c1.6,0,3.1,0,4.7,0c0.9,0,1.7,0.3,2.4,0.9c0.6,0.5,0.9,1.1,0.9,1.9c0,0.4,0,0.8-0.1,1.2c-0.2,0.9-0.7,1.5-1.5,1.9
				c-0.2,0.1-0.5,0.2-0.8,0.4c0.9,1.3,1.8,2.5,2.7,3.8c-0.7,0-1.3,0-1.9,0c-0.2,0-0.3-0.2-0.4-0.3c-0.7-1-1.4-1.9-2.1-2.9
				c-0.2-0.2-0.4-0.3-0.7-0.3C259.5,130.4,258.9,130.3,258.3,130.3z M258.3,125.3c-0.1,0.7,0,3.1,0.1,3.4c0,0,0.1,0,0.1,0
				c0.9,0,1.8,0,2.8,0c0.3,0,0.7-0.1,1-0.3c0.6-0.3,0.9-0.9,0.8-1.7c-0.1-0.7-0.4-1.1-1-1.4c-0.3-0.1-0.6-0.2-1-0.2
				c-0.8,0-1.7,0-2.5,0C258.5,125.3,258.4,125.3,258.3,125.3z"/>
			<path class="st6" d="M301.4,129.8c0.9,1.3,1.8,2.5,2.8,3.8c-0.6,0-1.2,0-1.8,0c-0.2,0-0.3-0.1-0.4-0.3c-0.6-0.8-1.2-1.6-1.8-2.5
				c-0.2-0.3-0.4-0.6-0.6-0.8c-0.2-0.1-0.6-0.1-0.9-0.1c-0.4,0-0.9,0-1.4,0c0,1.2,0,2.4,0,3.5c-0.6,0-1.1,0-1.6,0
				c0-3.4,0-6.7-0.1-10.1c0.1,0,0.2,0,0.3,0c1.5,0,3,0,4.6,0c0.8,0,1.5,0.2,2.1,0.6c0.8,0.5,1.2,1.3,1.3,2.2c0.1,0.7,0,1.4-0.4,2
				c-0.3,0.6-0.9,1-1.5,1.2C301.7,129.6,301.6,129.7,301.4,129.8z M297.2,128.5c0.2,0,0.2,0,0.3,0c0.9,0,1.8,0,2.7,0
				c0.4,0,0.8-0.2,1.1-0.4c0.6-0.3,0.8-0.8,0.8-1.4c0-0.6-0.3-1.1-0.8-1.4c-0.2-0.1-0.5-0.2-0.7-0.3c-1.1-0.1-2.2,0-3.3,0
				C297.1,126.2,297.2,127.3,297.2,128.5z"/>
			<path class="st6" d="M288.1,132.2c1,0,1.9,0,2.9,0c1,0,1.9,0,2.9,0c0,0.5,0,1,0,1.5c-0.3,0.1-7,0.2-7.6,0.1c0-3.4,0-6.7-0.1-10.1
				c2.5,0,5,0,7.5-0.1c0,0.5,0,1,0,1.5c-1.9,0-3.8,0-5.7,0c-0.1,0.4-0.1,2,0,2.7c0.4,0.1,0.8,0,1.3,0c0.4,0,0.9,0,1.3,0
				c0.4,0,0.8,0,1.2,0c0.4,0,0.9,0,1.3,0c0,0.5,0,1,0,1.5c-1.7,0-3.4,0-5,0.1C288,129.7,288,131.6,288.1,132.2z"/>
			<path class="st6" d="M315.7,133.5c-0.6,0-1.1,0-1.6,0c0-3.4,0-6.7-0.1-10.1c0.5,0,1.1,0,1.6,0c0,0.2,0,0.3,0,0.5
				c0,1.1,0,2.1,0,3.2c0,0.2,0,0.3,0.1,0.5c1.6,0,3.2,0,4.9,0c0.1-0.5,0-0.9,0-1.4c0-0.5,0-1,0-1.4c0-0.5,0-0.9,0-1.4
				c0.6-0.1,1.1,0,1.6-0.1c0.1,0.4,0.2,8.5,0.1,10.1c-0.3,0.1-0.5,0-0.8,0.1c-0.3,0-0.6,0-0.9,0c0-1.4,0-2.9,0-4.3
				c-0.2,0-0.3,0-0.4,0c-1.4,0-2.7,0-4.1,0c-0.5,0-0.5,0-0.5,0.5c0,1.1,0,2.2,0,3.3C315.8,133.1,315.7,133.3,315.7,133.5z"/>
			<path class="st6" d="M249.3,123.7c0.6,0,1.1,0,1.7,0c1.5,3.4,3,6.8,4.5,10.2c-0.6,0-1.2,0-1.8,0c-0.4-0.8-0.7-1.6-1-2.4
				c-1.6,0-3.2,0-4.9,0c-0.3,0.8-0.7,1.6-1,2.4c-0.6,0-1.1,0-1.8,0C246.4,130.5,247.8,127.2,249.3,123.7z M248.3,130
				c1.2,0,2.4,0,3.5,0c-0.1-0.5-1.6-3.8-1.8-4.1C249.5,127.2,248.9,128.6,248.3,130z"/>
			<path class="st6" d="M330.3,130.1c0,1.1,0,2.2,0,3.2c-0.3,0.1-0.6,0.1-0.9,0.1c-0.3,0-0.6,0-0.9,0c0-3.4,0-6.8-0.1-10.2
				c0.1,0,0.2,0,0.3,0c1.4,0,2.8,0,4.2,0c0.7,0,1.4,0.2,2,0.6c0.9,0.6,1.3,1.4,1.4,2.5c0,0.7,0,1.3-0.3,1.9
				c-0.4,0.8-1.1,1.3-1.9,1.6c-0.6,0.2-1.2,0.3-1.8,0.3c-0.5,0-1,0-1.5,0C330.7,130.1,330.5,130.1,330.3,130.1z M330.3,128.5
				c0.1,0,0.2,0.1,0.3,0.1c0.6,0,1.3,0,1.9,0c0.5,0,1-0.1,1.4-0.4c1.2-0.8,0.9-2.7-0.2-3.1c-0.3-0.1-0.7-0.2-1.1-0.2
				c-0.6,0-1.3,0-1.9,0c-0.1,0-0.2,0-0.4,0.1C330.3,126.1,330.3,127.3,330.3,128.5z"/>
			<path class="st6" d="M239.8,130.8c0,1.1,0,2.1,0,3.2c-0.6,0-1.1,0-1.6,0c-0.1-0.4-0.2-9.4-0.1-10.1c0.1,0,0.2,0,0.3,0
				c1.4,0,2.8,0,4.2,0c1,0,1.8,0.4,2.5,1.1c0.3,0.3,0.5,0.7,0.7,1.2c0.2,0.7,0.2,1.4,0,2c-0.3,1.3-1.2,2-2.5,2.3
				c-0.5,0.1-1.1,0.2-1.6,0.2c-0.5,0-1,0-1.5,0C240.1,130.8,239.9,130.8,239.8,130.8z M239.8,125.4c0,0.1-0.1,0.2-0.1,0.2
				c0,1.1,0,2.1,0,3.2c0,0.3,0.1,0.3,0.4,0.3c0.6,0,1.3,0,1.9,0c0.4,0,0.8-0.1,1.1-0.3c0.7-0.3,1.1-1,1.1-1.7c0-0.8-0.5-1.4-1.3-1.6
				c-0.3-0.1-0.6-0.1-0.9-0.2c-0.5,0-1.1,0-1.6,0C240.2,125.4,240,125.4,239.8,125.4z"/>
			<path class="st6" d="M304.8,132.1c0.4-0.4,0.7-0.8,1-1.2c0.5,0.3,1,0.6,1.6,0.9c0.7,0.3,1.5,0.5,2.3,0.3c0.3-0.1,0.5-0.2,0.8-0.3
				c0.7-0.5,0.7-1.6-0.1-2c-0.5-0.2-1-0.4-1.5-0.5c-0.6-0.2-1.3-0.4-1.9-0.6c-1.2-0.4-1.8-1.2-1.8-2.7c0-1.3,0.9-2.1,1.8-2.5
				c0.8-0.3,1.6-0.4,2.4-0.3c1,0.1,1.8,0.4,2.6,1c0.1,0.1,0.1,0.1,0.2,0.2c-0.3,0.4-0.6,0.8-0.9,1.3c-0.2-0.1-0.3-0.2-0.5-0.3
				c-0.6-0.4-1.2-0.6-1.9-0.7c-0.6-0.1-1.2,0-1.7,0.3c-0.7,0.5-0.7,1.5,0.1,1.9c0.5,0.3,1,0.4,1.5,0.6c0.7,0.2,1.3,0.4,2,0.6
				c0.6,0.2,1.1,0.6,1.5,1.2c0.7,1.3,0.3,3.2-1.4,4c-0.5,0.2-1,0.3-1.5,0.4c-1.5,0.1-2.8-0.2-4-1.1
				C305.2,132.5,305,132.3,304.8,132.1z"/>
			<path class="st6" d="M269.2,125.2c-1.1,0-2.2,0-3.3,0c0-0.5,0-1,0-1.5c0.4-0.1,7.6-0.2,8.3-0.1c0,0.2,0,0.5,0,0.7
				c0,0.2,0,0.5,0,0.8c-1.1,0-2.1,0-3.3,0c0,0.6,0,1.2,0,1.7c0,0.6,0,1.2,0,1.7c0,0.6,0,1.1,0,1.7c0,0.6,0,1.2,0,1.7
				c0,0.6,0,1.1,0,1.7c-0.3,0.1-0.6,0-0.8,0.1c-0.3,0-0.6,0-0.9,0C269.2,131,269.2,128.1,269.2,125.2z"/>
			<path class="st6" d="M324.7,123.3c0.6,0,1.1,0,1.6,0c0.1,0.4,0.2,9,0.1,10.2c-0.5,0-1.1,0-1.7,0
				C324.7,130,324.7,126.7,324.7,123.3z"/>
		</g>
	</g>
</g>
</svg>
