<?xml version="1.0" encoding="utf-8"?>
<!-- Generator: Adobe Illustrator 22.0.1, SVG Export Plug-In . SVG Version: 6.00 Build 0)  -->
<svg version="1.1" xmlns="http://www.w3.org/2000/svg" xmlns:xlink="http://www.w3.org/1999/xlink" x="0px" y="0px"
	 viewBox="0 0 450 220" style="enable-background:new 0 0 450 220;" xml:space="preserve">
<style type="text/css">
	.st0{display:none;}
	.st1{display:inline;fill:#6CD3CE;}
	.st2{opacity:0.19;}
	.st3{fill:none;stroke:#FFFFFF;stroke-width:2.2778;stroke-miterlimit:10;}
	.st4{fill:none;stroke:#FFFFFF;stroke-width:1.7633;stroke-miterlimit:10;}
	.st5{clip-path:url(#SVGID_2_);}
	.st6{fill:#FFFFFF;}
</style>
<g id="BG" class="st0">
	<rect class="st1" width="450" height="220"/>
	<rect x="561.2" y="-54.8" class="st1" width="698.4" height="329.6"/>
</g>
<g id="Layer_2">
	<g>
		
			<image style="overflow:visible;" width="240" height="220" xlink:href="A94CF099E68A5603.png"  transform="matrix(0.2117 -1.506544e-03 1.506544e-03 0.2117 992.2602 81.9246)">
		</image>
	</g>
	<g>
		
			<image style="overflow:visible;" width="600" height="179" xlink:href="A94CF099E68A5601.png"  transform="matrix(0.1429 -1.017019e-03 1.017019e-03 0.1429 974.4486 33.9695)">
		</image>
	</g>
	<g class="st2">
		<line class="st3" x1="607.9" y1="138.2" x2="1192.5" y2="134"/>
		<line class="st3" x1="607.5" y1="78.4" x2="1192.1" y2="74.3"/>
		<line class="st4" x1="957.4" y1="16.2" x2="958.6" y2="195.4"/>
		<line class="st4" x1="1074.1" y1="15.4" x2="1075.4" y2="194.6"/>
		<line class="st4" x1="840.6" y1="17" x2="841.9" y2="196.2"/>
		<line class="st4" x1="723.8" y1="17.9" x2="725.1" y2="197.1"/>
	</g>
	<g>
		<defs>
			
				<rect id="SVGID_1_" x="630.7" y="33.6" transform="matrix(1 -7.116264e-03 7.116264e-03 1 -0.3318 4.7158)" width="63.6" height="30.8"/>
		</defs>
		<clipPath id="SVGID_2_">
			<use xlink:href="#SVGID_1_"  style="overflow:visible;"/>
		</clipPath>
		<g class="st5">
			
				<image style="overflow:visible;" width="500" height="300" xlink:href="A94CF099E68A5607.png"  transform="matrix(0.1526 -1.086000e-03 1.086000e-03 0.1526 625.5569 27.7729)">
			</image>
		</g>
	</g>
	<g id="_x35_cI0Xs_1_">
		<g>
			<path class="st6" d="M160.5,79.8c17-0.1,33.9-0.2,51-0.4c-0.1,0.6-8.1,20.9-12,30.7c-2.6,6.5-5.2,13-7.8,19.5
				c-1.4,3.5-2.8,6.9-4.2,10.4c-1.5,0-48.9,0.4-51.1,0.4c0.1-0.5,3.5-9.4,5.1-13.5c2.8-7.1,5.6-14.1,8.4-21.2
				c1.9-4.7,3.8-9.3,5.7-14C157.1,88,160.3,80.1,160.5,79.8z M184.5,120.3c-0.4,0.4-0.7,0.8-1.1,1.2c-1,0.9-2,1.9-3.1,2.5
				c-2.9,1.6-6,2.1-9.2,1.6c-5-0.8-8.4-3.6-10.2-8.3c-1.2-3.2-1.3-6.5-0.5-9.8c0.8-3.3,2.6-6.1,5.5-8c2.7-1.8,5.7-2.4,8.9-2.1
				c3.6,0.3,6.5,1.7,8.8,4.4c0.3,0.3,0.6,0.6,1.1,1c1-1.2,2.5-1.8,3.4-3.3c-0.8-0.9-1.5-1.8-2.4-2.5c-5.1-4-10.8-5-17-3.6
				c-3.8,0.8-6.9,2.7-9.6,5.5c-3.6,3.9-5.1,8.6-5,13.8c0.1,2.7,0.8,5.3,2,7.8c1.9,3.8,4.7,6.5,8.6,8.3c2.8,1.3,5.8,1.7,9,1.8
				c4.4,0,8.3-1.5,11.8-4.1c1.1-0.8,2.2-1.7,2.9-3.3C187,122.2,185.8,121.3,184.5,120.3z"/>
			<path class="st6" d="M234.6,130.5c-2.4,0-4.4,0-6.6,0c-1.7-3.3-2.7-7-4.5-10.5c-5.3-0.1-10.7,0-16.1,0.1
				c-1.4,3.6-2.8,7.1-4.2,10.7c-2,0-4,0.1-6.3,0c1.8-4.5,3.5-8.8,5.2-13c1.7-4.3,3.4-8.7,5.2-13c1.8-4.2,3.3-8.6,5.2-12.7
				c2,0,3.7,0,5.7,0C223.6,104.7,229.1,117.5,234.6,130.5z M221.7,115.1c-2-5.3-3.9-10.4-5.8-15.5c-0.1-0.2-0.4-0.4-0.6-0.6
				c-2.2,5.2-5.6,14.8-5.6,16.2C213.5,115.1,217.5,115.1,221.7,115.1z"/>
			<path class="st6" d="M142.6,109.5c-0.7,1.8-1.3,3.3-1.9,4.9c-4.2,0-8.2,0.1-12.3,0.1c-0.5,1.5-0.2,2.9-0.2,4.3c0,1.4,0,2.7,0,4.1
				c0,1.4,0,2.8,0,4.2c0,1.3,0,2.7,0,4.2c-2,0.1-3.9,0.1-5.9,0.1c-0.1-12.9-0.2-25.7-0.3-38.5c1.3-0.4,23.9-0.6,27.2-0.3
				c-0.6,1.7-1.1,3.4-2.1,5c-3.3,0-6.5,0-9.7,0.1c-3.1,0-6.2,0-9.3,0.1c-0.3,2.1-0.2,10.2,0.1,11.6c1.5,0.3,3.1,0.1,4.7,0.1
				c1.5,0,3.1,0,4.6,0C139.2,109.5,140.8,109.5,142.6,109.5z"/>
			<path class="st6" d="M269,115.6c-0.8-0.1-1.2-0.2-1.6-0.2c-0.3-1.7-0.3-7.3,0-8.9c0.5,0,1-0.1,1.6-0.2c1.5,2,2.9,3.9,4.5,6
				c0.1-0.5,0.3-0.8,0.3-1.1c0-1.5,0-3.1,0-4.8c0.6,0,1.1,0,1.5,0c0.5,0.5,0.6,6.4,0.2,8.8c-0.5,0.1-1,0.1-1.6,0.2
				c-0.8-1-1.5-2-2.2-3c-0.7-0.9-1.4-1.9-2.1-2.9c-0.8,0.9-0.3,1.9-0.4,2.8C268.9,113.5,269,114.4,269,115.6z"/>
			<path class="st6" d="M259,100.2c0-2.7,0-5.5-0.1-8.4c0.8-0.1,1.4-0.1,1.9-0.1c1.5,1.9,2.8,3.8,4.4,5.8c0.5-2.1,0-3.9,0.3-5.7
				c0.5,0,1,0,1.6,0c0,2.9,0,5.8,0.1,8.7c-0.7,0-1.3,0-2,0c-1.3-1.8-2.7-3.7-4.3-5.8c-0.5,2.1,0,3.9-0.3,5.8
				C260.1,100.6,259.5,100.8,259,100.2z"/>
			<path class="st6" d="M260.3,106.4c2.7-0.1,5.1,1.8,5.1,4.6c0,3.3-2.6,4.9-5.1,4.9c-2.6,0.1-4.9-2.3-5-4.8
				C255.2,108.5,257.4,106.4,260.3,106.4z M262.3,113.6c1.4-2.2,1.4-3.5,0-4.8c-1.2-1-2.7-1.1-3.8-0.1c-1.1,1-1.4,2.9-0.5,4.2
				C258.8,114.3,260.1,114.5,262.3,113.6z"/>
			<path class="st6" d="M278.3,115.5c0-3.1,0-6.1-0.1-9c2-0.3,3.9-0.2,5.7,0.3c1.8,0.5,2.7,1.9,2.8,3.6c0.2,3.3-1.5,5-4.8,5.1
				C280.8,115.5,279.6,115.5,278.3,115.5z M284.2,113c0.8-1.5,1-2.9-0.2-4.1c-1.1-1.1-2.5-1-3.9-0.7c0,1.9,0,3.7,0,5.6
				C281.7,114.1,283,113.8,284.2,113z"/>
			<path class="st6" d="M284.9,125.5c0.3-0.8,0.6-1.7,1-2.5c1.2-2.2,3.5-2.4,5.6-2c1.9,0.3,3.4,2.2,3.6,4.2c0.3,2.3-1.8,4.7-4.1,5.1
				c-3.1,0.4-5.3-1.2-5.8-3.8C285.2,126.3,285.1,126,284.9,125.5z M289.9,128.7c1.9-0.4,2.2-0.4,3.1-2.2c0.1-2.7-0.9-4.1-3-4
				c-2.1,0.1-3,1.5-2.7,4.2C287.8,127.8,288.7,128.4,289.9,128.7z"/>
			<path class="st6" d="M282.2,94.9c0,0.9,0,1.8,0,2.7c0,0.8,0,1.7,0,2.7c-0.7,0-1.2,0-1.8,0c0-2.9,0-5.7-0.1-8.7
				c0.5-0.1,1-0.1,1.7-0.2c1.4,1.9,2.9,3.8,4.4,5.8c0.4-1.9-0.1-3.7,0.3-5.6c0.5-0.1,1-0.1,1.6-0.2c0,3,0,5.8,0.1,8.8
				c-0.5,0.1-1,0.1-1.6,0.2c-1.4-1.9-2.9-3.8-4.3-5.6C282.4,94.9,282.3,94.9,282.2,94.9z"/>
			<path class="st6" d="M283,130.2c-0.6,0-1.1,0-1.7,0c-0.1-1.2-0.1-2.4-0.2-3.7c-1.4-0.4-2.8-0.1-4.3-0.2c-0.1,1.2-0.1,2.4-0.2,3.8
				c-0.6,0-1.2,0.1-1.7,0.1c-0.4-1.4-0.5-6.4-0.2-9c0.6,0,1.1,0,1.9,0c0.1,1.2,0.1,2.2,0.2,3.4c1.4,0,2.8,0,4.3,0c0-1.1,0-2.2,0-3.4
				c0.7-0.1,1.2-0.1,1.6-0.1C283.2,121.5,283.3,126.6,283,130.2z"/>
			<path class="st6" d="M303.7,124.3c-0.3,0.5-0.7,1.3-1.3,2.3c0.2,0.5,0.5,1,0.9,1.6c0.3,0.5,0.6,1,1,1.8c-0.7,0.1-1.3,0.1-1.7,0.1
				c-1.5-0.9-1.3-2.8-2.7-3.5c-0.1-0.1-0.4,0-0.6,0c-0.5,1.1,0,2.3-0.4,3.5c-0.5,0-1,0-1.7,0c0-2.1,0-4,0-5.9c0-1,0-1.9,0-3.1
				c1.4,0,2.7-0.2,4,0C302.6,121.2,303.6,122.2,303.7,124.3z M299,122.8c0,0.8-0.2,1.5,0.3,2.2c0.7-0.1,1.4-0.2,2.1-0.3
				c0-0.7,0-1.2,0-1.7C300.7,122.7,300,122.2,299,122.8z"/>
			<path class="st6" d="M258.1,130.5c-2.1-0.7-2.8-1.9-2.9-3.4c-0.1-1.8,0-3.7-0.1-5.7c0.6-0.1,1.2-0.1,1.8-0.2
				c0.5,2.4-0.3,4.9,0.6,7.2c0.6,0.2,1.1,0.4,1.7,0.5c0.4-0.2,0.9-0.4,1.3-0.5c0.8-1.1,0.7-2.3,0.7-3.4c0-1.2,0-2.3,0-3.6
				c0.6-0.1,1.1-0.1,1.6-0.1c0.1,0.3,0.2,0.4,0.2,0.6c0,1.7,0.1,3.3,0,5c-0.1,2.4-1.4,3.7-3.8,3.7
				C258.7,130.5,258.2,130.5,258.1,130.5z"/>
			<path class="st6" d="M248.4,121.4c0.7,0,1.2,0,1.9,0c1.2,2.9,2.4,5.9,3.7,9c-0.8,0-1.4,0-2.1,0c-0.3-0.6-0.6-1.3-1-2
				c-1.1,0-2.1,0-3.3,0c-0.3,0.7-0.6,1.3-1,2c-0.6,0-1.1,0-1.9,0C246.1,127.3,247.3,124.3,248.4,121.4z M249.5,123.8
				c-0.8,0.9-0.9,1.7-1.2,2.8c0.8-0.1,1.4,0.2,2.1-0.2C250.1,125.5,249.9,124.8,249.5,123.8z"/>
			<path class="st6" d="M294.8,115.2c-1.6,0.6-2.9,0.6-4.3-0.1c-0.9-0.5-1.5-1.2-1.6-2.1c-0.1-2.2-0.1-4.4-0.1-6.7
				c0.6,0,1.1,0,1.5,0c0.1,0.3,0.3,0.4,0.3,0.6c0,1.5,0,3,0.1,4.4c0,0.7,0.2,1.4,0.4,2.2c0.9,0.1,1.7,0.3,2.2,0.4
				c1.1-0.7,1.5-1.5,1.5-2.5c0-1.2,0-2.5,0-3.7c0-0.5,0.1-1,0.1-1.6c0.6,0.1,1.1,0.1,1.8,0.1c0,2.2,0.1,4.2,0,6.2
				C296.6,113.8,295.7,114.6,294.8,115.2z"/>
			<path class="st6" d="M272.8,91.6c0.8,0,1.3,0,2,0c1.2,2.9,2.4,5.7,3.6,8.7c-0.7,0-1.3,0-2,0c-0.4-0.7-0.8-1.3-1.1-2
				c-1.1,0-2.2,0-3.2,0c-0.3,0.7-0.5,1.3-0.8,2c-0.6,0-1.2,0-2,0C270.5,97.5,271.6,94.6,272.8,91.6z M273.8,94c-0.6,1-1,1.9-0.8,3
				c0.6,0,1.2-0.1,1.9-0.1C274.5,95.8,274.2,95,273.8,94z"/>
			<path class="st6" d="M308.8,91.4c0.8,0,1.3,0,2,0c1.2,2.9,2.3,5.7,3.6,8.8c-0.8,0-1.4,0.1-2,0.1c-0.4-0.7-0.7-1.4-1-2.1
				c-1,0-2.1,0-3.2,0c-0.3,0.6-0.6,1.2-0.9,2c-0.6,0-1.1,0-1.9,0C306.4,97.1,307.8,94.3,308.8,91.4z M308.6,96.6
				c0.9,0,1.4,0.1,1.9,0.1c0.3-1.2-0.2-2-0.8-3.2C309.4,94.7,309.1,95.5,308.6,96.6z"/>
			<path class="st6" d="M247.5,109.8c0,0.9,0,1.8,0,2.6c1.7,2.2,2.7,2.3,5.5,0.6c0.3,0.3,0.7,0.6,1.3,1c-0.8,0.6-1.4,1.1-2,1.5
				c-3.8,0.6-5.7-0.1-6.6-2.6c-0.9-2.2-0.1-4.6,1.8-5.8c1.7-1.1,5.1-1.1,6.6,1c-0.4,0.4-0.7,0.8-1.1,1.1
				C250.5,107.5,249.4,107.5,247.5,109.8z"/>
			<path class="st6" d="M295.6,91.1c1.5,0.3,2.9,0.5,3.8,2c-0.3,0.3-0.7,0.6-1.1,1c-0.6-0.4-1.1-0.8-1.7-1.1c-2.3-0.4-3.7,0.4-4.1,3
				c0.2,1.1,0.5,2,1.6,2.7c0.4,0.1,0.9,0.3,1.6,0.5c0.8-0.4,1.6-0.8,2.6-1.3c0.2,0.2,0.5,0.6,0.8,0.8c0,1-1.6,1.9-3.3,2
				c-2.7,0.2-4.8-1.4-5.2-3.9C290.2,93.9,291.8,92,295.6,91.1z"/>
			<path class="st6" d="M307.4,107.9c-0.5,0.4-0.8,0.8-1.2,1.1c-1.2-1.1-2.4-1.9-3.9-1c-1.6,0.9-1.6,2.4-1.4,4
				c1.6,2.3,2.6,2.4,5.5,0.7c0.3,0.3,0.7,0.6,1,0.8c-0.1,0.9-1.6,1.8-3,1.9c-3,0.2-4.7-0.8-5.5-3.1c-0.7-2.2,0.2-4.4,2.1-5.5
				C303.1,105.5,305.6,105.9,307.4,107.9z"/>
			<path class="st6" d="M270.2,130.2c-0.8,0-1.3,0-1.9,0c-0.4-1.2-0.2-2.5-0.2-3.7c-0.1-1.2,0-2.4,0-3.8c-1-0.1-1.9-0.1-2.9-0.2
				c0-0.5,0-0.9,0-1.3c2.6,0,5.2,0,7.9-0.1c0.1,0.3,0.1,0.7,0.2,1.3c-0.6,0.1-1,0.1-1.5,0.2c-0.5,0.1-0.9,0.1-1.5,0.2
				C270.1,125.4,270.1,127.7,270.2,130.2z"/>
			<path class="st6" d="M247.8,97.2c0,1.2,0,2.2,0,3.3c-0.7,0-1.2,0-1.8,0c0-2.9,0-5.7-0.1-8.6c1-0.5,2-0.2,3-0.2c1-0.1,1.9,0,3,0
				c0,0.5,0.1,0.9,0.1,1.5c-1.5,0-2.8,0-4.2,0c0,0.8,0,1.4,0,2.2c0.9,0.1,1.9,0.1,3,0.2c0.1,0.5,0.1,1,0.2,1.6
				C249.9,97.2,248.9,97.2,247.8,97.2z"/>
			<path class="st6" d="M317.1,106.2c0.1,0.3,0.2,0.4,0.2,0.6c0,0.2-0.1,0.5-0.1,0.9c-1,0.1-1.9,0.2-3.1,0.2c0,2.4,0,4.8-0.1,7.2
				c-0.4,0-0.7,0.1-1,0.1c-0.2,0-0.4-0.2-0.8-0.3c0-2.3,0-4.5,0-6.9c-1.1-0.1-2-0.1-3-0.2c-0.1-0.3-0.2-0.5-0.3-0.7
				c0-0.2,0.1-0.5,0.1-0.6C309.5,106,314.4,105.9,317.1,106.2z"/>
			<path class="st6" d="M323.8,124.3c0.8-1.3,1.5-2.3,2.2-3.4c0.6,0,1.2,0,2,0c-0.6,1-1.1,1.8-1.6,2.6c-0.5,0.8-1,1.6-1.5,2.5
				c0,1.2,0,2.4,0,3.9c-0.7,0.1-1.3,0.1-2,0.1c0-1.4,0-2.7,0-3.9c-1.1-1.7-2.1-3.3-3.2-4.9c0.6-0.5,1.2-0.3,1.9-0.2
				C322.2,121.9,322.9,123,323.8,124.3z"/>
			<path class="st6" d="M318.2,121c0,0.4,0,0.8,0,1.3c-0.9,0.1-1.8,0.1-2.8,0.2c-0.3,2.5,0,4.9-0.1,7.5c-0.5,0-1.1,0.1-1.6,0.1
				c-0.1-0.3-0.2-0.4-0.2-0.6c0-1.7,0-3.4-0.1-5.2c0-0.5-0.1-1.1-0.1-1.8c-1.1-0.1-2-0.1-3.1-0.2c0-0.5,0-0.8,0-1.2
				C310.6,120.8,314.7,120.7,318.2,121z"/>
			<path class="st6" d="M318,98.6c1.6,0,2.9,0,4.3,0c0.1,0.5,0.1,0.9,0.2,1.2c-0.4,0.5-4.5,0.6-6.5,0.2c0-2.8,0-5.6-0.1-8.6
				c0.6-0.1,1.1-0.1,1.6-0.1c0.6,1.2,0.3,2.4,0.4,3.6C318,96,318,97.2,318,98.6z"/>
			<path class="st6" d="M301.5,91.5c0.6,0,1.2-0.1,1.6-0.1c0.5,1.4,0.6,6.2,0.3,8.7c-0.2,0-0.4,0.1-0.7,0.1c-0.4,0-0.7,0-1.2-0.1
				C301.5,97.4,301.5,94.6,301.5,91.5z"/>
			<path class="st6" d="M306.4,121c0.5,0,1-0.1,1.4-0.1c0.4,0.5,0.6,6.4,0.2,9c-0.5,0-1,0.1-1.6,0.1
				C306.5,127,306.4,124.1,306.4,121z"/>
			<path class="st6" d="M254.5,91.7c0.5,0,0.8,0,1.1,0c0.2,0,0.3,0.2,0.6,0.3c0,2.7,0,5.5,0.1,8.4c-0.5,0-1,0-1.7,0
				C254.5,97.6,254.5,94.8,254.5,91.7z"/>
		</g>
	</g>
</g>
</svg>
